<?xml version="1.0" standalone="no"?>
<!DOCTYPE svg PUBLIC "-//W3C//DTD SVG 1.1//EN" "http://www.w3.org/Graphics/SVG/1.1/DTD/svg11.dtd" >
<svg xmlns="http://www.w3.org/2000/svg">
<metadata></metadata>
<defs>
<font id="sensa_brushfill_demo" horiz-adv-x="600" >
<font-face units-per-em="2048" ascent="1638" descent="-410" />
<missing-glyph horiz-adv-x="512" />
<glyph horiz-adv-x="0" />
<glyph horiz-adv-x="682" />
<glyph unicode=" "  horiz-adv-x="512" />
<glyph unicode="&#x09;" horiz-adv-x="512" />
<glyph unicode="&#xa0;" horiz-adv-x="512" />
<glyph unicode="!" horiz-adv-x="620" d="M150 1280q-14 14 0 27q2 3 11.5 15t13 16t11.5 13t13.5 14t13.5 11t16 10q10 5 11 5q20 2 61.5 14.5t65.5 13.5q38 3 71 -8q9 -12 19 -22q2 -13 -8 -48q-7 -22 -17 -114q-6 -37 -14 -115l-31 -231q-1 -15 -6 -43.5t-6 -44.5q-5 -40 -16.5 -113t-14.5 -94q0 -3 -2.5 -20 t-3.5 -22.5t-4.5 -19.5t-7 -21.5t-9.5 -17.5t-14 -18q-3 -3 -5 -8.5t-2 -9.5t0.5 -10.5t0.5 -8.5q-6 -51 -55 -39q-15 5 -21 21q-4 20 -4 53q3 45 -16 90q-21 53 -33 160q-5 59 -5 85.5t4 85.5t5 87q1 24 3.5 74.5t3 75.5t-0.5 75q0 2 -0.5 10t-0.5 10.5t-1 9t-1.5 10t-2 9 t-3.5 9t-4.5 8t-6.5 8.5zM166 121q0 33 2 53q4 38 25.5 56t66.5 24q45 9 78 -12q29 -20 31 -37q2 -2 2.5 -9t3.5 -8v-4q7 -54 -33 -95.5t-96 -43.5q-25 -2 -50.5 20.5t-29.5 55.5z" />
<glyph unicode="," horiz-adv-x="454" d="M102 289q-6 106 74 174q2 2 5.5 4.5t4.5 3.5q8 1 30.5 6t35.5 4q16 0 24 -4q29 -14 56 -45q6 -6 6 -14q12 -59 14 -86v-6q-1 -7 -5.5 -43t-10.5 -54q-28 -85 -39 -106l-25 -45q-7 -15 -49 -47q-13 -5 -18 0q-6 6 2 14q26 44 49 123q12 46 12 65q0 14 -4 15q-7 5 -16 -4 q-10 -7 -47 -21q-35 -12 -65.5 8.5t-33.5 57.5z" />
<glyph unicode="-" horiz-adv-x="817" d="M164 627q0 21 20 30q31 9 52 -2q22 -19 53 -12q32 4 113.5 2t113.5 -6q23 -4 64 2q4 1 11 3.5t11 2.5q2 -1 33 -6q23 -8 18 -29q-1 -2 -4.5 -13.5t-4.5 -15.5t-4.5 -15t-6 -16.5t-6.5 -15t-8 -15t-8.5 -12.5t-9.5 -12.5t-11 -9.5q-27 -21 -60 -8q-15 7 -22 4 q-17 -2 -116.5 -2t-119.5 -2h-18q-39 0 -51 -28q-9 -5 -13 -2q2 11 1.5 16t-3.5 15.5t-4 15.5q-6 18 -20 131z" />
<glyph unicode="." horiz-adv-x="454" d="M102 319q0 39 2 64q6 45 31.5 66.5t79.5 27.5q52 12 92 -14q32 -24 37 -43q2 -2 2.5 -10.5t3.5 -10.5v-4q9 -64 -39 -113.5t-114 -52.5q-30 -2 -59.5 24.5t-35.5 65.5z" />
<glyph unicode="0" horiz-adv-x="870" d="M61.5 763q0.5 20 5 70.5t5.5 71.5q6 112 41 203q24 72 47 123q11 31 39 106q13 37 51 99q22 30 51 30q32 0 92.5 8t89.5 9q12 1 27 -1.5t23 -4.5t28.5 -8t24.5 -7q23 -7 31.5 -28t0.5 -45q-11 -31 9 -54q29 -32 45 -63q38 -54 47 -113q2 -21 20 -61q8 -32 4 -47 q-9 -44 15 -93q7 -15 12.5 -32t8.5 -30t5 -35t2.5 -31.5t1 -35.5t0.5 -32q1 -34 -0.5 -95t-1.5 -81q0 -188 -55 -316q-53 -119 -110 -170q-76 -73 -181 -41q-54 15 -101 42.5t-110 72.5q-11 9 -20.5 31t-11.5 26q-82 136 -97 222q-34 192 -37 239q-2 51 -1.5 71zM338 748 q-4 -73 14 -236q0 -4 1 -17.5t3 -24.5t6 -21q10 8 16.5 18t12 23t8.5 18q17 35 55 124.5t64 137.5q42 76 78 156q10 22 45 129q4 25 0 37q-17 92 -49 149q-12 24 -23.5 26t-33.5 -18q-56 -53 -91 -125q-4 -11 -13.5 -30.5t-10.5 -22.5q-2 -4 -9 -15.5t-11 -21t-5 -18.5 q-6 -27 -20.5 -84t-23.5 -100.5t-13 -83.5zM393 293q11 -22 23.5 -54.5t29.5 -60.5l7 -6q74 -79 153 6q42 45 64 133q4 16 12.5 49t13.5 53.5t10.5 49.5t8.5 53q2 21 3.5 63t5 75.5t11.5 62.5q-4 30 -10 47q-7 18 -5.5 40t-0.5 42q-1 2 -2.5 24t-4.5 41.5t-7 22.5 q-11 2 -19 -8t-10 -11q-9 -23 -45.5 -85t-38.5 -66q-26 -46 -65.5 -143t-71.5 -146q-6 -10 -15 -24t-15.5 -26.5t-16.5 -37.5q-28 -69 -15 -94z" />
<glyph unicode="1" horiz-adv-x="765" d="M72 1206q2 4 6 8l12 2q13 3 18.5 -1t6.5 -17l2 -2q9 -1 15.5 -3.5t10.5 -8.5t6 -10t5.5 -13.5t5.5 -13.5q5 -14 23.5 -26t33.5 -11q25 1 48 33t26 47q4 34 15.5 81t15.5 75q4 25 8 40t16.5 32.5t32.5 25.5q6 2 10 14q7 10 17 8q10 -1 21.5 1t26 5.5t21.5 4.5q5 1 11.5 1 t13.5 -0.5t10 -0.5q22 -3 31.5 -13t9.5 -32q-2 -22 3.5 -70.5t2.5 -75.5q-2 -22 0.5 -71t-0.5 -72q-1 -11 0.5 -33.5t1.5 -30.5q4 -12 2 -18q-6 -9 -4 -48.5t2 -47.5q-3 -29 -8 -311t-8 -310q-3 -21 -0.5 -70.5t-3.5 -68.5q-2 -11 4 -18t16 -7q49 -8 74 -10q38 -3 76 -18 q16 -8 16 -21q0 -9 -18 -18q-6 -2 -39 -2q-60 0 -76 -5h-6q-11 -16 -35 -16q-33 -4 -69.5 -6t-81.5 -3.5t-70 -2.5q-10 -1 -28 7.5t-30 4.5q-12 0 -18 2q-7 -3 -20 1.5t-17 4.5q-3 0 -9 1t-9 1q-5 3 -15 3t-14 3q-8 5 -23 9q-3 4 -11.5 4t-12.5 4h2q-2 1 -6.5 2.5t-7 2.5 t-5 4t-2.5 7l-6 27q3 13 17 16h10q75 -19 121 -26q27 -5 41.5 8t11.5 39q-4 8 -7 32t-5 59t-3 65t-2 65.5t-1 44.5q-2 21 -1.5 294.5t3.5 297.5q-42 -24 -91.5 -19t-62.5 29q-3 4 -15.5 17.5t-15.5 21.5q-3 5 -8 8q-42 32 -18 88z" />
<glyph unicode="2" horiz-adv-x="921" d="M25 139q9 8 14 19t9.5 28.5t6.5 22.5q11 34 33 96.5t31 89.5q6 13 10.5 38.5t7.5 35.5q16 49 49 98q11 18 23.5 36t22 33t22.5 38q9 16 42 55t42 57q8 18 59 89.5t58 82.5q5 8 50 65.5t56 94.5q2 7 12 32t17 47.5t4 33.5q-1 3 -2.5 23.5t-7 40t-17.5 34.5q-27 42 -63 62 q-73 33 -125 8q-29 -13 -70 -29q-57 -21 -82 -67l-32 -64q-27 -55 0 -96q12 -22 11.5 -33.5t-7.5 -34.5q-6 -17 -21 -20q-35 -6 -49 37t-8 97t22 89q29 67 74 106q45 48 109 74q132 52 223 2q95 -58 143 -110l21 -21q37 -33 55 -78q7 -28 20 -49q8 -15 14.5 -65.5t3 -108.5 t-21.5 -80q-1 -1 -30.5 -74t-48.5 -90q-48 -38 -66 -69q-7 -11 -74 -70t-98 -74q-48 -23 -90 -59q-5 -4 -29 -16q-5 -4 -32.5 -27.5t-43.5 -34.5q-4 -4 -15.5 -14.5t-19 -18.5t-12.5 -16q-24 -46 -22 -59q52 12 149 -15q83 -25 183 4q23 6 71.5 16.5t73.5 16.5q42 36 43 37 q31 45 18 80q-3 14 4.5 22t18.5 5q12 -4 29 -21q46 -52 49 -125q0 -45 14 -80q13 -50 -10 -108q-3 -6 -10 -13q-101 -90 -236 -36q-8 3 -31.5 14.5t-40 16.5t-34.5 5q-21 3 -45 27q-47 49 -138 92q-80 28 -137 -35q-41 -44 -61 -86q-22 -43 -50 -51q-11 -2 -31 16t-7 31z " />
<glyph unicode="3" horiz-adv-x="901" d="M72 414q1 20 8.5 62t7.5 65q0 18 23 22q20 1 32.5 -13.5t10.5 -37.5q-1 -13 -6.5 -36t-6.5 -30q-7 -41 5.5 -65.5t48.5 -42.5q38 -15 129 -31q165 -27 299 148q99 134 51 284q-34 108 -137 144q-24 6 -45 -6q-11 -6 -34 -14t-30 -11q-87 -38 -113 -61q-20 -17 -51 -10 t-43 30q-36 71 10 139q21 31 49.5 58t70 58.5t57.5 45.5q25 19 54.5 55.5t47.5 69.5q11 23 8 66q-10 45 -35 81q-8 8 -28 18.5t-29 10.5q-8 0 -25.5 0.5t-27.5 0.5t-24.5 -1.5t-26.5 -5.5q-64 -15 -111 -78q-53 -85 -35 -153q7 -21 -4 -45.5t-29 -32.5q-14 -6 -28 0.5 t-17 21.5q-16 55 -10 112t43 101q34 36 111 105q12 8 35 16t28 10q39 11 125 15q81 0 150 -90q4 -4 7.5 -10t8 -14.5t8.5 -14.5q35 -39 66 -146q10 -48 6.5 -75t-25.5 -72q-1 -2 -4.5 -13t-5.5 -17t-6.5 -16.5t-8 -17t-8 -13t-8.5 -9.5q-17 -15 -17 -24.5t19 -22.5 q8 -6 26 -16.5t30.5 -20.5t21.5 -23q39 -47 68 -116q40 -88 47 -205q10 -109 -10 -199q-4 -14 -15 -34t-12 -23q-6 -10 -25.5 -43.5t-30 -48.5t-31.5 -36.5t-44 -33.5q-107 -55 -248 -68q-19 -2 -41 11q-14 8 -73.5 41.5t-90.5 52.5q-122 75 -112 252z" />
<glyph unicode="4" horiz-adv-x="972" d="M78 449q-14 45 8 67q16 10 12 43q-11 64 -2 105q2 16 17 77q11 49 34.5 140t26.5 102q15 40 29 96q11 37 18.5 75.5t16.5 100.5t12 78v49q-2 22 -27 27h-14q-29 6 -10 31q4 6 14 18.5t14 18.5q7 10 17 10q24 6 68.5 22.5t66.5 22.5q76 0 82 -72q4 -49 20 -65 q3 -4 4.5 -17.5t3.5 -17.5q3 -16 8.5 -54.5t10.5 -58.5q4 -7 0 -14q-6 -15 -7.5 -31.5t-0.5 -36.5t0 -30q-5 -89 -43 -189q-17 -41 -21 -69q-2 -16 -7 -33.5t-8.5 -29.5t-12 -32t-12 -28t-14 -31.5t-13.5 -28.5q-4 -11 -10 -42.5t-14 -55.5t-21 -37q-6 -6 -3 -13t13 -7 q131 7 170 16q18 4 22 39q24 200 29 227q16 88 31 135q17 52 36.5 66t75.5 16q17 0 41 4q34 9 68 9q22 0 35 -23q23 -38 0 -70q-12 -12 -15 -28q-3 -31 -14 -86.5t-14 -75.5q-4 -33 -11 -43q-4 -9 -2 -16q10 -27 -6 -103q-3 -21 1.5 -26.5t25.5 -6.5q9 0 65 7q35 3 50 -23 q2 -9 -1 -13t-14.5 -7t-15.5 -5q-15 -6 -33 -6q-43 -10 -49 -10q-27 -3 -31 -29q0 -4 -3 -30t-3 -41q-15 -252 -14 -258q9 -53 -13 -99q-8 -21 -36 -24q-55 0 -91 39q-51 65 -61 123q-27 135 -27 239q0 39 -4.5 42.5t-42.5 -3.5q-5 -1 -84 -13t-102 -24q-25 -14 -35 -32 q-13 -19 -33 -19q-12 2 -32 -18q-19 -13 -29 -13.5t-27 11.5q-47 37 -63 82z" />
<glyph unicode="5" horiz-adv-x="784" d="M53 225q-3 8 0.5 11t12.5 0q30 -5 32 -21q6 -34 38.5 -47t64.5 -4q93 29 131 76q9 11 59 92q42 62 68 151q16 69 26 176q6 56 -23.5 101t-80.5 63q-24 8 -80 -12t-78 -37q-1 0 -6 -6.5t-8 -7.5l-22 -28q-12 -13 -17 -9q-20 14 -64 65q-25 36 -8 70q6 6 11 35q1 18 4 50.5 t4 49.5q0 1 1 3t1 3q14 51 15.5 124.5t8.5 111.5q7 40 -6 70q4 16 0 49t0 51q4 17 13.5 25.5t27.5 15.5q12 3 27 -6l16 -12t19 -15q17 -9 39 -2q37 11 88 19t77 24q11 5 34.5 14.5t41.5 18t33 18.5q8 6 12 23q3 31 -8 59q-10 23 -8.5 31t20.5 20q13 6 29 2t27 -16 q37 -51 34 -125q-5 -47 -9 -74.5t-23.5 -72t-51.5 -70.5q-21 -17 -57 -37t-72.5 -37t-42.5 -20q-12 -10 -83.5 -27t-83.5 -24q-9 -6 -16 -14.5t-11 -15.5t-8 -20.5t-5.5 -19.5t-5 -23.5t-4.5 -23.5q-2 -4 -2 -27q0 -4 -1 -9.5t-1 -8.5l2 -35q0 -91 11 -109q125 80 196 72 q21 -3 45 -9.5t52 -16t42 -13.5q19 -3 103 -61q38 -29 76 -135q46 -137 6 -256q0 -1 -4.5 -20t-8.5 -27q-28 -64 -94 -148q-18 -25 -43 -33q-1 -1 -4 -2t-4 -2q-32 -32 -117 -71q-92 -51 -172 -43q-8 1 -35 -0.5t-36 2.5q-21 4 -31 10q-11 4 -33 8q-31 3 -47 35 q-8 17 -33 104z" />
<glyph unicode="6" horiz-adv-x="935" d="M64.5 785.5q7.5 92.5 39.5 166.5q3 11 9 29l11 33t9 28q13 39 41 82q4 8 15.5 27t19 33t12.5 28q6 19 21 41q22 22 22 50q0 21 29 30q12 3 23 6.5t22.5 9.5t19.5 10t20 12.5t17 12t17.5 14.5t15.5 13.5t17 15.5t16 15q66 57 157 43q57 -11 78 -55q8 -19 16 -55.5 t11 -47.5q17 -73 25 -209q4 -60 -5 -96q-13 -30 -43 -27q-22 0 -32.5 11t-3.5 26q11 21 14.5 45.5t2 42.5t-5.5 47t-5 43q-8 66 -29 156q-6 26 -31 40.5t-57 10.5q-20 -4 -39.5 -13.5t-27 -14.5t-31.5 -23q-19 -17 -19 -53q-18 -106 -18 -142q0 -11 -8 -22q-10 -38 -11 -41 q-9 -18 0 -39q0 -2 1 -5.5t1 -4.5q-12 -33 -5.5 -100.5t-8.5 -100.5q-6 -12 -8.5 -27t-2.5 -25t0.5 -30t0.5 -28q16 6 30 18.5t21 15.5q64 87 178 107q53 7 113 -25q46 -24 80 -80q27 -35 59 -116q4 -4 4 -9q-7 -18 -1 -60t3 -60q-3 -20 6 -50q9 -55 -6 -110q-7 -22 0 -39 q6 -14 2 -33q-54 -127 -139 -176q-55 -28 -76 -45q-7 -5 -14 -9.5t-17 -8t-16 -5.5t-19 -6t-18 -6q-19 -6 -35 0q-18 6 -79 19.5t-91 27.5q-44 18 -75 49q-109 101 -154 220q-5 14 -16.5 47.5t-17 52t-13.5 46.5t-13 52.5t-7 48.5q-9 79 -1.5 171.5zM352 385 q30 -137 74 -213q35 -46 45 -53q38 -26 82 6q16 11 27 39q26 67 36 108q8 33 23.5 83.5t22.5 82.5q37 165 0 320q-13 37 -46 57q-28 16 -49 0q-40 -11 -73 -41q-2 -5 -19 -8q-3 -6 -13 -18.5t-13 -20.5q-10 -18 -32 -53.5t-37.5 -64.5t-23.5 -56q0 -59 -4 -88q-9 -42 0 -80z " />
<glyph unicode="7" horiz-adv-x="821" d="M47 1384q-12 16 0 33q6 10 31 6q14 -5 32 -6.5t29.5 -1.5t34 2t31.5 2q14 0 71.5 3.5t98.5 2.5q57 -4 174 -4q59 0 117 9q20 3 71 -5q12 -2 27 -18t16 -29q3 -26 -24 -43q-29 -18 -73 -79.5t-69 -133.5q-52 -153 -63 -219q-6 -40 -1 -55.5t28 -16.5q21 -2 64 -8t65 -8 q16 0 24 -2q19 -8 21 -20q0 -9 -15 -19q-6 -6 -18 -10q-41 -9 -123 -2q-16 2 -53 -2q-14 -1 -19 -7t-10 -22q-30 -82 -57.5 -254t-26.5 -373v-24q-2 -28 -11.5 -35.5t-37.5 -3.5q-34 6 -41 8q-26 14 -77.5 4.5t-80.5 -2.5q-11 7 -16 15q-27 37 -31 47q-19 31 12 53 q5 3 29.5 142t48.5 280.5t27 148.5q4 9 -3 17.5t-20 11.5q-29 3 -61 -4q-22 -3 -39 1.5t-14 18.5q4 17 20.5 36.5t34.5 12.5q25 -8 88 0q19 2 31 27q16 50 38 128t44.5 147.5t58.5 152.5q12 24 8 39t-18 19t-29.5 6.5t-25.5 -0.5q-89 0 -136 2q-16 0 -28 -1.5t-27 -4 t-29 -3.5q-2 0 -17 -2t-24.5 -1t-11.5 6q-2 4 -21 16t-24 22z" />
<glyph unicode="8" horiz-adv-x="876" d="M66 375q-13 73 10 155q41 148 127 234q0 1 1 2t1 2q20 25 20.5 35.5t-12.5 42.5q-57 133 -63 219q-4 121 16 188q52 170 164 209q6 2 27.5 10t31 10.5t27.5 6.5t33 2.5t30 -6.5q24 -8 31 -15q49 -36 78 -61q56 -39 98 -131q33 -62 16 -158q-4 -29 -38 -92t-89 -121 q-6 -6 -9 -12t-3.5 -10t2.5 -9t5.5 -7.5t8 -7.5t7.5 -7q19 -17 66 -74t59 -75q3 -3 12.5 -17.5t17.5 -21.5q11 -11 13 -17q14 -46 37.5 -136.5t23.5 -102.5q1 -4 -5.5 -50.5t-12.5 -72.5v-2h-2q-6 -8 -14 -38.5t-15 -43.5q-6 -15 -17 -30t-18 -23t-24 -24t-21 -20 q-17 -19 -53 -30q-80 -27 -109 -29q-84 -7 -129 8q-145 35 -227 111q-75 70 -102 209zM150 459q-1 -18 2 -35.5t9.5 -42t8.5 -33.5q5 -23 16.5 -47t19.5 -36.5t28.5 -40t25.5 -34.5q4 -4 8 -4q118 -64 209 -57q58 6 92 64q41 90 47 100q14 52 0 82q-46 75 -63 94 q-78 85 -137 137q-7 6 -23 19.5t-25 21t-21 20.5t-21 25q-20 27 -31.5 29.5t-40.5 -12.5l-12 -7q-50 -35 -62 -100q-3 -19 -10 -41q-6 -17 -20 -102zM320.5 1269q-0.5 -25 0.5 -40.5t12 -45.5t14 -37.5t18 -41.5q19 -53 94 -133q30 -38 57 -19q21 15 37 36.5t24 37.5 t21 47.5t20 46.5q9 21 9 111q0 34 -43 96q-34 46 -76 72q-44 31 -94 17t-76 -66q-5 -9 -10 -33q-7 -23 -7.5 -48z" />
<glyph unicode="9" horiz-adv-x="888" d="M63 811q-4 31 2.5 90t6.5 72t2.5 35t2.5 39t-5 32q-4 21 6 31q12 11 20 23.5t16 29.5t13 25q32 49 74 127q4 8 6 10q14 13 41 42t43 42q69 58 139 74q60 17 121 5t104 -50q166 -152 162 -441q0 -19 3.5 -81.5t6 -114.5t0.5 -58q2 -20 -55 -428q-9 -49 -72 -145 q-18 -26 -71.5 -57.5t-75.5 -40.5q-77 -43 -172 -15q-18 4 -48 16.5t-44 16.5l-8 8q-69 50 -95 92q-12 15 0.5 29.5t36.5 16.5q21 1 58 -17t45 -33q13 -28 57 -67q39 -27 74 -18.5t53 44.5q36 70 33 142q-1 41 9 132.5t7 139.5q0 2 -1.5 8.5t-1 11.5t4.5 9v4q-2 6 -2 18 q-10 -51 -76 -96q-57 -39 -94 -45q-126 -25 -201 23q-6 0 -6 2q-5 2 -8 12q2 -2 4 -2q-1 0 -2 1t-2 1q-2 0 -8 6q-54 35 -62 92q-2 10 -14.5 47.5t-13.5 57.5q0 4 -2.5 15t-2 14t2.5 14q4 13 -3.5 31.5t-7.5 27.5zM268 958q0 -5 5 -19.5t3 -23.5q-3 -10 -4.5 -19.5 t-1.5 -21.5v-18.5t3 -21.5t3.5 -19t4.5 -21.5t4 -19.5q15 -66 63 -180q1 -2 7 -13t10 -16q15 -24 30.5 -25.5t40.5 19.5q32 27 51 86q8 24 13.5 50t11.5 63t8 51q15 83 8 203q0 4 -1.5 13.5t-1 14.5t5 11t14.5 10q4 4 4 12q-1 16 1 54.5t-1 65t-14 50.5q-13 59 -19 76 q-16 42 -47.5 57.5t-89.5 3.5q-8 -1 -22 -7t-19 -7q-42 -16 -45 -51q-2 -23 -14 -78q-15 -32 -11 -138.5t0 -140.5z" />
<glyph unicode="?" horiz-adv-x="909" d="M86 1235q4 39 37 88q101 137 291 137q13 0 28 -4t25 -8t28.5 -13t26.5 -12q78 -38 137 -100q80 -84 86 -188q0 -17 -2 -23q-2 -7 -12 -36.5t-15 -42t-16 -33t-24 -35.5t-48.5 -60t-58.5 -67q-32 -28 -43 -33q-52 -28 -100 -94q-51 -64 -8 -148l33 -51q2 -6 9 -16t9 -13 q6 -19 -7 -38.5t-34 -22.5q-36 -3 -74 14q-40 25 -53 59.5t-8 84.5v28q-7 93 45 223q18 44 33 66q54 81 61 205q8 82 6 125q0 55 -20 102q-20 54 -74 51q-101 -7 -149 -75q-17 -31 -17 -82q0 -95 53 -156q10 -10 15 -25q19 -29 -6 -57q-16 -20 -58 -33q-25 -9 -39 15 q-76 136 -57 268zM326 207q6 4 9 11t3 12.5t-1 16.5t-1 17q2 37 72 58q12 3 8 10q59 18 80 -39q28 -46 26 -72q3 -22 -7 -38t-30 -36q-51 -46 -118 -26q-2 2 -13.5 10t-17.5 14q-7 8 -9 19t-0.5 20.5t-0.5 22.5z" />
<glyph unicode="A" horiz-adv-x="757" d="M2 443q0 14 2 39.5t2 27.5q2 67 49 166q28 59 121 160l16 16q15 16 21 27q1 6 7 8q2 1 4 1q4 0 7 -3q9 -7 32 -11.5t26 -5.5q13 -4 32 -5t33 -9q3 -1 18.5 -7t24.5 -11q52 -22 72 -70q8 -21 -12 -35q-3 -2 -21 -20q-5 -4 -27.5 -14t-29.5 -15q-26 -15 -33 -39 q0 -1 -10 -16q-6 -3 -10 -11q-22 -42 -50 -57l-4 -4q-3 -17 -20.5 -44t-20.5 -44q0 -1 -1 -3t-2 -3q-8 -9 -13 -21.5t-7.5 -21.5t-5.5 -25.5t-5 -23.5q-1 -6 -2 -13q0 -40 47 -90q16 -19 37 -6q12 6 22 14.5t23 23t16 17.5q12 12 23.5 29t17.5 27t19 33.5t16 29.5q8 24 8 37 v10q0 27 4 65q5 46 6 60q0 9 6 15t15 6q16 2 47 2q11 0 14.5 -4.5t3.5 -14.5l-6 -22q-6 -4 -10 -17q0 -15 -1 -41t-1 -41q0 -6 -2 -10q0 -12 2 -20q0 -9 7.5 -27.5t8.5 -28.5v-6q0 -72 72 -88q24 -5 55 13q3 2 11 6.5t13.5 8.5t6.5 7q0 1 31.5 49t37.5 64q8 20 22.5 48.5 t24.5 54t15 58.5q7 35 35 13q10 -8 14 -16q4 -7 4 -11t-4 -14q-3 -8 -4 -12q-9 -35 -22 -66.5t-22 -47.5t-23.5 -40t-18.5 -31q-17 -33 -40.5 -65.5t-35.5 -40.5q-32 -18 -39 -33q-4 -6 -27.5 -11.5t-31.5 -2.5q-3 1 -15.5 3.5t-21 4.5t-18.5 6t-15 8q-42 29 -55 53 q0 1 -1 2t-1 2q-10 15 -13.5 17t-11.5 -4q-7 -2 -12 -13q-34 -83 -147 -131q-9 0 -13 2q-53 15 -90 17q-68 8 -123 63q-17 17 -28 40.5t-17 43.5q-4 19 -6 47q-1 21 -2 34v8z" />
<glyph unicode="B" horiz-adv-x="731" d="M6 528q0 4 1 13.5t1 13.5v49q8 39 8.5 85t1.5 52q1 11 11 63t10 79q0 83 111 403q11 31 18 60q12 28 12 45q2 31 25 53q20 19 47 18h8q26 -3 51 0q27 -8 43.5 -14t35.5 -21t28 -36q22 -46 22 -119q0 -49 -10 -109q-31 -157 -147 -387q-3 -4 -6 -36t-3 -48q-7 -44 -7 -88 q0 -15 1 -29q13 -26 15 -94q1 -33 7 -100.5t7 -101.5q4 -52 41 -140q9 -22 27 -22t30 22q59 91 72 209l-2 8q9 24 6 41v2q1 5 1 10q0 33 -30 62l-43 43q-14 13 -23 32t-11 32t-5 38q0 3 -3 26.5t-3 29v24.5t3.5 27.5t11 21.5t18.5 23q40 35 59 47q27 19 56 4q15 -23 20 -45 q23 -107 23 -218v-26q2 -29 7 -34t34 -2q3 0 17.5 1.5t18 2t14 2.5t16 4.5t14 7t16.5 10.5q32 24 45 37q6 7 17.5 33t23 41.5t23.5 11.5q5 -6 8 -20q0 -1 1.5 -4.5t1.5 -5.5l1 -8q1 -3 -1 -7l-5 -10q-75 -144 -240 -144q-10 0 -24 -37t-13 -69q-3 -18 -8 -55t-8 -54 q-3 -15 -7.5 -57t-11.5 -65q-13 -38 -49 -69q-35 -30 -67 -30h-2q-113 7 -174 43q-62 35 -96 92.5t-56 139.5q-6 20 -10.5 45t-6.5 42t-4.5 48.5t-3.5 44.5q-4 42 -10 63zM276 932q-1 -3 -1 -6q0 -8 5 -12q7 -6 16 -4t11 12q7 39 39.5 117.5t38.5 123.5q5 35 6 50.5t1.5 47 t-9 53.5t-27.5 38q-6 6 -12 6t-10 -6q-1 -1 -8 -11q-11 -19 -17 -36q-15 -54 -19 -89q-2 -19 -2 -39q0 -17 1 -35q3 -38 2 -57q-4 -74 -4 -112q-11 -39 -11 -41zM418 711q-6 -32 -6 -63q0 -47 14 -93q8 -31 45 -53q9 -6 16 -6q11 0 13 20q0 10 -1 25t-1 22q1 7 1 15 q0 42 -18 114q-11 26 -24 37q-11 7 -20 7q-15 0 -19 -25z" />
<glyph unicode="C" horiz-adv-x="632" d="M0 485v7q0 29 12 94q28 129 92 211q11 11 29 18q21 9 39 21q36 24 63 24h7q4 0 6 2q7 4 14 6q7 4 12 4h3q5 0 11 -2q8 -2 11.5 -2.5t13.5 -3.5t13 -4q43 -11 108 -53q11 -8 29 -12q32 -10 29 -31q0 -14 -10 -25t-23 -12q-8 -2 -29 -2t-57 -16q-35 -17 -53.5 -31 t-24.5 -22t-18.5 -34.5t-24.5 -46.5q-8 -13 -22.5 -38t-22.5 -37q-8 -11 -10 -31q-8 -58 -8 -96.5t8 -57.5q7 -15 13.5 -24t19.5 -20.5t14 -12.5q1 -3 8 -6q0 -4 8 -8q25 -12 50 -12t42.5 4.5t42.5 23.5t36 29t37.5 38t33.5 35q38 38 82 104.5t69 119.5q13 28 21 34t20 -2 q21 -13 21 -28q0 -13 -10 -25q-10 -21 -28 -47.5t-36 -51t-23 -32.5q-10 -14 -27.5 -40.5t-31.5 -44.5t-33 -38q-4 -4 -24 -35t-35 -36q-23 -7 -39 -14t-21.5 -10t-13.5 -5.5t-22 -3.5l-17 -6q-29 -18 -59 -18q-8 0 -16 1q-7 -1 -14 -1q-34 0 -72 12q-14 5 -23.5 13.5 t-24.5 12.5q-27 9 -49 31q-51 49 -70 100t-26 133z" />
<glyph unicode="D" horiz-adv-x="882" d="M10 575q2 15 7.5 42t7.5 40q18 25 33.5 51t22.5 36.5t15.5 21.5t23.5 14.5t35.5 6t61.5 4.5q47 0 74 -11q0 -2 2 -2q6 -1 19 -4.5t20 -4.5t18 1q9 4 11 12.5t0 22t-1 18.5q18 179 33 238q6 24 13.5 71.5t9.5 57.5q7 44 28 100q13 35 15 51q0 29 35 41q30 7 56 7 q41 0 68 -19q27 -15 46 -29q11 -40 11 -81q0 -9 -1 -19l-6 -61q-18 -54 -28 -125t-12 -109t-5 -129q-1 -32 -6.5 -74.5t-6.5 -74.5q-1 -26 -1 -69v-46.5v-46.5q0 -42 -1 -68q0 -10 6 -16q0 -42 17 -88q10 -27 31.5 -37t44.5 -4q5 0 14 6q49 32 78 92q95 169 119 230l1 3 q1 4 1.5 5.5l1.5 4.5t2 3.5t3 2t5 0.5t6 -3q2 -1 6 -3.5t5.5 -3.5t4 -3t3.5 -3.5t1.5 -4t0.5 -6t-1 -7.5q-14 -60 -38 -111t-47.5 -86.5t-26.5 -41.5q-39 -64 -70 -93q-10 -10 -22.5 -18t-30 -17t-25.5 -14q-6 -4 -20 -4q-9 2 -36.5 8t-41.5 9q-44 9 -65 47q-48 41 -70 90 q-17 40 -19 42q-9 12 -16 -7q-15 -40 -22 -88q-3 -57 -43 -113l-21 -33q-26 -42 -84 -59q-19 -6 -34 -6q-13 0 -23 4q-18 7 -35 10q-72 17 -105 92q-5 12 -15 33t-17 39t-11 35q-19 80 -19 153q0 51 9 98zM217 362q0 -44 4 -114q9 -37 10 -39q5 -12 11 -12q3 0 6 2 q4 -2 8 -2q6 0 12 4q62 47 82 149q2 9 8 43t8.5 46.5t6.5 42t4.5 47t0.5 42.5t-3 47q0 8 -8 18q-5 7 -11 7q-3 0 -6 -2q-25 -16 -33 -29q-30 -51 -41 -82q-23 -71 -45 -127q-1 -4 -7.5 -18.5t-6.5 -22.5z" />
<glyph unicode="E" horiz-adv-x="552" d="M-8 418q-6 31 -6 65q0 70 28 152q6 20 15.5 37t28.5 45.5t24 36.5q44 67 78 93q31 23 60 23h7q32 -3 78 -8q2 0 8.5 -1.5t8.5 -0.5h12q34 0 53 -31q20 -41 20 -70q0 -13 -4 -24q-4 -18 -9 -52t-9 -52q-3 -29 -16 -45q-19 -26 -49 -81t-50 -81q-22 -43 -20 -53 q3 -23 29 -76q18 -18 45 -6q63 26 114 74t99 149q11 36 32 63q14 19 17 33q5 18 10.5 22t19.5 -7q2 -2 6 -5q4 -2 5 -4q2 -4 2 -9q-1 -3 -1 -6q-2 -5 -5 -13q-33 -61 -33 -78q-32 -87 -113.5 -176t-146.5 -111q-52 -7 -54 -8q-8 0 -10 -2q-9 0 -26 -3q-16 -4 -26 -4h-1 q-9 0 -25 5q-4 1 -27 6t-39.5 12t-33.5 19q-82 63 -96 172zM233 594q0 -8 7 -44q8 -40 8 -46q0 -8 4 -8t13 9q11 12 16 25q4 9 11.5 28t11.5 30.5t10 29t9 31.5t6 30q3 14 3 27v4q0 16 -4 31q-2 14 -14 15h-3q-11 0 -19 -6q-10 -8 -7 -13q-21 -34 -25 -47q-22 -46 -22 -80 q0 -3 -2.5 -7.5t-2.5 -8.5z" />
<glyph unicode="F" horiz-adv-x="573" d="M4 725q4 29 14 37q0 12 6 32t7 25q2 12 16 72t16 92q-2 8 3 23q18 50 26 127q1 5 2 16t2 16q10 47 47 72q77 58 144 158q12 18 30 24q36 10 82 27q6 2 11 2q16 0 32 -14q2 -3 10.5 -14t11.5 -16t6.5 -14.5t4.5 -19.5q0 -9 6 -24q9 -22 9 -60q0 -22 -3 -49 q-5 -88 -10 -115q-9 -49 -35 -127q-6 -17 -20.5 -68.5t-24.5 -78.5q-30 -87 -61 -154l-55 -121q-2 -8 -2 -16q-3 0 -3 -6q-2 -28 18 -47t48.5 -25.5t58.5 -10t48 0.5q82 4 180 164q3 5 10 7.5t20 -5.5q14 -12 14 -26q0 -6 -3 -13q-115 -163 -183 -166q-3 -4 -6 -5t-10 -2 t-10 -1q-15 -1 -32 -1q-51 0 -118 11q-29 5 -30 0q-1 -3 4 -10q8 -13 17.5 -37.5t14.5 -34.5q20 -37 33 -86q20 -96 45 -227q5 -19 -4 -41q-14 -31 -14 -80q0 -11 -6 -20v-2q-5 -3 -9 -21q-17 -23 -20 -25v-4l-16 -8q-10 -4 -26 -4q-23 0 -58 8q-7 0 -20 3.5t-17 4.5 q-2 2 -6 4.5t-6 4.5h-3l-30 30q-43 37 -56 80q-8 19 -22 65t-25 70l-2 13q-10 79 -14 96q-6 23 -13 64t-12 59q-8 28 -6 43q1 27 1 37t-2 37.5t-3 37.5q-3 105 -3 175q0 35 1 61zM219 202q0 -4 2.5 -12.5t3.5 -11.5t4.5 -10.5t3.5 -11.5l31 -207q4 -26 8 -35q6 -16 20 -16 q5 0 11 2q21 30 27 67l8 25q11 20 8 47q-1 18 -10 76q-19 79 -23 100q-3 12 -34 98q-4 6 -9.5 12t-13.5 13.5t-10 9.5q-8 7 -13.5 5t-7.5 -11q-1 -3 -1 -8t-1 -8q-3 -46 -3 -73q0 -16 1 -24v-14q-2 -9 -2 -13zM250 860q3 -41 3 -64q0 -14 -1 -20q-2 -17 2.5 -53t1.5 -55 q5 1 8.5 3.5t5 4.5t4 5.5t2.5 4.5q5 6 9 15t6.5 16t6 18t5.5 17q2 9 10.5 30t10.5 35q4 27 20 90q26 77 31 129l8 51q4 29 10 43q9 41 9 75q0 20 -3 38q-3 29 -27 29h-5q-20 0 -52 -12q-34 -14 -34 -56q-3 -57 -17 -102q-15 -78 -15 -129q0 -15 1 -27v-37v-49z" />
<glyph unicode="G" horiz-adv-x="694" d="M1 428q0 28 3 51q2 12 8.5 49.5t12 63t12.5 49.5l2 2q16 26 48 82.5t52 87.5q11 20 40 56t40 53q15 12 30 12q7 0 13 -2t16.5 -4t17 -3.5t16 -5t18.5 -8.5q12 -12 37 -12q35 -37 38 -80v-8q0 -39 -28 -78q-11 -13 -32.5 -34t-36 -39t-23.5 -37q-97 -190 -97 -342 q0 -1 3.5 -18t3.5 -21q0 -23 12 -23q11 -15 29 -15t43 15q30 32 55 98q8 24 8 29q43 71 68 160q6 17 6 34.5t-6 34.5t11 38.5t36 21.5q15 -3 21 -10.5t11 -26.5q0 -4 2.5 -18t2.5 -25q0 -5 3.5 -64.5t8.5 -91.5q1 -3 -0.5 -17t4.5 -22q4 0 7 3.5t6 8.5t5 7q23 39 103 170 q13 18 78 87.5t79 90.5q9 9 21 -6q9 -10 9 -23q0 -15 -15 -34q-42 -50 -74 -85t-47.5 -50.5t-22.5 -24.5q-5 -10 -17.5 -28t-18.5 -27q-3 -12 -27 -41q-19 -27 -41.5 -83t-34.5 -77q-10 -10 -10 -55q0 -12 1.5 -41.5t-1.5 -38.5q-4 -71 -16 -217q-5 -32 -27 -82 q-10 -20 -10 -39q-7 -68 -47 -156q-40 -82 -56 -104q-6 -5 -25 -21t-30 -26q-6 -3 -13 -3q-9 0 -18 7q-92 46 -102 163q0 15 6 17q7 8 12.5 17.5t9 15.5t8 20t5.5 17t6.5 21t5.5 19q59 156 131 289q4 9 15.5 32t19 40t12.5 35q4 9 5 18.5t0 22.5t-1 16q0 21 3.5 64.5 t3.5 66.5v10q-19 0 -19 -10q1 -5 0.5 -10.5t-0.5 -9.5t-1.5 -9.5t-2 -8t-3.5 -8.5l-4 -8t-5 -9t-4.5 -8t-5 -8.5t-5.5 -8.5q-10 -25 -14 -33q-11 -14 -24 -34.5t-19 -28.5q-28 -45 -84 -45q-10 0 -22 2q-120 18 -170 129l-17 39q-1 10 -3.5 45t-3 51.5t-0.5 44.5zM251 -377 q0 -1 0.5 -2t0.5 -2q0 -10 6 -10q4 0 10 4q16 27 17 29q28 50 45 96q4 20 22.5 93t24.5 116q0 2 0.5 4.5t0.5 4.5t-1 4t-4 3q-3 0 -4.5 -1t-3.5 -2.5t-3 -2.5q-9 -9 -22 -36t-25 -38q-20 -29 -30 -76q-10 -48 -17 -63q-7 -16 -10 -33.5t-4 -44t-2 -37.5q-2 -1 -2 -2 q0 -2 1 -4z" />
<glyph unicode="H" horiz-adv-x="827" d="M12 569v33q-1 15 -1 30q0 46 7 91q0 46 7 111v12q4 18 11 57.5t11 59.5q1 5 5.5 23t9 33.5t4.5 16.5q6 26 23 73t22 67q6 11 12 31.5t10 29.5q16 29 37.5 46.5t47.5 30.5t38 23l27 19q44 11 62 11q4 0 7 -1q21 -2 38 -17.5t18 -35.5q5 -44 5 -76q0 -24 -3 -41 q-9 -45 -9 -61q0 -31 -16 -68l-23 -96q-1 -4 -8 -24.5t-10 -28t-10 -22t-15 -26.5q-5 -7 -13 -24.5t-13 -24.5q-10 -11 -21 -33t-16 -30q-6 -3 -6 -8q0 -1 -4.5 -23.5t-4 -24.5t0.5 -24q7 -17 4 -39q0 -2 -1 -5.5t-0.5 -5.5t3.5 -3q6 -2 14 10q8 23 51 78q26 23 66 47 q13 8 33 12q13 3 35.5 6t29.5 4h8q61 0 101 -43q26 -21 37 -80q9 -45 9 -105q0 -45 -5 -99q0 -3 -1.5 -10.5t-1.5 -14t3 -10.5q1 -5 2.5 -15.5t2 -13.5t2 -10.5t3.5 -11.5t5 -9.5t7 -10.5t10 -11q12 -21 29 -21q13 0 29 11q3 5 10.5 10.5t9.5 7.5q23 15 25 37q0 4 12 16 q27 27 35 45q9 28 18 39q25 37 29 66q0 5 10 35l12 37q10 31 11 34q2 10 13 11q12 2 22 -6q7 -6 7 -14q0 -2 -1 -5q-1 -4 -8 -19t-7 -24l-4 -25q-10 -62 -55 -131q-22 -41 -43 -86q-25 -49 -72 -96q-8 -8 -18 -8q-26 -10 -54 -10t-59 10q-24 8 -37 8q-38 12 -63 37l-35 41 q-55 58 -55 145q0 45 10 91t10 53q1 13 1 26q0 21 -3 41q0 16 -8 19q-5 2 -8.5 0t-6.5 -6t-5 -5q-17 -12 -27 -38q-2 -3 -16 -27.5t-21 -42.5q-5 -8 -8.5 -19t-6.5 -25t-5 -20q-13 -30 -7 -43l-4 -14q-3 -13 -8 -24q-3 -6 -5 -10.5t-3 -5.5t-1.5 -4t0 -5.5t1.5 -11.5v-13 q0 -36 -14 -65q-4 -9 -4 -24q0 -18 6 -46q5 -10 6.5 -31t5.5 -30q8 -16 -6 -49l-8 -7q-6 -2 -18.5 -7.5t-19 -7t-20.5 -3.5q-4 -1 -7 -1q-9 0 -15 5q-13 8 -39.5 16.5t-32.5 10.5q-10 2 -27 10t-24 10q-15 8 -19 31l-14 59q-3 12 -8 19t-8 16q-1 8 -5 29.5t-5 32.5 q-1 9 -1.5 13t-1 4.5t-0.5 3.5v11q-2 18 -2 54l-2 73q-4 16 -4 43zM260 870q-1 -2 -1 -4q0 -4 5 -6q4 0 8 8q2 1 7 15q5 12 15 42.5t17 45.5q6 12 10.5 24.5t8 26.5t6.5 22q12 26 16 95q3 19 3 59t3 59q1 4 1 7q0 10 -9 16q-10 14 -27 14q-6 0 -12 -2q-16 -3 -20 -30 q-11 -25 -19 -72q-1 -5 -5 -24.5t-4 -24t1 -23.5q3 -12 3.5 -25.5t-0.5 -32.5t-1 -26q1 -10 1 -23q0 -25 -3 -59q-3 -15 -2.5 -41t-1.5 -41z" />
<glyph unicode="I" horiz-adv-x="458" d="M0 518q10 35 10 47q0 47 6 60q3 14 7.5 42.5t7.5 43.5v6.5v6v5t0.5 5t1 4.5t1.5 4.5t2.5 3.5t3.5 3.5t5 2.5q39 17 55 10q8 -3 51.5 -16t65.5 -21q27 -8 35 -16q10 -2 14 -19q0 -14 -4 -20q0 -26 -6 -60q-4 -117 -12 -172q0 -3 -6 -108q0 -43 10 -74q6 -11 13.5 -12 t19.5 4q47 39 84 94q17 26 72.5 138.5t66.5 142.5q6 13 20.5 5.5t14.5 -12.5q1 -3 -0.5 -8.5t-1.5 -7.5q-8 -26 -60.5 -136t-66.5 -130q-7 -12 -16 -23.5t-21 -24.5t-19 -22q-4 -4 -13 -20.5t-13 -20.5q-12 -15 -34.5 -27t-45.5 -12q-17 -3 -33 -3q-45 0 -84 24 q-10 8 -41 26q-26 21 -70 80q-10 15 -10 45q0 6 -1.5 28.5t-0.5 33.5q-3 19 -8 100zM20 1030q6 53 35 103q17 33 58 65q12 6 18 5q1 1 3 1q6 -2 22 -10q16 -7 43 -14.5t45.5 -13.5t21.5 -11q4 -17 13 -20q2 -4 2 -9q-1 -6 -3 -15q-4 -16 -4 -19q-3 -77 -20 -136 q-6 -37 -29 -59.5t-53 -24.5h-16q-8 -1 -15 -1q-32 -1 -51 15q-23 18 -43 66q-5 12 -10.5 31t-9.5 27q-4 17 -7 20z" />
<glyph unicode="J" horiz-adv-x="450" d="M-106 -322q5 62 24.5 146t36.5 104l16 43q9 29 52 127q4 8 6 17t3.5 20t2.5 17q-7 60 -14 87.5t-11 94.5q-2 21 -2.5 69.5t-3.5 75.5q0 21 4 33q1 7 6 69.5t11 96.5q0 1 2 4t2 4q21 42 21 74q0 6 -1 12q0 30 24.5 48.5t53.5 6.5q15 -6 24 -13t13 -12t12 -19t14 -23 q8 -15 21 -15q1 -2 13.5 -15.5t18 -28t1.5 -31.5q-4 -8 -4 -23l20 -98q-3 -23 6 -35q4 -16 4 -25q0 -22 -2 -40q-3 -27 6 -29q8 -1 23.5 18.5t15.5 24.5q4 11 13 16q8 4 18 17q39 10 115 106q5 5 12.5 16t11.5 15q12 17 27 4q8 -5 8 -14q0 -7 -4 -15q-4 -10 -22 -29.5 t-38.5 -39t-23.5 -23.5l-74 -84q-30 -60 -30 -65q-5 -2 -13 -17q-9 -9 -16 -26q-20 -28 -29 -58q-6 -13 -12 -54t-4 -58v-8q0 -57 -27 -144q-6 -36 -8 -106t-8 -107q-15 -101 -62 -184q-4 -6 -9.5 -16.5t-10 -18t-11 -18t-13 -17.5t-15 -15t-19 -12.5t-22.5 -7.5 q-10 -3 -23 -3q-2 0 -4 1q-16 0 -34 4q-22 4 -33 15q-9 -2 -29 18q-10 12 -22 59q-9 36 -9 68q0 8 1 16zM-68 -344q5 -30 37 -41q6 -2 12 -2q16 0 35 16q1 0 2.5 2t3 4.5t3.5 4.5q47 64 47 131v15q0 41 -9 103q-4 46 -4 74q-5 41 -12 68q-7 -13 -19.5 -35.5t-21 -39 t-12.5 -30.5q-41 -112 -55 -168q-9 -47 -9 -78q0 -14 2 -24zM-23 1139q-2 6 -2 12q0 23 27 33q29 4 39 16q34 21 69 21q10 0 21 -2q8 -4 26 -10.5t31 -14t23 -20.5q9 -5 15 -16q4 -8 4 -16q0 -3 -1 -7q-3 -12 -3.5 -21.5t0.5 -21.5t1 -19q0 -28 -5.5 -45t-6.5 -41 q-4 -7 -5 -17.5t-1 -11.5q-11 -40 -16 -45q-5 -3 -18 -3t-34 3q-86 15 -114 105q-6 20 -16.5 25t-10.5 26q0 15 -3.5 25t-9.5 22t-10 23z" />
<glyph unicode="K" horiz-adv-x="825" d="M7 745q1 31 7 78q18 124 62 281q38 114 106 270q6 24 6 37q0 27 25 27q46 2 145 22q6 1 12 1q30 0 54 -34q34 -49 35 -97q0 -9 -2 -19q-12 -87 -27 -119q-3 -11 -8.5 -31.5t-10.5 -36t-10 -28.5q-10 -32 -43 -88l-53 -90q-16 -27 -16 -70q1 -6 1.5 -10t1 -4.5t0.5 -2 t-0.5 -2t-1 -4.5t-1.5 -10q0 -41 6 -55q45 67 113 86q38 13 71 13q70 0 111 -60q7 -5 14 -25q6 -14 17 -34.5t16.5 -32.5t9 -30.5t0.5 -39.5q-7 -36 -20 -51q-4 -12 -40 -63t-52 -72q-5 -9 -18.5 -16.5t-20.5 -14t-4 -17.5q3 -8 4 -19t4 -19q5 -11 30 -36t39 -36 q16 -18 39 -18q14 0 31 6q65 35 87 60q6 6 11 13q85 117 131 213q12 18 19 37q6 14 10 19t7.5 3.5t10.5 -8.5q12 -12 12 -26q0 -9 -5 -19q-96 -192 -123 -219q-7 -11 -11 -12q-11 -10 -51 -53.5t-65 -59.5q-39 -14 -66 -16q-34 3 -59 23q-114 64 -162 145q-9 16 -37 51 q-13 10 -20 27q-19 26 -20 35.5t9 37.5q11 32 68 101q4 4 15 17.5t13.5 17t10.5 14t10.5 15.5l7.5 15t8.5 19.5t6.5 22.5q15 35 -8 45l-5 4q-6 3 -13 4t-14 -2t-12 -5.5t-12 -8.5l-10.5 -9t-10 -10t-7.5 -8q-17 -17 -41 -53q-8 -14 -17 -42.5t-14 -39.5q-8 -24 -8 -31 q-2 -20 -8.5 -58.5t-8.5 -56.5q0 -52 -12 -77q10 -61 16 -175v-12q2 -12 2 -45q0 -12 -4 -17t-18 -5q-8 -5 -19 -5t-26 5q-15 1 -62 22q-10 0 -20 10q-3 6 -18.5 33.5t-20.5 44.5q-6 23 -21.5 48.5t-23.5 47.5q-4 10 -4 21q-3 21 -10.5 65.5t-10 62t-4.5 50.5q-2 24 -2 48 v20q0 21 -2 55q-1 23 -1 44v21zM285 1004q0 -21 7 -21q4 0 10 7q13 15 15 30q4 10 33.5 74.5t36.5 103.5q14 54 19 96q1 7 1 16q-1 4 -1 8q0 13 -1.5 26.5t-6 24.5t-11.5 17.5t-19 6.5t-28 -9q-8 -6 -8 -16q-8 -12 -8 -14q-22 -55 -23 -60q-8 -49 -16 -135q-1 -8 -1 -19 q0 -27 5 -73q0 -5 -2 -30t-2 -33z" />
<glyph unicode="L" horiz-adv-x="573" d="M8 653q0 21 4 31q-4 18 -2.5 63.5t6.5 59.5q-2 10 -2.5 13.5t0 10t2 12t4 23.5t5.5 41l2 4q-1 16 8 58q0 1 -1.5 5t-2 7.5t1.5 9.5q4 4 4 15l8 57q4 22 33 125q7 19 16.5 52.5t14.5 47.5q15 21 12 45q-5 19 18 31q9 1 35 7t43 7q18 0 29 15q30 16 92 20q26 -3 44 -19.5 t21 -39.5q15 -30 21 -51q5 -18 5.5 -38t-2.5 -49t-3 -38q0 -5 1 -11q0 -34 -11 -96q-8 -87 -37 -192q-6 -61 -27 -111q-17 -75 -41 -133q-8 -16 -19 -38.5t-14.5 -31t-6 -20t-1.5 -21.5q5 -19 5 -52q0 -16 -1 -36q-2 -32 -1 -34.5t6.5 -14.5t9.5 -35q0 -13 16 -41 q12 -27 25 -35q18 -20 40 -20q32 0 72 45q7 10 35.5 40.5t34.5 45.5q1 2 25 59.5t28 71.5q22 43 39 80q1 2 6 11t6 12q9 28 25 12q14 -14 14 -22t-6 -19q-34 -103 -78 -197q-7 -13 -17 -33t-13 -25.5t-9.5 -16t-12.5 -17t-17 -16.5q-31 -51 -101 -97q-44 -19 -102 -19h-16 q-68 3 -115 34q-6 4 -17 11.5t-13.5 9.5t-10 7t-9.5 8t-7 7.5t-9 10t-8.5 12t-11.5 16.5q-3 3 -8.5 18t-14.5 40t-16 42q-7 13 -18 88t-13 121zM264 788q-1 -5 -1 -9q0 -5 1 -9q1 -49 6 -49q27 27 31 55q6 19 15 41.5t14 40.5t8 43q4 97 16 141q1 3 7.5 31.5t8.5 34.5t6 30 q4 22 4 32l-1 33q0 21 -4.5 33.5t-11.5 29t-17 30.5q-6 8 -15 8q-5 0 -12 -3q-17 -8 -14 -23h-4q-2 -11 -9 -47.5t-9.5 -51t-7.5 -45.5t-6.5 -50.5t-3 -45.5t-1.5 -49l6 -135q0 -10 -2 -32t-4 -34z" />
<glyph unicode="M" horiz-adv-x="956" d="M-18 406q-1 10 -1 20q-1 13 1 26q2 24 8 55t8 46q5 24 18 68q19 41 29 102q3 13 7.5 24t14.5 29t13 23q1 3 6.5 7t7.5 7q12 4 26 4.5t30 -4.5q44 -23 69 -33q36 -21 36 -61q0 -6 -1 -12q-2 -6 -2 -21q4 -11 4 -39.5t2 -40.5q11 18 37 43.5t35 38.5q40 46 88 46 q12 0 24 -3q65 -17 93 -39q40 -27 40 -69q0 -14 -4 -29q-3 -13 -5.5 -37.5t-4.5 -32.5q6 -3 8.5 -2t5.5 4l3 2q6 13 43 39q36 22 76 22q9 0 18 -1q49 0 59 -51q2 -13 2.5 -38.5t1.5 -33.5q7 -45 23 -76q4 -17 24 -17t37 11q60 42 86 104q21 47 62 121q8 16 18 19q7 7 19 4 q9 -6 9 -15q0 -7 -5 -16q-12 -24 -31 -67.5t-35 -71.5q-37 -67 -39 -70q-8 -8 -18 -20.5t-15.5 -18.5t-16 -14t-24.5 -14q-27 -10 -51 -10q-34 0 -59 22q-40 38 -60 88q-10 25 -20 55q-3 24 -31 8l-12 -20q-7 -23 -18.5 -48.5t-20 -41t-25.5 -45t-24 -41.5q-13 -33 -57 -45 q-9 -2 -17.5 0t-20 7.5t-14.5 6.5q-76 34 -104 121q-14 51 -14 92q0 31 -2 49q-13 -9 -19 -26q-4 -13 -16 -37.5t-15 -32.5q-10 -18 -28 -76q-1 -5 -4.5 -18.5t-7 -23t-9.5 -17.5q0 -1 -4.5 -8.5t-4 -8t0.5 -8.5q6 -25 -18 -49q-2 -6 -2 -24q0 -13 -4.5 -19t-18.5 -6 q-24 0 -47 10q-16 8 -84 53q-24 17 -39 64q-18 65 -20 111z" />
<glyph unicode="N" horiz-adv-x="753" d="M4 551v12q2 6 3.5 24t4.5 27q4 12 8.5 35t4.5 25q11 37 20 57q15 20 16 21q3 3 10.5 8t10.5 8q18 7 35 7q6 0 12 -1q70 -11 102 -39q25 -16 31 -43q4 -36 4 -57q2 -23 2 -68q69 75 72 78q24 27 76 49l8 2q16 1 23.5 2t21.5 -3.5t20 -7t19.5 -8.5t19.5 -9q22 -11 37 -58 q1 -3 2 -4q6 -12 -2 -24q-9 -21 -12.5 -59.5t-5.5 -49.5q-1 -6 -2 -19t-2 -20q0 -13 8.5 -26.5t19.5 -16.5q21 -5 47 13q7 5 28.5 15.5t29.5 18.5q16 16 23.5 25.5t10.5 15t12.5 21t25.5 37.5q2 3 24.5 48t30.5 50q3 3 10 4t14 -4.5t7 -18.5q0 -5 -21 -47q-33 -70 -63 -110 q-33 -43 -60.5 -65t-71.5 -44q-17 -9 -45 -9q-9 0 -20 1q-69 13 -108.5 60t-47.5 118q-1 10 -1 21t0.5 23.5t0.5 19.5q-9 4 -18 -6q-36 -48 -64 -105q-16 -29 -41 -84.5t-36 -77.5q0 -25 -19 -59q-14 -26 -37 -26q-8 0 -16 3q-72 18 -123 72q-18 20 -29 70q-13 50 -13 112 q0 32 3 66z" />
<glyph unicode="O" d="M-14 397q-20 59 -20 126t20 141q10 31 20 73q8 28 6 39q0 10 11 25q6 8 15 8q4 0 9 -2q4 -2 18.5 -6.5t22.5 -9.5q13 -7 39.5 -11t38.5 -10q12 -4 16 4q15 12 45 21q25 8 53 8q10 0 18 -1q38 -3 67 -28q2 -2 2 -4q3 -3 25 -19t28 -30q3 -10 10 -33t10 -37q3 -16 4.5 -22 t7.5 -12.5t17 -6.5q61 0 92 8q33 10 68 35q24 17 24 -6q0 -27 -18 -39q-20 -18 -60 -28q-7 -2 -24.5 -9t-37 -11.5t-42.5 -4.5q-19 0 -22 -3t-5 -22q-10 -66 -10 -67q-4 -10 -4 -31v-10q0 -57 -51 -125q-7 -13 -25.5 -35t-25.5 -35q-16 -28 -49 -28q-120 3 -197 57 q-65 43 -96 141zM199 322q2 -5 4 -14t4 -13q9 -23 29 -27q3 -1 7 -1l33 16q27 19 39 36q59 86 82 203q5 28 0.5 33.5t-37.5 13.5l-8 2q-30 4 -82 33q-22 13 -22 -8q0 -16 -8 -44.5t-9 -39.5q-15 -82 -20 -96q-14 -31 -14 -67q0 -13 2 -27zM272 688q3 -19 21 -37.5t41 -25.5 q36 -11 49 -11q1 0 2 -1q11 -1 14 5q2 4 2 17v10q-2 26 -17 49t-42 33q-16 6 -31 6q-12 0 -24 -4q-15 -9 -15 -33v-8z" />
<glyph unicode="P" horiz-adv-x="806" d="M4 756q-4 5 -4 10q0 6 6 12q47 41 104 41q28 0 58 -10q50 -20 57 -55q2 -10 6.5 -39.5t5.5 -39t4.5 -38t3 -37.5t-0.5 -37q53 116 108 162q55 47 150 68q30 10 55 -15q8 -8 28 -19.5t23 -13.5q43 -32 56 -94q6 -33 6 -64q0 -89 -47 -163q-5 -6 -9 -16q-4 -2 -4 -11 q-31 -38 -18 -37q12 2 39 23q87 59 139 121q14 16 28.5 38t28 43t17.5 27q13 13 23 14t15 -4t11 -16q-2 -5 0 -8q1 -2 1 -4t-1 -4q-28 -37 -29 -39l-2 -4q-3 -4 -8.5 -11t-13 -17.5t-18 -23t-22 -25.5t-25 -28t-28 -28.5t-31 -27.5t-32.5 -26q-6 -6 -8 -10q-5 -3 -19 -8 q-6 -3 -18 -8t-18 -8q-12 -18 -37 -21l-17 -6l-7 -3q-6 -4 -16 -7.5t-25.5 -7.5t-41.5 -7.5t-57 -5.5q-2 2 -8 2q-8 3 -44.5 8.5t-52.5 20.5q-25 22 -39 -20q-2 -12 -6.5 -33.5t-7.5 -39t-4 -32.5q-1 -12 -6 -39t-4.5 -47t10.5 -37q3 -5 3 -12.5t-1.5 -16.5t-1.5 -14 q-3 -20 -2.5 -46.5t12.5 -45.5v-10q1 -19 0 -33t-1 -25t3 -16q2 -2 2 -8q-2 -8 -2.5 -48.5t0.5 -58.5q1 -2 -0.5 -6.5t-1.5 -5.5l2 -9q2 -9 2.5 -19t-2.5 -27q-9 -21 -4 -29v-12q-3 -33 -35 -43q-1 0 -3 -1t-3 -1q-10 0 -26 -4q-58 7 -95 41v4l-10 16h-2q0 5 -7.5 12.5 t-8.5 10.5q-9 19 -23 90h-2q-12 15 -12 37q1 39 -11 63q-10 20 -10 52v12q1 19 1 39q0 47 -5 98q-3 32 -3.5 92t-2.5 84q-1 15 -1 35q1 34 3 82q3 60 2 93v17q-2 41 -2 79q0 70 8 126q1 8 0.5 15.5t1 16.5t5.5 15h-5q0 16 -12 62q-4 0 -4 4zM276 473q-2 -6 -2 -12 q0 -17 15 -25q17 -11 43 -10h8q42 0 63 14q117 78 134 209q4 32 4 47q-8 51 -43 51q-17 0 -39 -12q-7 -4 -19.5 -11.5t-16 -9.5t-12 -7.5t-12 -9.5t-11 -12t-14 -17t-16.5 -23q-43 -60 -49 -84q-3 -14 -8 -28t-13 -32t-12 -28z" />
<glyph unicode="Q" horiz-adv-x="684" d="M2 440q-1 24 -1 46q0 96 24 169q28 73 34 84q35 64 72 99q17 12 43 22q2 0 5 1t5 1q9 0 13 -2q4 -1 7 -3t4 -5t2 -5.5t0 -6t-1.5 -6t-2.5 -7t-3 -6.5t-3 -6.5t-3 -5.5q-12 -12 -21 -27q-90 -153 -98 -293q0 -23 4 -73q3 -26 20 -37q8 -9 18.5 -10t18.5 8q38 42 61 77 t31 78q18 76 29 205q0 43 -10 56q-7 11 4 34l10 11q0 2 2 2q7 9 15 16t19 13.5t17.5 10t21 10.5t19.5 9q28 13 62 16q6 1 12 1q18 0 31 -10q17 -13 22 -40v-20q-9 -38 -9 -81.5t4 -94.5q3 -42 3 -69v-13q-5 -45 -14 -170q-4 -46 -4 -66q0 -21 8 -24q10 0 19 14q9 20 27 48 t24 40q12 21 25.5 39t22.5 28.5t29 31t31 32.5q31 37 111 82q15 5 20 0q5 -7 5 -13q0 -4 -3 -7q-89 -77 -118 -113q-85 -96 -172 -295q-25 -60 -37 -195q-4 -58 -8 -82q-1 -5 0 -16q1 -19 2 -41q4 -143 16 -198q4 -17 -4 -50q-2 -1 -26 -4.5t-36 -7.5q-16 -3 -31 -3 q-67 0 -110 56q-48 56 -59 158q-5 52 -6.5 84.5t-0.5 55.5t5.5 103.5t7.5 164.5q0 11 3 33.5t3 33.5q5 19 -6 23q-30 -19 -60 -19q-14 0 -27 4q-45 12 -80 49.5t-38 75.5z" />
<glyph unicode="R" d="M-57 772q-1 9 -1 18q0 58 29 123q11 29 37 29q8 0 17 2.5t19.5 6.5t14.5 5q9 4 15 4q12 0 20 -12q4 -7 12 -10q35 -22 41 -68q9 -40 8 -71q0 -20 -3 -35q-2 -12 -5.5 -38t-5.5 -38q30 5 64 35q31 30 88 30q17 0 37 -3q51 -8 76 -68q12 -27 12 -55q0 -20 -6 -41 q-14 -46 -23 -58q-11 -22 -14 -45q-10 -30 -25 -57q-30 -40 -65 -135v-12q-3 -7 0 -13q-3 -14 16 -22q20 -5 36.5 -6.5t34.5 3.5t27.5 8t29 16.5t25.5 18t31 23.5q31 25 58 70q16 23 23 34t30 57.5t61 129.5l3 5q3 5 4.5 7t6.5 2t11 -4q2 -1 6 -3.5t5.5 -3.5t3.5 -3t2 -4 v-5.5t-2 -8t-5 -11.5q-71 -151 -100 -200.5t-84 -106.5q-8 -8 -24.5 -21t-20.5 -16q-60 -52 -141 -52q-44 0 -93 15q-64 19 -98 99q-27 68 -27 130q0 49 17 95q11 40 12 41q10 19 -10 25q-12 4 -19 4q-32 4 -79 45q-51 43 -74 110q-8 24 -8 35z" />
<glyph unicode="S" horiz-adv-x="442" d="M-40 736q2 20 6 55.5t3 56.5q0 5 13 18q21 19 37 27t49 18q20 6 42 6q42 0 89 -24q8 -4 22.5 -10t20 -8.5t11.5 -8t7 -12.5q1 -16 2 -24.5t-4.5 -28.5t-9 -30.5t-11 -31t-10.5 -30.5q-19 -60 -19 -103q0 -26 7 -45q2 -6 12 -31q4 -4 11 -18q0 -9 9 -16t21 0 q11 6 35.5 28.5t61.5 48.5q49 34 135 109q5 4 9.5 -1.5t6.5 -14.5q1 -4 1 -8q0 -13 -11 -21q-14 -11 -57.5 -51t-69.5 -58q-9 -6 -16.5 -11.5t-12.5 -10t-11.5 -10.5t-10.5 -10l-12.5 -12.5l-14.5 -14.5q-20 -20 -25 -70q2 -1 2 -6t-1 -11t-1 -7q13 -46 19 -119q1 -7 1 -15 q0 -29 -15 -79q-1 -5 -6.5 -17t-6.5 -14q-4 -15 -14.5 -28.5t-19.5 -20t-25 -17.5q-4 -4 -11 -4.5t-16 4.5q-7 5 -27.5 14t-33.5 19q-10 7 -15 21q0 19 5 26q0 23 5 51t8 41.5t15 52t13 42.5q2 8 9 22l9 18q16 28 -4 48q-4 2 -15 5t-18.5 6.5t-13.5 8.5l-41 37 q-20 12 -25 12q-56 66 -82 139q0 42 -6 62q-6 30 -6 49q1 3 1 7zM154 170v-7q0 -30 22 -50q9 -6 16 -7q11 0 17 15l8 16q9 45 9 88q0 47 -11 92q-3 3 -5 3q-1 0 -1 1q-3 1 -3 -1q-2 -2 -3 -4l-2 -3q-44 -76 -47 -143z" />
<glyph unicode="T" horiz-adv-x="630" d="M-70 768l2 2q11 15 16 18t25 3l35 2q4 2 10 0.5t15 -0.5q11 0 14 10q6 42 6 43q6 47 15 88l12 57q3 12 29 115q0 1 3.5 17t2.5 24v4q3 35 20 45q9 5 25 6q13 0 30 -4q3 -2 20 -9.5t24 -10.5t19.5 -10t22 -14.5t17.5 -16.5l14 -13q8 -5 14.5 -13t14 -19.5t10.5 -16.5 q11 -11 -2 -24q-20 -24 -20 -45q-9 -7 -13.5 -28t-9.5 -28q-1 -1 -2 -5t-2 -5q0 -63 -10 -102v-11q-3 -16 12 -16q14 1 27 2.5t21 4t14 4.5t9 4l3 1q13 -1 38 6t42 3q9 -1 25.5 -6.5t21.5 -6.5q5 -2 7.5 -10.5t-1.5 -13.5q-3 -4 -9.5 -12.5t-11 -13t-12 -10t-16.5 -7.5 q-56 -15 -84 -19l-78 -12q-8 0 -12 -2q-9 -3 -9 -14q1 -31 2 -32.5t-3.5 -32t-4.5 -32.5v-14q0 -19 1 -20t-4 -9.5t-9 -17.5q-2 -4 -2 -14q2 -23 -2 -33q-4 -8 -6 -15q-6 -12 0 -26q0 -2 0.5 -65t5.5 -79v-6q-1 -10 1 -20.5t4 -15.5t10 -19t9 -16q8 -14 33 -35q22 -19 47 -6 l41 24q24 16 72 68q46 46 78 108l10 19q7 12 25.5 42.5t27.5 47.5q28 55 31 65q6 27 16.5 39t34.5 25q9 5 22 -16.5t11 -26.5q-6 0 -6 -2q-50 -97 -55 -107q-5 -6 -12 -17.5t-9 -14.5q-4 -4 -40 -57t-48 -68q-8 -10 -16 -27q-1 -2 -10 -17t-17 -28t-19 -27t-20 -20l-8 -8 q-41 -55 -115 -68q-13 -3 -27 -3q-35 0 -79 18q-9 4 -64 43q-4 3 -12 8t-15 9.5t-12 8.5l-17 17q-17 17 -22 28q-5 12 -15 34t-11 24q-11 26 -27.5 84t-19.5 110q0 10 -1.5 11.5t-2.5 11.5q-1 20 -1.5 36t1 32.5t2.5 25.5t4 31t4 34q2 21 -1.5 25t-23.5 4q6 3 -4 5 q-6 1 -23 2q-21 1 -26 3q-1 1 -4.5 2t-5.5 2q-7 7 -13 9q-7 4 -7 9q0 4 3 9z" />
<glyph unicode="U" horiz-adv-x="665" d="M-20 631q0 32 24 143q4 20 7 27t9.5 11.5t10.5 8.5q3 6 17 6q10 -1 24 -3q36 -6 41 -5q9 3 18 -4.5t18.5 -19.5t12.5 -15q6 -4 22 -15.5t23.5 -18t18 -18t14.5 -24.5t2 -28q-25 -130 -25 -198v-17q12 4 23 22t22 46t12 30q14 16 34.5 99t43.5 98q12 7 28 7q15 -1 34 -7 q39 -14 51 -39q5 -24 1.5 -51.5t-11.5 -70t-9 -52.5q0 -2 1 -18t2.5 -29t4.5 -30t9 -30.5t14 -21.5q9 -15 32.5 -4t27.5 10q2 2 17.5 16t30.5 29t35 37.5t41.5 54t40.5 66.5l1 2q11 12 26 -2q1 -1 3.5 -4t2.5 -4l1 -6q0 -3 -2 -7q-2 -5 -5 -12q-28 -56 -87 -125.5t-85 -89.5 q-31 -28 -68 -33q-8 -1 -15 -1q-27 0 -48 15q-29 21 -46.5 76t-27.5 70q-3 0 -12 -30t-20.5 -63.5t-20.5 -39.5q-1 -1 -7.5 -16t-19 -31t-30.5 -25q-3 1 -9.5 -6t-11.5 -8q-6 -1 -13 -1q-18 0 -46 7q-15 2 -45 19.5t-23 29.5q-64 81 -89 143t-25 150z" />
<glyph unicode="V" horiz-adv-x="624" d="M0 621q0 20 2 30q6 22 2 54q-6 21 10 40q37 41 76 41q8 0 16 -2q9 -1 38 -2t44 -6q23 -7 25 -22q0 -11 10 -21q17 -20 17 -57v-12q-10 -116 -11 -144q0 -69 21 -172q21 12 33 35q83 115 116 188q14 30 13 40t-23 32q-72 73 -72 181q0 17 2 34q3 28 23 51.5t43 28.5 q8 2 15 3q23 0 28 -28q3 -21 19.5 -56.5t19.5 -45.5q8 -16 8 -39q-8 -70 -8 -102q0 -29 20 -43q35 -30 80 -30q30 0 64 13q12 6 31 25q4 8 12 0q2 -2 7 -5.5t6.5 -5l5 -5t3.5 -5.5l1 -6q0 -3 -3 -6t-6.5 -7.5t-10 -10t-15.5 -11.5q-10 -7 -34 -13.5t-38 -6.5q-44 0 -84 16 q-4 2 -43 19q-17 3 -21 -10q-10 -33 -24.5 -67t-36 -80t-29.5 -64q-3 -9 -12.5 -29t-15 -36t-7.5 -32q-6 -31 -38 -37q-16 -2 -32 -2q-54 0 -93 27q-96 68 -125 180q-11 47 -29 183zM362 834q5 -15 5 -19l6 -27q4 -17 11.5 -32.5t19 -33.5t16.5 -28q3 -7 8 -7v1q6 0 8 8 l6 41q-6 49 -8 62q-3 28 -12 49q-6 14 -20 24q-11 8 -19 8q-2 0 -4 -1q-9 -1 -14 -15q-4 -10 -4 -21q0 -4 1 -9z" />
<glyph unicode="W" horiz-adv-x="956" d="M4 502q-4 31 -4 69.5t4 85.5q0 33 12 95q1 4 3 13t2 12.5t-1 13.5q1 1 8.5 7.5t12.5 8.5q4 -2 16 4q21 13 121 27q10 0 12 -2q13 -15 41.5 -15t34.5 -2q9 -1 12.5 -1.5t7 -2.5t5.5 -5t4 -9q12 -20 12.5 -49.5t-2.5 -51.5q0 -1 -3.5 -4.5t-4.5 -5.5q-14 -37 -14 -51 q0 -17 -2.5 -34t-8.5 -45t-8 -36q-3 -21 -4 -40q0 -43 16 -81q15 -58 19 -67q6 -16 11.5 -18t17.5 6q31 19 51.5 46.5t26.5 65.5q1 7 1 14q0 31 -20 62q-5 10 -4 12q1 9 5.5 19t12 21t9.5 16q4 9 30 14q36 4 53 4q19 1 26 -8.5t1 -26.5q-4 -16 -4 -20q1 -12 2 -36t2 -36 q2 -14 4.5 -44t6 -52.5t8.5 -42.5q5 -9 6 -10q12 -39 39 -9q11 14 22 35q35 65 68 168q22 70 24 74q10 28 -10 45q-28 35 -61 96q-21 41 -39 100q0 2 -1 7t-1 8q-3 15 -3 29q0 23 9 45q6 10 30 30q1 0 3.5 1t3.5 1q22 11 39 11l16 -7q45 -41 61 -75q40 -87 40 -164 q0 -22 -3 -43q-6 -38 -3 -47.5t24 -20.5q11 -7 37.5 -17.5t31.5 -10.5q14 -7 37 -7h11.5h12t11.5 1t12.5 2.5t11.5 5t13.5 8.5t12.5 12.5t14 17.5q14 23 34 -8q2 -3 2 -7q0 -11 -14 -28q-35 -39 -90 -47q-27 -4 -46 -4q-29 0 -44 8q-18 5 -39 15t-28.5 13t-14.5 -4t-10 -32 q-2 -19 -7.5 -41.5t-10 -39.5t-14 -44.5t-14 -40t-16 -43.5t-14.5 -39q-14 -48 -66 -71q-12 -9 -24 -6q-70 7 -111 45q-17 19 -23 19t-26 -17q-11 -10 -24 -19.5t-31 -21t-27 -17.5q-27 -15 -55 -15l-23 3l-30 6q-39 3 -85 29t-63 57q-47 83 -65 144q-16 49 -21 90zM650 884 q-1 -7 -1 -14q0 -10 2 -22q4 -14 8 -21q2 -10 9 -32q4 -17 12.5 -34.5t21.5 -38.5t19 -32q5 -6 8 -6q5 0 6 12v49l-12 70q-2 9 -21 57q-4 14 -18 24q-11 8 -18 8q-2 0 -4 -1q-9 -3 -12 -19z" />
<glyph unicode="X" horiz-adv-x="649" d="M-8 717q-3 14 -3 25q0 32 25 38l74 35q20 8 57 8h45q17 -1 22 -7t5 -25q13 -59 14 -62q3 -13 13 -39.5t12 -40.5q-2 -4 2.5 -18t11.5 -19t23 11t30 48t25 46q13 23 22 45t15 31q15 20 32.5 18.5t20.5 -16.5q1 -5 6.5 -17t6.5 -18t-2 -17q-7 -15 -24 -39.5t-26 -44.5 q-4 -10 -14.5 -23t-23.5 -26t-15 -16l-6 -8l-12 -21q-10 -18 -2 -55l4 -16l4 -11l20 -47l11 -18q36 -39 57 -113l12 -26q9 -14 19 -17t28 2q18 4 41 27q18 17 43 64t39 63l48 96t55 109q6 10 8 13t9 7t13 -2q15 -8 15 -22q0 -10 -7 -23q-11 -21 -52 -103.5t-75 -144 t-61 -94.5q-34 -46 -82 -49l-14 -8q-31 -18 -58 6l-12 12q-60 7 -127 74l-49 47l-10 -8q-8 -27 -21 -35q-3 -6 -9.5 -22t-12.5 -28t-12 -18q-2 -4 -9.5 -22.5t-9.5 -22.5q-3 -6 -9 -16.5t-8.5 -14t-7 -9.5t-8.5 -8.5t-10 -4.5q0 2 -6 3t-12.5 4t-8.5 7q-4 5 -4 15 q0 24 29 75q17 36 45 86q5 8 11.5 21.5t11.5 21.5q13 23 4 35q-38 53 -49 72l-9 16l-10 15q-5 4 -8.5 11t-7 18t-8.5 20l-39 71q-3 5 -8 12.5l-6 9t-3.5 7t-2.5 7t-2.5 9t-3 12t-3.5 17.5t-6 25z" />
<glyph unicode="Y" horiz-adv-x="747" d="M-41 797q8 4 14 10q22 25 74 29h6q7 0 15 -2q10 -2 22 -6t19 -5q28 -6 55 -24q45 -29 63 -76q43 -109 49 -209q3 -6 3 -14q3 -10 12 -2l14 14q19 28 43 70q3 9 12 18q-13 13 2 35q35 48 50 80q7 16 34 24l56 19q39 9 47 -29q2 -20 2.5 -24.5t-2 -24.5t-2.5 -25 q-22 -169 -22 -232q0 -10 1 -17q18 20 55.5 56t53.5 56q29 39 78 78q7 2 43 30.5t39 30.5q24 3 24 -18q-5 -18 -74 -78q-7 -7 -10 -16q-7 -6 -20.5 -19.5t-20.5 -19.5q-13 -9 -26 -20.5t-22.5 -20.5t-23 -24t-20 -22.5t-21 -26t-18.5 -23.5t-20.5 -27t-18.5 -25 q-20 -28 -30 -75q-6 -24 -4.5 -27t-0.5 -27q-1 -13 -6.5 -34.5t-7.5 -32.5q-16 -108 -49 -244q-24 -85 -64 -164q-27 -49 -53 -84q-17 -19 -37 -19q-18 0 -39 15q-16 10 -38 41q-3 5 -12 19t-13 21.5t-8.5 20.5t-5.5 25q0 36 10 84q1 6 12 45q2 14 7 29.5t9 24.5t13 28 t12 25q22 46 71 128.5t68 119.5q40 79 50 204q0 7 3 21.5t3 21.5q1 18 -5 15q-4 -2 -16 -17q-30 -37 -35 -57q0 -2 -2 -4q-32 -38 -80 -121q-14 -23 -57 -23q-18 1 -25 5t-15 11.5t-23 12.5q-33 12 -47 51q-57 125 -82 219q-8 27 -27 125q-12 68 -41 97zM228 -190 q-1 -6 -1 -11t1 -9q0 -7 1.5 -20.5t1.5 -19.5q0 -12 6 -12q4 0 11 6q16 13 22 31q2 5 10 24.5t13 28.5q31 73 37 98q9 29 22.5 89.5t22.5 90.5q2 8 2 14q0 9 -4 17q-76 -111 -94 -149q-2 -4 -6.5 -10.5t-7 -12.5t-3.5 -12q-25 -103 -31 -123q-3 -9 -3 -20z" />
<glyph unicode="Z" horiz-adv-x="610" d="M-74 647q0 10 11 10q40 16 69 23q20 3 31 14q10 7 46 34t56 40q30 22 82 53q17 12 49 28t45 25q14 10 29 10q13 0 27 -7q30 -16 30 -48v-11q0 -57 -28 -95q-20 -30 -29 -64q-3 -12 -22 -45q-10 -18 -28 -51t-34.5 -60.5t-32.5 -51.5v-9q3 -4 12 -4h11h29q12 0 32.5 -3.5 t24.5 -8.5q6 -2 18.5 -8t18.5 -8q15 0 22 -7h2q14 -5 17 -10q12 -6 16 -6q7 7 24.5 27.5t28.5 29.5q5 12 20.5 29t16.5 19q19 25 32.5 41.5t35.5 40t35 38.5q26 30 77 37q14 0 17 -6q1 -2 1 -5q0 -5 -3 -11q-13 -14 -43 -41q-29 -24 -57.5 -59t-45.5 -52l-20 -20 q-8 -26 -29 -29q-28 -35 -39 -64q-1 -2 -5.5 -7t-7.5 -9.5t-2 -13t9 -17.5q10 -16 12 -31t-0.5 -36t-1.5 -33q0 -21 9 -86q1 -12 1 -24q0 -39 -12 -82q-33 -92 -47 -140q0 -6 -6 -12q-15 -20 -36.5 -73.5t-49.5 -76.5q-18 -15 -25 -28q-14 -28 -47 -53q-13 -9 -35.5 -29 t-31.5 -27q-29 -21 -64 -21q-9 0 -18 1q-45 7 -72 43q-9 12 -15.5 26.5t-15 38.5t-10.5 29q-4 15 6 25q15 27 38 76.5t32 66.5q5 9 14.5 29.5t14.5 29.5q50 103 123 185q13 13 16 32q13 92 13 143q0 15 -1 27h-10q-57 0 -127 -53q-25 -20 -36.5 -19.5t-31.5 25.5q-1 2 -4 6 t-5.5 7.5t-4.5 7.5q-10 14 -5 41.5t19 38.5q4 2 13 1q19 -5 30 17l17 29q15 45 45 96q9 17 -10 20q-22 0 -72 13q-27 4 -31 20q0 12 -14 19q-28 17 -102 55q-11 4 -11 8zM86 -307q-4 -9 -4 -15q0 -13 14 -20q6 -2 12 -2q13 0 23 12q16 26 16 27q3 5 11.5 20t12 21t11 19.5 t11 22.5t8 21t7 23.5t3.5 23.5q4 39 20 99v35q-4 15 -10 15q-5 0 -12 -11q-2 -18 -22 -42.5t-23 -29.5q-12 -20 -30 -65t-32 -68q-2 -4 -3 -10.5t-1.5 -14.5t-1.5 -12q-1 -5 -4 -22.5t-6 -26.5z" />
<glyph unicode="a" horiz-adv-x="757" d="M2 443q0 14 2 39.5t2 27.5q2 67 49 166q28 59 121 160l16 16q15 16 21 27q1 6 7 8q2 1 4 1q4 0 7 -3q9 -7 32 -11.5t26 -5.5q13 -4 32 -5t33 -9q3 -1 18.5 -7t24.5 -11q52 -22 72 -70q8 -21 -12 -35q-3 -2 -21 -20q-5 -4 -27.5 -14t-29.5 -15q-26 -15 -33 -39 q0 -1 -10 -16q-6 -3 -10 -11q-22 -42 -50 -57l-4 -4q-3 -17 -20.5 -44t-20.5 -44q0 -1 -1 -3t-2 -3q-8 -9 -13 -21.5t-7.5 -21.5t-5.5 -25.5t-5 -23.5q-1 -6 -2 -13q0 -40 47 -90q16 -19 37 -6q12 6 22 14.5t23 23t16 17.5q12 12 23.5 29t17.5 27t19 33.5t16 29.5q8 24 8 37 v10q0 27 4 65q5 46 6 60q0 9 6 15t15 6q16 2 47 2q11 0 14.5 -4.5t3.5 -14.5l-6 -22q-6 -4 -10 -17q0 -15 -1 -41t-1 -41q0 -6 -2 -10q0 -12 2 -20q0 -9 7.5 -27.5t8.5 -28.5v-6q0 -72 72 -88q24 -5 55 13q3 2 11 6.5t13.5 8.5t6.5 7q0 1 31.5 49t37.5 64q8 20 22.5 48.5 t24.5 54t15 58.5q7 35 35 13q10 -8 14 -16q4 -7 4 -11t-4 -14q-3 -8 -4 -12q-9 -35 -22 -66.5t-22 -47.5t-23.5 -40t-18.5 -31q-17 -33 -40.5 -65.5t-35.5 -40.5q-32 -18 -39 -33q-4 -6 -27.5 -11.5t-31.5 -2.5q-3 1 -15.5 3.5t-21 4.5t-18.5 6t-15 8q-42 29 -55 53 q0 1 -1 2t-1 2q-10 15 -13.5 17t-11.5 -4q-7 -2 -12 -13q-34 -83 -147 -131q-9 0 -13 2q-53 15 -90 17q-68 8 -123 63q-17 17 -28 40.5t-17 43.5q-4 19 -6 47q-1 21 -2 34v8z" />
<glyph unicode="b" horiz-adv-x="731" d="M6 528q0 4 1 13.5t1 13.5v49q8 39 8.5 85t1.5 52q1 11 11 63t10 79q0 83 111 403q11 31 18 60q12 28 12 45q2 31 25 53q20 19 47 18h8q26 -3 51 0q27 -8 43.5 -14t35.5 -21t28 -36q22 -46 22 -119q0 -49 -10 -109q-31 -157 -147 -387q-3 -4 -6 -36t-3 -48q-7 -44 -7 -88 q0 -15 1 -29q13 -26 15 -94q1 -33 7 -100.5t7 -101.5q4 -52 41 -140q9 -22 27 -22t30 22q59 91 72 209l-2 8q9 24 6 41v2q1 5 1 10q0 33 -30 62l-43 43q-14 13 -23 32t-11 32t-5 38q0 3 -3 26.5t-3 29v24.5t3.5 27.5t11 21.5t18.5 23q40 35 59 47q27 19 56 4q15 -23 20 -45 q23 -107 23 -218v-26q2 -29 7 -34t34 -2q3 0 17.5 1.5t18 2t14 2.5t16 4.5t14 7t16.5 10.5q32 24 45 37q6 7 17.5 33t23 41.5t23.5 11.5q5 -6 8 -20q0 -1 1.5 -4.5t1.5 -5.5l1 -8q1 -3 -1 -7l-5 -10q-75 -144 -240 -144q-10 0 -24 -37t-13 -69q-3 -18 -8 -55t-8 -54 q-3 -15 -7.5 -57t-11.5 -65q-13 -38 -49 -69q-35 -30 -67 -30h-2q-113 7 -174 43q-62 35 -96 92.5t-56 139.5q-6 20 -10.5 45t-6.5 42t-4.5 48.5t-3.5 44.5q-4 42 -10 63zM276 932q-1 -3 -1 -6q0 -8 5 -12q7 -6 16 -4t11 12q7 39 39.5 117.5t38.5 123.5q5 35 6 50.5t1.5 47 t-9 53.5t-27.5 38q-6 6 -12 6t-10 -6q-1 -1 -8 -11q-11 -19 -17 -36q-15 -54 -19 -89q-2 -19 -2 -39q0 -17 1 -35q3 -38 2 -57q-4 -74 -4 -112q-11 -39 -11 -41zM418 711q-6 -32 -6 -63q0 -47 14 -93q8 -31 45 -53q9 -6 16 -6q11 0 13 20q0 10 -1 25t-1 22q1 7 1 15 q0 42 -18 114q-11 26 -24 37q-11 7 -20 7q-15 0 -19 -25z" />
<glyph unicode="c" horiz-adv-x="632" d="M0 485v7q0 29 12 94q28 129 92 211q11 11 29 18q21 9 39 21q36 24 63 24h7q4 0 6 2q7 4 14 6q7 4 12 4h3q5 0 11 -2q8 -2 11.5 -2.5t13.5 -3.5t13 -4q43 -11 108 -53q11 -8 29 -12q32 -10 29 -31q0 -14 -10 -25t-23 -12q-8 -2 -29 -2t-57 -16q-35 -17 -53.5 -31 t-24.5 -22t-18.5 -34.5t-24.5 -46.5q-8 -13 -22.5 -38t-22.5 -37q-8 -11 -10 -31q-8 -58 -8 -96.5t8 -57.5q7 -15 13.5 -24t19.5 -20.5t14 -12.5q1 -3 8 -6q0 -4 8 -8q25 -12 50 -12t42.5 4.5t42.5 23.5t36 29t37.5 38t33.5 35q38 38 82 104.5t69 119.5q13 28 21 34t20 -2 q21 -13 21 -28q0 -13 -10 -25q-10 -21 -28 -47.5t-36 -51t-23 -32.5q-10 -14 -27.5 -40.5t-31.5 -44.5t-33 -38q-4 -4 -24 -35t-35 -36q-23 -7 -39 -14t-21.5 -10t-13.5 -5.5t-22 -3.5l-17 -6q-29 -18 -59 -18q-8 0 -16 1q-7 -1 -14 -1q-34 0 -72 12q-14 5 -23.5 13.5 t-24.5 12.5q-27 9 -49 31q-51 49 -70 100t-26 133z" />
<glyph unicode="d" horiz-adv-x="882" d="M10 575q2 15 7.5 42t7.5 40q18 25 33.5 51t22.5 36.5t15.5 21.5t23.5 14.5t35.5 6t61.5 4.5q47 0 74 -11q0 -2 2 -2q6 -1 19 -4.5t20 -4.5t18 1q9 4 11 12.5t0 22t-1 18.5q18 179 33 238q6 24 13.5 71.5t9.5 57.5q7 44 28 100q13 35 15 51q0 29 35 41q30 7 56 7 q41 0 68 -19q27 -15 46 -29q11 -40 11 -81q0 -9 -1 -19l-6 -61q-18 -54 -28 -125t-12 -109t-5 -129q-1 -32 -6.5 -74.5t-6.5 -74.5q-1 -26 -1 -69v-46.5v-46.5q0 -42 -1 -68q0 -10 6 -16q0 -42 17 -88q10 -27 31.5 -37t44.5 -4q5 0 14 6q49 32 78 92q95 169 119 230l1 3 q1 4 1.5 5.5l1.5 4.5t2 3.5t3 2t5 0.5t6 -3q2 -1 6 -3.5t5.5 -3.5t4 -3t3.5 -3.5t1.5 -4t0.5 -6t-1 -7.5q-14 -60 -38 -111t-47.5 -86.5t-26.5 -41.5q-39 -64 -70 -93q-10 -10 -22.5 -18t-30 -17t-25.5 -14q-6 -4 -20 -4q-9 2 -36.5 8t-41.5 9q-44 9 -65 47q-48 41 -70 90 q-17 40 -19 42q-9 12 -16 -7q-15 -40 -22 -88q-3 -57 -43 -113l-21 -33q-26 -42 -84 -59q-19 -6 -34 -6q-13 0 -23 4q-18 7 -35 10q-72 17 -105 92q-5 12 -15 33t-17 39t-11 35q-19 80 -19 153q0 51 9 98zM217 362q0 -44 4 -114q9 -37 10 -39q5 -12 11 -12q3 0 6 2 q4 -2 8 -2q6 0 12 4q62 47 82 149q2 9 8 43t8.5 46.5t6.5 42t4.5 47t0.5 42.5t-3 47q0 8 -8 18q-5 7 -11 7q-3 0 -6 -2q-25 -16 -33 -29q-30 -51 -41 -82q-23 -71 -45 -127q-1 -4 -7.5 -18.5t-6.5 -22.5z" />
<glyph unicode="e" horiz-adv-x="552" d="M-8 418q-6 31 -6 65q0 70 28 152q6 20 15.5 37t28.5 45.5t24 36.5q44 67 78 93q31 23 60 23h7q32 -3 78 -8q2 0 8.5 -1.5t8.5 -0.5h12q34 0 53 -31q20 -41 20 -70q0 -13 -4 -24q-4 -18 -9 -52t-9 -52q-3 -29 -16 -45q-19 -26 -49 -81t-50 -81q-22 -43 -20 -53 q3 -23 29 -76q18 -18 45 -6q63 26 114 74t99 149q11 36 32 63q14 19 17 33q5 18 10.5 22t19.5 -7q2 -2 6 -5q4 -2 5 -4q2 -4 2 -9q-1 -3 -1 -6q-2 -5 -5 -13q-33 -61 -33 -78q-32 -87 -113.5 -176t-146.5 -111q-52 -7 -54 -8q-8 0 -10 -2q-9 0 -26 -3q-16 -4 -26 -4h-1 q-9 0 -25 5q-4 1 -27 6t-39.5 12t-33.5 19q-82 63 -96 172zM233 594q0 -8 7 -44q8 -40 8 -46q0 -8 4 -8t13 9q11 12 16 25q4 9 11.5 28t11.5 30.5t10 29t9 31.5t6 30q3 14 3 27v4q0 16 -4 31q-2 14 -14 15h-3q-11 0 -19 -6q-10 -8 -7 -13q-21 -34 -25 -47q-22 -46 -22 -80 q0 -3 -2.5 -7.5t-2.5 -8.5z" />
<glyph unicode="f" horiz-adv-x="573" d="M4 725q4 29 14 37q0 12 6 32t7 25q2 12 16 72t16 92q-2 8 3 23q18 50 26 127q1 5 2 16t2 16q10 47 47 72q77 58 144 158q12 18 30 24q36 10 82 27q6 2 11 2q16 0 32 -14q2 -3 10.5 -14t11.5 -16t6.5 -14.5t4.5 -19.5q0 -9 6 -24q9 -22 9 -60q0 -22 -3 -49 q-5 -88 -10 -115q-9 -49 -35 -127q-6 -17 -20.5 -68.5t-24.5 -78.5q-30 -87 -61 -154l-55 -121q-2 -8 -2 -16q-3 0 -3 -6q-2 -28 18 -47t48.5 -25.5t58.5 -10t48 0.5q82 4 180 164q3 5 10 7.5t20 -5.5q14 -12 14 -26q0 -6 -3 -13q-115 -163 -183 -166q-3 -4 -6 -5t-10 -2 t-10 -1q-15 -1 -32 -1q-51 0 -118 11q-29 5 -30 0q-1 -3 4 -10q8 -13 17.5 -37.5t14.5 -34.5q20 -37 33 -86q20 -96 45 -227q5 -19 -4 -41q-14 -31 -14 -80q0 -11 -6 -20v-2q-5 -3 -9 -21q-17 -23 -20 -25v-4l-16 -8q-10 -4 -26 -4q-23 0 -58 8q-7 0 -20 3.5t-17 4.5 q-2 2 -6 4.5t-6 4.5h-3l-30 30q-43 37 -56 80q-8 19 -22 65t-25 70l-2 13q-10 79 -14 96q-6 23 -13 64t-12 59q-8 28 -6 43q1 27 1 37t-2 37.5t-3 37.5q-3 105 -3 175q0 35 1 61zM219 202q0 -4 2.5 -12.5t3.5 -11.5t4.5 -10.5t3.5 -11.5l31 -207q4 -26 8 -35q6 -16 20 -16 q5 0 11 2q21 30 27 67l8 25q11 20 8 47q-1 18 -10 76q-19 79 -23 100q-3 12 -34 98q-4 6 -9.5 12t-13.5 13.5t-10 9.5q-8 7 -13.5 5t-7.5 -11q-1 -3 -1 -8t-1 -8q-3 -46 -3 -73q0 -15 1 -24v-14q-2 -9 -2 -13zM250 860q3 -41 3 -64q0 -13 -1 -20q-2 -17 2.5 -53t1.5 -55 q5 1 8.5 3.5t5 4.5t4 5.5t2.5 4.5q5 6 9 15t6.5 16t6 18t5.5 17q2 9 10.5 30t10.5 35q4 27 20 90q26 77 31 129l8 51q4 29 10 43q9 41 9 75q0 20 -3 38q-3 29 -27 29h-5q-20 0 -52 -12q-34 -14 -34 -56q-3 -57 -17 -102q-15 -78 -15 -129q0 -15 1 -27v-37v-49z" />
<glyph unicode="g" horiz-adv-x="694" d="M1 428q0 28 3 51q2 12 8.5 49.5t12 63t12.5 49.5l2 2q16 26 48 82.5t52 87.5q11 20 40 56t40 53q15 12 30 12q7 0 13 -2t16.5 -4t17 -3.5t16 -5t18.5 -8.5q12 -12 37 -12q35 -37 38 -80v-8q0 -39 -28 -78q-11 -13 -32.5 -34t-36 -39t-23.5 -37q-97 -190 -97 -342 q0 -1 3.5 -18t3.5 -21q0 -23 12 -23q11 -15 29 -15t43 15q30 32 55 98q8 24 8 29q43 71 68 160q6 17 6 34.5t-6 34.5t11 38.5t36 21.5q15 -3 21 -10.5t11 -26.5q0 -4 2.5 -18t2.5 -25q0 -5 3.5 -64.5t8.5 -91.5q1 -3 -0.5 -17t4.5 -22q4 0 7 3.5t6 8.5t5 7q23 39 103 170 q13 18 78 87.5t79 90.5q9 9 21 -6q9 -10 9 -23q0 -15 -15 -34q-42 -50 -74 -85t-47.5 -50.5t-22.5 -24.5q-5 -10 -17.5 -28t-18.5 -27q-3 -12 -27 -41q-19 -27 -41.5 -83t-34.5 -77q-10 -10 -10 -55q0 -12 1.5 -41.5t-1.5 -38.5q-4 -71 -16 -217q-5 -32 -27 -82 q-10 -20 -10 -39q-7 -68 -47 -156q-40 -82 -56 -104q-6 -5 -25 -21t-30 -26q-6 -3 -13 -3q-9 0 -18 7q-92 46 -102 163q0 15 6 17q7 8 12.5 17.5t9 15.5t8 20t5.5 17t6.5 21t5.5 19q59 156 131 289q4 9 15.5 32t19 40t12.5 35q4 9 5 18.5t0 22.5t-1 16q0 21 3.5 64.5 t3.5 66.5v10q-19 0 -19 -10q1 -5 0.5 -10.5t-0.5 -9.5t-1.5 -9.5t-2 -8t-3.5 -8.5l-4 -8t-5 -9t-4.5 -8t-5 -8.5t-5.5 -8.5q-10 -25 -14 -33q-11 -14 -24 -34.5t-19 -28.5q-28 -45 -84 -45q-10 0 -22 2q-120 18 -170 129l-17 39q-1 10 -3.5 45t-3 51.5t-0.5 44.5zM251 -377 q0 -1 0.5 -2t0.5 -2q0 -10 6 -10q4 0 10 4q16 27 17 29q28 50 45 96q4 20 22.5 93t24.5 116q0 2 0.5 4.5t0.5 4.5t-1 4t-4 3q-3 0 -4.5 -1t-3.5 -2.5t-3 -2.5q-9 -9 -22 -36t-25 -38q-20 -29 -30 -76q-10 -48 -17 -63q-7 -16 -10 -33.5t-4 -44t-2 -37.5q-2 -1 -2 -2 q0 -2 1 -4z" />
<glyph unicode="h" horiz-adv-x="827" d="M12 569v33q-1 15 -1 30q0 46 7 91q0 46 7 111v12q4 18 11 57.5t11 59.5q1 5 5.5 23t9 33.5t4.5 16.5q6 26 23 73t22 67q6 11 12 31.5t10 29.5q16 29 37.5 46.5t47.5 30.5t38 23l27 19q44 11 62 11q4 0 7 -1q21 -2 38 -17.5t18 -35.5q5 -44 5 -76q0 -24 -3 -41 q-9 -45 -9 -61q0 -31 -16 -68l-23 -96q-1 -4 -8 -24.5t-10 -28t-10 -22t-15 -26.5q-5 -7 -13 -24.5t-13 -24.5q-10 -11 -21 -33t-16 -30q-6 -3 -6 -8q0 -1 -4.5 -23.5t-4 -24.5t0.5 -24q7 -17 4 -39q0 -2 -1 -5.5t-0.5 -5.5t3.5 -3q6 -2 14 10q8 23 51 78q26 23 66 47 q13 8 33 12q13 3 35.5 6t29.5 4h8q61 0 101 -43q26 -21 37 -80q9 -45 9 -105q0 -45 -5 -99q0 -3 -1.5 -10.5t-1.5 -14t3 -10.5q1 -5 2.5 -15.5t2 -13.5t2 -10.5t3.5 -11.5t5 -9.5t7 -10.5t10 -11q12 -21 29 -21q13 0 29 11q3 5 10.5 10.5t9.5 7.5q23 15 25 37q0 4 12 16 q27 27 35 45q9 28 18 39q25 37 29 66q0 5 10 35l12 37q10 31 11 34q2 10 13 11q12 2 22 -6q7 -6 7 -14q0 -2 -1 -5q-1 -4 -8 -19t-7 -24l-4 -25q-10 -62 -55 -131q-22 -41 -43 -86q-25 -49 -72 -96q-8 -8 -18 -8q-26 -10 -54 -10t-59 10q-24 8 -37 8q-38 12 -63 37l-35 41 q-55 58 -55 145q0 45 10 91t10 53q1 13 1 26q0 21 -3 41q0 16 -8 19q-5 2 -8.5 0t-6.5 -6t-5 -5q-17 -12 -27 -38q-2 -3 -16 -27.5t-21 -42.5q-5 -8 -8.5 -19t-6.5 -25t-5 -20q-13 -30 -7 -43l-4 -14q-3 -13 -8 -24q-3 -6 -5 -10.5t-3 -5.5t-1.5 -4t0 -5.5t1.5 -11.5v-13 q0 -36 -14 -65q-4 -9 -4 -24q0 -18 6 -46q5 -10 6.5 -31t5.5 -30q8 -16 -6 -49l-8 -7q-6 -2 -18.5 -7.5t-19 -7t-20.5 -3.5q-4 -1 -7 -1q-9 0 -15 5q-13 8 -39.5 16.5t-32.5 10.5q-10 2 -27 10t-24 10q-15 8 -19 31l-14 59q-3 12 -8 19t-8 16q-1 8 -5 29.5t-5 32.5 q-1 9 -1.5 13t-1 4.5t-0.5 3.5v11q-2 18 -2 54l-2 73q-4 16 -4 43zM260 870q-1 -2 -1 -4q0 -4 5 -6q4 0 8 8q2 1 7 15q5 12 15 42.5t17 45.5q6 12 10.5 24.5t8 26.5t6.5 22q12 26 16 95q3 19 3 59t3 59q1 4 1 7q0 10 -9 16q-10 14 -27 14q-6 0 -12 -2q-16 -3 -20 -30 q-11 -25 -19 -72q-1 -5 -5 -24.5t-4 -24t1 -23.5q3 -12 3.5 -25.5t-0.5 -32.5t-1 -26q1 -10 1 -23q0 -25 -3 -59q-3 -15 -2.5 -41t-1.5 -41z" />
<glyph unicode="i" horiz-adv-x="458" d="M0 518q10 35 10 47q0 47 6 60q3 14 7.5 42.5t7.5 43.5v6.5v6v5t0.5 5t1 4.5t1.5 4.5t2.5 3.5t3.5 3.5t5 2.5q39 17 55 10q8 -3 51.5 -16t65.5 -21q27 -8 35 -16q10 -2 14 -19q0 -14 -4 -20q0 -26 -6 -60q-4 -117 -12 -172q0 -3 -6 -108q0 -43 10 -74q6 -11 13.5 -12 t19.5 4q47 39 84 94q17 26 72.5 138.5t66.5 142.5q6 13 20.5 5.5t14.5 -12.5q1 -3 -0.5 -8.5t-1.5 -7.5q-8 -26 -60.5 -136t-66.5 -130q-7 -12 -16 -23.5t-21 -24.5t-19 -22q-4 -4 -13 -20.5t-13 -20.5q-12 -15 -34.5 -27t-45.5 -12q-17 -3 -33 -3q-45 0 -84 24 q-10 8 -41 26q-26 21 -70 80q-10 15 -10 45q0 6 -1.5 28.5t-0.5 33.5q-3 19 -8 100zM20 1030q6 53 35 103q17 33 58 65q12 6 18 5q1 1 3 1q6 -2 22 -10q16 -7 43 -14.5t45.5 -13.5t21.5 -11q4 -17 13 -20q2 -4 2 -9q-1 -6 -3 -15q-4 -16 -4 -19q-3 -77 -20 -136 q-6 -37 -29 -59.5t-53 -24.5h-16q-8 -1 -15 -1q-32 -1 -51 15q-23 18 -43 66q-5 12 -10.5 31t-9.5 27q-4 17 -7 20z" />
<glyph unicode="j" horiz-adv-x="450" d="M-106 -322q5 62 24.5 146t36.5 104l16 43q9 29 52 127q4 8 6 17t3.5 20t2.5 17q-7 60 -14 87.5t-11 94.5q-2 21 -2.5 69.5t-3.5 75.5q0 21 4 33q1 7 6 69.5t11 96.5q0 1 2 4t2 4q21 42 21 74q0 6 -1 12q0 30 24.5 48.5t53.5 6.5q15 -6 24 -13t13 -12t12 -19t14 -23 q8 -15 21 -15q1 -2 13.5 -15.5t18 -28t1.5 -31.5q-4 -8 -4 -23l20 -98q-3 -23 6 -35q4 -16 4 -25q0 -22 -2 -40q-3 -27 6 -29q8 -1 23.5 18.5t15.5 24.5q4 11 13 16q8 4 18 17q39 10 115 106q5 5 12.5 16t11.5 15q12 17 27 4q8 -5 8 -14q0 -7 -4 -15q-4 -10 -22 -29.5 t-38.5 -39t-23.5 -23.5l-74 -84q-30 -60 -30 -65q-5 -2 -13 -17q-9 -9 -16 -26q-20 -28 -29 -58q-6 -13 -12 -54t-4 -58v-8q0 -57 -27 -144q-6 -36 -8 -106t-8 -107q-15 -101 -62 -184q-4 -6 -9.5 -16.5t-10 -18t-11 -18t-13 -17.5t-15 -15t-19 -12.5t-22.5 -7.5 q-10 -3 -23 -3q-2 0 -4 1q-16 0 -34 4q-22 4 -33 15q-9 -2 -29 18q-10 12 -22 59q-9 36 -9 68q0 8 1 16zM-68 -344q5 -30 37 -41q6 -2 12 -2q16 0 35 16q1 0 2.5 2t3 4.5t3.5 4.5q47 64 47 131v15q0 41 -9 103q-4 46 -4 74q-5 41 -12 68q-7 -13 -19.5 -35.5t-21 -39 t-12.5 -30.5q-41 -112 -55 -168q-9 -47 -9 -78q0 -14 2 -24zM-23 1139q-2 6 -2 12q0 23 27 33q29 4 39 16q34 21 69 21q10 0 21 -2q8 -4 26 -10.5t31 -14t23 -20.5q9 -5 15 -16q4 -8 4 -16q0 -3 -1 -7q-3 -12 -3.5 -21.5t0.5 -21.5t1 -19q0 -28 -5.5 -45t-6.5 -41 q-4 -7 -5 -17.5t-1 -11.5q-11 -40 -16 -45q-5 -3 -18 -3t-34 3q-86 15 -114 105q-6 20 -16.5 25t-10.5 26q0 15 -3.5 25t-9.5 22t-10 23z" />
<glyph unicode="k" horiz-adv-x="825" d="M7 745q1 31 7 78q18 124 62 281q38 114 106 270q6 24 6 37q0 27 25 27q46 2 145 22q6 1 12 1q30 0 54 -34q34 -49 35 -97q0 -9 -2 -19q-12 -87 -27 -119q-3 -11 -8.5 -31.5t-10.5 -36t-10 -28.5q-10 -32 -43 -88l-53 -90q-16 -27 -16 -70q1 -6 1.5 -10t1 -4.5t0.5 -2 t-0.5 -2t-1 -4.5t-1.5 -10q0 -41 6 -55q45 67 113 86q38 13 71 13q70 0 111 -60q7 -5 14 -25q6 -14 17 -34.5t16.5 -32.5t9 -30.5t0.5 -39.5q-7 -36 -20 -51q-4 -12 -40 -63t-52 -72q-5 -9 -18.5 -16.5t-20.5 -14t-4 -17.5q3 -8 4 -19t4 -19q5 -11 30 -36t39 -36 q16 -18 39 -18q14 0 31 6q65 35 87 60q6 6 11 13q85 117 131 213q12 18 19 37q6 14 10 19t7.5 3.5t10.5 -8.5q12 -12 12 -26q0 -9 -5 -19q-96 -192 -123 -219q-7 -11 -11 -12q-11 -10 -51 -53.5t-65 -59.5q-39 -14 -66 -16q-34 3 -59 23q-114 64 -162 145q-9 16 -37 51 q-13 10 -20 27q-19 26 -20 35.5t9 37.5q11 32 68 101q4 4 15 17.5t13.5 17t10.5 14t10.5 15.5l7.5 15t8.5 19.5t6.5 22.5q15 35 -8 45l-5 4q-6 3 -13 4t-14 -2t-12 -5.5t-12 -8.5l-10.5 -9t-10 -10t-7.5 -8q-17 -17 -41 -53q-8 -14 -17 -42.5t-14 -39.5q-8 -24 -8 -31 q-2 -20 -8.5 -58.5t-8.5 -56.5q0 -52 -12 -77q10 -61 16 -175v-12q2 -12 2 -45q0 -12 -4 -17t-18 -5q-8 -5 -19 -5t-26 5q-15 1 -62 22q-10 0 -20 10q-3 6 -18.5 33.5t-20.5 44.5q-6 23 -21.5 48.5t-23.5 47.5q-4 10 -4 21q-3 21 -10.5 65.5t-10 62t-4.5 50.5q-2 24 -2 48 v20q0 21 -2 55q-1 23 -1 44v21zM285 1004q0 -21 7 -21q4 0 10 7q13 15 15 30q4 10 33.5 74.5t36.5 103.5q14 54 19 96q1 7 1 16q-1 4 -1 8q0 13 -1.5 26.5t-6 24.5t-11.5 17.5t-19 6.5t-28 -9q-8 -6 -8 -16q-8 -12 -8 -14q-22 -55 -23 -60q-8 -49 -16 -135q-1 -8 -1 -19 q0 -27 5 -73q0 -5 -2 -30t-2 -33z" />
<glyph unicode="l" horiz-adv-x="573" d="M8 653q0 21 4 31q-4 18 -2.5 63.5t6.5 59.5q-2 10 -2.5 13.5t0 10t2 12t4 23.5t5.5 41l2 4q-1 16 8 58q0 1 -1.5 5t-2 7.5t1.5 9.5q4 4 4 15l8 57q4 22 33 125q7 19 16.5 52.5t14.5 47.5q15 21 12 45q-5 19 18 31q9 1 35 7t43 7q18 0 29 15q30 16 92 20q26 -3 44 -19.5 t21 -39.5q15 -30 21 -51q5 -18 5.5 -38t-2.5 -49t-3 -38q0 -5 1 -11q0 -34 -11 -96q-8 -87 -37 -192q-6 -61 -27 -111q-17 -75 -41 -133q-8 -16 -19 -38.5t-14.5 -31t-6 -20t-1.5 -21.5q5 -19 5 -52q0 -16 -1 -36q-2 -32 -1 -34.5t6.5 -14.5t9.5 -35q0 -13 16 -41 q12 -27 25 -35q18 -20 40 -20q32 0 72 45q7 10 35.5 40.5t34.5 45.5q1 2 25 59.5t28 71.5q22 43 39 80q1 2 6 11t6 12q9 28 25 12q14 -14 14 -22t-6 -19q-34 -103 -78 -197q-7 -13 -17 -33t-13 -25.5t-9.5 -16t-12.5 -17t-17 -16.5q-31 -51 -101 -97q-44 -19 -102 -19h-16 q-68 3 -115 34q-6 4 -17 11.5t-13.5 9.5t-10 7t-9.5 8t-7 7.5t-9 10t-8.5 12t-11.5 16.5q-3 3 -8.5 18t-14.5 40t-16 42q-7 13 -18 88t-13 121zM264 788q-1 -5 -1 -9q0 -5 1 -9q1 -49 6 -49q27 27 31 55q6 19 15 41.5t14 40.5t8 43q4 97 16 141q1 3 7.5 31.5t8.5 34.5t6 30 q4 22 4 32l-1 33q0 21 -4.5 33.5t-11.5 29t-17 30.5q-6 8 -15 8q-5 0 -12 -3q-17 -8 -14 -23h-4q-2 -11 -9 -47.5t-9.5 -51t-7.5 -45.5t-6.5 -50.5t-3 -45.5t-1.5 -49l6 -135q0 -10 -2 -32t-4 -34z" />
<glyph unicode="m" horiz-adv-x="956" d="M-18 406q-1 10 -1 20q-1 13 1 26q2 24 8 55t8 46q5 24 18 68q19 41 29 102q3 13 7.5 24t14.5 29t13 23q1 3 6.5 7t7.5 7q12 4 26 4.5t30 -4.5q44 -23 69 -33q36 -21 36 -61q0 -6 -1 -12q-2 -6 -2 -21q4 -11 4 -39.5t2 -40.5q11 18 37 43.5t35 38.5q40 46 88 46 q12 0 24 -3q65 -17 93 -39q40 -27 40 -69q0 -14 -4 -29q-3 -13 -5.5 -37.5t-4.5 -32.5q6 -3 8.5 -2t5.5 4l3 2q6 13 43 39q36 22 76 22q9 0 18 -1q49 0 59 -51q2 -13 2.5 -38.5t1.5 -33.5q7 -45 23 -76q4 -17 24 -17t37 11q60 42 86 104q21 47 62 121q8 16 18 19q7 7 19 4 q9 -6 9 -15q0 -7 -5 -16q-12 -24 -31 -67.5t-35 -71.5q-37 -67 -39 -70q-8 -8 -18 -20.5t-15.5 -18.5t-16 -14t-24.5 -14q-27 -10 -51 -10q-34 0 -59 22q-40 38 -60 88q-10 25 -20 55q-3 24 -31 8l-12 -20q-7 -23 -18.5 -48.5t-20 -41t-25.5 -45t-24 -41.5q-13 -33 -57 -45 q-9 -2 -17.5 0t-20 7.5t-14.5 6.5q-76 34 -104 121q-14 51 -14 92q0 31 -2 49q-13 -9 -19 -26q-4 -13 -16 -37.5t-15 -32.5q-10 -18 -28 -76q-1 -5 -4.5 -18.5t-7 -23t-9.5 -17.5q0 -1 -4.5 -8.5t-4 -8t0.5 -8.5q6 -25 -18 -49q-2 -6 -2 -24q0 -13 -4.5 -19t-18.5 -6 q-24 0 -47 10q-16 8 -84 53q-24 17 -39 64q-18 65 -20 111z" />
<glyph unicode="n" horiz-adv-x="753" d="M4 551v12q2 6 3.5 24t4.5 27q4 12 8.5 35t4.5 25q11 37 20 57q15 20 16 21q3 3 10.5 8t10.5 8q18 7 35 7q6 0 12 -1q70 -11 102 -39q25 -16 31 -43q4 -36 4 -57q2 -23 2 -68q69 75 72 78q24 27 76 49l8 2q16 1 23.5 2t21.5 -3.5t20 -7t19.5 -8.5t19.5 -9q22 -11 37 -58 q1 -3 2 -4q6 -12 -2 -24q-9 -21 -12.5 -59.5t-5.5 -49.5q-1 -6 -2 -19t-2 -20q0 -13 8.5 -26.5t19.5 -16.5q21 -5 47 13q7 5 28.5 15.5t29.5 18.5q16 16 23.5 25.5t10.5 15t12.5 21t25.5 37.5q2 3 24.5 48t30.5 50q3 3 10 4t14 -4.5t7 -18.5q0 -5 -21 -47q-33 -70 -63 -110 q-33 -43 -60.5 -65t-71.5 -44q-17 -9 -45 -9q-9 0 -20 1q-69 13 -108.5 60t-47.5 118q-1 10 -1 21t0.5 23.5t0.5 19.5q-9 4 -18 -6q-36 -48 -64 -105q-16 -29 -41 -84.5t-36 -77.5q0 -25 -19 -59q-14 -26 -37 -26q-8 0 -16 3q-72 18 -123 72q-18 20 -29 70q-13 50 -13 112 q0 32 3 66z" />
<glyph unicode="o" d="M-14 397q-20 59 -20 126t20 141q10 31 20 73q8 28 6 39q0 10 11 25q6 8 15 8q4 0 9 -2q4 -2 18.5 -6.5t22.5 -9.5q13 -7 39.5 -11t38.5 -10q12 -4 16 4q15 12 45 21q25 8 53 8q10 0 18 -1q38 -3 67 -28q2 -2 2 -4q3 -3 25 -19t28 -30q3 -10 10 -33t10 -37q3 -16 4.5 -22 t7.5 -12.5t17 -6.5q61 0 92 8q33 10 68 35q24 17 24 -6q0 -27 -18 -39q-20 -18 -60 -28q-7 -2 -24.5 -9t-37 -11.5t-42.5 -4.5q-19 0 -22 -3t-5 -22q-10 -66 -10 -67q-4 -10 -4 -31v-10q0 -57 -51 -125q-7 -13 -25.5 -35t-25.5 -35q-16 -28 -49 -28q-120 3 -197 57 q-65 43 -96 141zM199 322q2 -5 4 -14t4 -13q9 -23 29 -27q3 -1 7 -1l33 16q27 19 39 36q59 86 82 203q5 28 0.5 33.5t-37.5 13.5l-8 2q-30 4 -82 33q-22 13 -22 -8q0 -16 -8 -44.5t-9 -39.5q-15 -82 -20 -96q-14 -31 -14 -67q0 -13 2 -27zM272 688q3 -19 21 -37.5t41 -25.5 q36 -11 49 -11q1 0 2 -1q11 -1 14 5q2 4 2 17v10q-2 26 -17 49t-42 33q-16 6 -31 6q-12 0 -24 -4q-15 -9 -15 -33v-8z" />
<glyph unicode="p" horiz-adv-x="806" d="M4 756q-4 5 -4 10q0 6 6 12q47 41 104 41q28 0 58 -10q50 -20 57 -55q2 -10 6.5 -39.5t5.5 -39t4.5 -38t3 -37.5t-0.5 -37q53 116 108 162q55 47 150 68q30 10 55 -15q8 -8 28 -19.5t23 -13.5q43 -32 56 -94q6 -33 6 -64q0 -90 -47 -163q-5 -6 -9 -16q-4 -2 -4 -11 q-31 -38 -18 -37q12 2 39 23q87 59 139 121q14 16 28.5 38t28 43t17.5 27q13 13 23 14t15 -4t11 -16q-2 -5 0 -8q1 -2 1 -4t-1 -4q-28 -37 -29 -39l-2 -4q-3 -4 -8.5 -11t-13 -17.5t-18 -23t-22 -25.5t-25 -28t-28 -28.5t-31 -27.5t-32.5 -26q-6 -6 -8 -10q-5 -3 -19 -8 q-6 -3 -18 -8t-18 -8q-12 -18 -37 -21l-17 -6l-7 -3q-6 -4 -16 -7.5t-25.5 -7.5t-41.5 -7.5t-57 -5.5q-2 2 -8 2q-8 3 -44.5 8.5t-52.5 20.5q-25 22 -39 -20q-2 -12 -6.5 -33.5t-7.5 -39t-4 -32.5q-1 -12 -6 -39t-4.5 -47t10.5 -37q3 -5 3 -12.5t-1.5 -16.5t-1.5 -14 q-3 -20 -2.5 -46.5t12.5 -45.5v-10q1 -19 0 -33t-1 -25t3 -16q2 -2 2 -8q-2 -8 -2.5 -48.5t0.5 -58.5q1 -2 -0.5 -6.5t-1.5 -5.5l2 -9q2 -9 2.5 -19t-2.5 -27q-9 -21 -4 -29v-12q-3 -33 -35 -43q-1 0 -3 -1t-3 -1q-10 0 -26 -4q-58 7 -95 41v4l-10 16h-2q0 5 -7.5 12.5 t-8.5 10.5q-9 19 -23 90h-2q-12 15 -12 37q0 39 -11 63q-10 20 -10 52v12q1 19 1 39q0 47 -5 98q-3 32 -3.5 92t-2.5 84q-1 15 -1 35q0 34 3 82q2 60 2 93v17q-2 41 -2 79q0 69 8 126q1 8 0.5 15.5t1 16.5t5.5 15h-5q0 16 -12 62q-4 0 -4 4zM276 473q-2 -6 -2 -12 q0 -15 15 -25q17 -10 43 -10h8q42 0 63 14q117 78 134 209q4 32 4 47q-8 51 -43 51q-16 0 -39 -12q-7 -4 -19.5 -11.5t-16 -9.5t-12 -7.5t-12 -9.5t-11 -12t-14 -17t-16.5 -23q-43 -60 -49 -84q-3 -14 -8 -28t-13 -32t-12 -28z" />
<glyph unicode="q" horiz-adv-x="684" d="M2 440q-1 24 -1 46q0 96 24 169q28 73 34 84q35 64 72 99q17 12 43 22q2 0 5 1t5 1q9 0 13 -2q4 -1 7 -3t4 -5t2 -5.5t0 -6t-1.5 -6t-2.5 -7t-3 -6.5t-3 -6.5t-3 -5.5q-12 -12 -21 -27q-90 -153 -98 -293q0 -23 4 -73q3 -26 20 -37q8 -9 18.5 -10t18.5 8q38 42 61 77 t31 78q18 76 29 205q0 43 -10 56q-7 11 4 34l10 11q0 2 2 2q7 9 15 16t19 13.5t17.5 10t21 10.5t19.5 9q28 13 62 16q6 1 12 1q18 0 31 -10q17 -13 22 -40v-20q-9 -38 -9 -81.5t4 -94.5q3 -42 3 -69v-13q-5 -45 -14 -170q-4 -46 -4 -66q0 -21 8 -24q10 0 19 14q9 20 27 48 t24 40q12 21 25.5 39t22.5 28.5t29 31t31 32.5q31 37 111 82q15 5 20 0q5 -7 5 -13q0 -4 -3 -7q-89 -77 -118 -113q-85 -96 -172 -295q-25 -60 -37 -195q-4 -58 -8 -82q-1 -5 0 -16q1 -19 2 -41q4 -143 16 -198q4 -17 -4 -50q-2 -1 -26 -4.5t-36 -7.5q-16 -3 -31 -3 q-67 0 -110 56q-48 56 -59 158q-5 52 -6.5 84.5t-0.5 55.5t5.5 103.5t7.5 164.5q0 11 3 33.5t3 33.5q5 19 -6 23q-30 -19 -60 -19q-14 0 -27 4q-45 12 -80 49.5t-38 75.5z" />
<glyph unicode="r" d="M-57 772q-1 9 -1 18q0 58 29 123q11 29 37 29q8 0 17 2.5t19.5 6.5t14.5 5q9 4 15 4q12 0 20 -12q4 -7 12 -10q35 -22 41 -68q9 -40 8 -71q0 -20 -3 -35q-2 -12 -5.5 -38t-5.5 -38q30 5 64 35q31 30 88 30q17 0 37 -3q51 -8 76 -68q12 -27 12 -55q0 -20 -6 -41 q-14 -46 -23 -58q-11 -22 -14 -45q-10 -30 -25 -57q-30 -40 -65 -135v-12q-3 -7 0 -13q-3 -14 16 -22q20 -5 36.5 -6.5t34.5 3.5t27.5 8t29 16.5t25.5 18t31 23.5q31 25 58 70q16 23 23 34t30 57.5t61 129.5l3 5q3 5 4.5 7t6.5 2t11 -4q2 -1 6 -3.5t5.5 -3.5t3.5 -3t2 -4 v-5.5t-2 -8t-5 -11.5q-71 -151 -100 -200.5t-84 -106.5q-8 -8 -24.5 -21t-20.5 -16q-60 -52 -141 -52q-44 0 -93 15q-64 19 -98 99q-27 68 -27 130q0 49 17 95q11 40 12 41q10 19 -10 25q-12 4 -19 4q-32 4 -79 45q-51 43 -74 110q-8 24 -8 35z" />
<glyph unicode="s" horiz-adv-x="442" d="M-40 736q2 20 6 55.5t3 56.5q0 5 13 18q21 19 37 27t49 18q20 6 42 6q42 0 89 -24q8 -4 22.5 -10t20 -8.5t11.5 -8t7 -12.5q1 -16 2 -24.5t-4.5 -28.5t-9 -30.5t-11 -31t-10.5 -30.5q-19 -60 -19 -103q0 -26 7 -45q2 -6 12 -31q4 -4 11 -18q0 -9 9 -16t21 0 q11 6 35.5 28.5t61.5 48.5q49 34 135 109q5 4 9.5 -1.5t6.5 -14.5q1 -4 1 -8q0 -13 -11 -21q-14 -11 -57.5 -51t-69.5 -58q-9 -6 -16.5 -11.5t-12.5 -10t-11.5 -10.5t-10.5 -10l-12.5 -12.5l-14.5 -14.5q-20 -20 -25 -70q2 -1 2 -6t-1 -11t-1 -7q13 -46 19 -119q1 -7 1 -15 q0 -29 -15 -79q-1 -5 -6.5 -17t-6.5 -14q-4 -15 -14.5 -28.5t-19.5 -20t-25 -17.5q-4 -4 -11 -4.5t-16 4.5q-7 5 -27.5 14t-33.5 19q-10 7 -15 21q0 19 5 26q0 23 5 51t8 41.5t15 52t13 42.5q2 8 9 22l9 18q16 28 -4 48q-4 2 -15 5t-18.5 6.5t-13.5 8.5l-41 37 q-20 12 -25 12q-56 66 -82 139q0 42 -6 62q-6 30 -6 49q1 3 1 7zM154 170v-7q0 -30 22 -50q9 -6 16 -7q11 0 17 15l8 16q9 45 9 88q0 47 -11 92q-3 3 -5 3q-1 0 -1 1q-3 1 -3 -1q-2 -2 -3 -4l-2 -3q-44 -76 -47 -143z" />
<glyph unicode="t" horiz-adv-x="630" d="M-70 768l2 2q11 15 16 18t25 3l35 2q4 2 10 0.5t15 -0.5q11 0 14 10q6 42 6 43q6 47 15 88l12 57q3 12 29 115q0 1 3.5 17t2.5 24v4q3 35 20 45q9 5 25 6q13 0 30 -4q3 -2 20 -9.5t24 -10.5t19.5 -10t22 -14.5t17.5 -16.5l14 -13q8 -5 14.5 -13t14 -19.5t10.5 -16.5 q11 -11 -2 -24q-20 -24 -20 -45q-9 -7 -13.5 -28t-9.5 -28q-1 -1 -2 -5t-2 -5q0 -63 -10 -102v-11q-3 -16 12 -16q14 1 27 2.5t21 4t14 4.5t9 4l3 1q13 -1 38 6t42 3q9 -1 25.5 -6.5t21.5 -6.5q5 -2 7.5 -10.5t-1.5 -13.5q-3 -4 -9.5 -12.5t-11 -13t-12 -10t-16.5 -7.5 q-56 -15 -84 -19l-78 -12q-8 0 -12 -2q-9 -3 -9 -14q1 -31 2 -32.5t-3.5 -32t-4.5 -32.5v-14q0 -19 1 -20t-4 -9.5t-9 -17.5q-2 -4 -2 -14q2 -23 -2 -33q-4 -8 -6 -15q-6 -12 0 -26q0 -2 0.5 -65t5.5 -79v-6q-1 -10 1 -20.5t4 -15.5t10 -19t9 -16q8 -14 33 -35q22 -19 47 -6 l41 24q24 16 72 68q46 46 78 108l10 19q7 12 25.5 42.5t27.5 47.5q28 55 31 65q6 27 16.5 39t34.5 25q9 5 22 -16.5t11 -26.5q-6 0 -6 -2q-50 -97 -55 -107q-5 -6 -12 -17.5t-9 -14.5q-4 -4 -40 -57t-48 -68q-8 -10 -16 -27q-1 -2 -10 -17t-17 -28t-19 -27t-20 -20l-8 -8 q-41 -55 -115 -68q-13 -3 -27 -3q-35 0 -79 18q-9 4 -64 43q-4 3 -12 8t-15 9.5t-12 8.5l-17 17q-17 17 -22 28q-5 12 -15 34t-11 24q-11 26 -27.5 84t-19.5 110q0 10 -1.5 11.5t-2.5 11.5q-1 20 -1.5 36t1 32.5t2.5 25.5t4 31t4 34q2 21 -1.5 25t-23.5 4q6 3 -4 5 q-6 1 -23 2q-21 1 -26 3q-1 1 -4.5 2t-5.5 2q-7 7 -13 9q-7 4 -7 9q0 4 3 9z" />
<glyph unicode="u" horiz-adv-x="665" d="M-20 631q0 32 24 143q4 20 7 27t9.5 11.5t10.5 8.5q3 6 17 6q10 -1 24 -3q36 -6 41 -5q9 3 18 -4.5t18.5 -19.5t12.5 -15q6 -4 22 -15.5t23.5 -18t18 -18t14.5 -24.5t2 -28q-25 -130 -25 -198v-17q12 4 23 22t22 46t12 30q14 16 34.5 99t43.5 98q12 7 28 7q15 -1 34 -7 q39 -14 51 -39q5 -24 1.5 -51.5t-11.5 -70t-9 -52.5q0 -2 1 -18t2.5 -29t4.5 -30t9 -30.5t14 -21.5q9 -15 32.5 -4t27.5 10q2 2 17.5 16t30.5 29t35 37.5t41.5 54t40.5 66.5l1 2q11 12 26 -2q1 -1 3.5 -4t2.5 -4l1 -6q0 -3 -2 -7q-2 -5 -5 -12q-28 -56 -87 -125.5t-85 -89.5 q-31 -28 -68 -33q-8 -1 -15 -1q-27 0 -48 15q-29 21 -46.5 76t-27.5 70q-3 0 -12 -30t-20.5 -63.5t-20.5 -39.5q-1 -1 -7.5 -16t-19 -31t-30.5 -25q-3 1 -9.5 -6t-11.5 -8q-6 -1 -13 -1q-18 0 -46 7q-15 2 -45 19.5t-23 29.5q-64 81 -89 143t-25 150z" />
<glyph unicode="v" horiz-adv-x="624" d="M0 621q0 20 2 30q6 22 2 54q-6 21 10 40q37 41 76 41q8 0 16 -2q9 -1 38 -2t44 -6q23 -7 25 -22q0 -11 10 -21q17 -20 17 -57v-12q-10 -116 -11 -144q0 -69 21 -172q21 12 33 35q83 115 116 188q14 30 13 40t-23 32q-72 73 -72 181q0 17 2 34q3 28 23 51.5t43 28.5 q8 2 15 3q23 0 28 -28q3 -21 19.5 -56.5t19.5 -45.5q8 -16 8 -39q-8 -70 -8 -102q0 -29 20 -43q35 -30 80 -30q30 0 64 13q12 6 31 25q4 8 12 0q2 -2 7 -5.5t6.5 -5l5 -5t3.5 -5.5l1 -6q0 -3 -3 -6t-6.5 -7.5t-10 -10t-15.5 -11.5q-10 -7 -34 -13.5t-38 -6.5q-44 0 -84 16 q-4 2 -43 19q-17 3 -21 -10q-10 -33 -24.5 -67t-36 -80t-29.5 -64q-3 -9 -12.5 -29t-15 -36t-7.5 -32q-6 -31 -38 -37q-16 -2 -32 -2q-54 0 -93 27q-96 68 -125 180q-11 47 -29 183zM362 834q5 -15 5 -19l6 -27q4 -17 11.5 -32.5t19 -33.5t16.5 -28q3 -7 8 -7v1q6 0 8 8 l6 41q-6 49 -8 62q-3 28 -12 49q-6 14 -20 24q-11 8 -19 8q-2 0 -4 -1q-9 -1 -14 -15q-4 -10 -4 -21q0 -4 1 -9z" />
<glyph unicode="w" horiz-adv-x="956" d="M4 502q-4 31 -4 69.5t4 85.5q0 33 12 95q1 4 3 13t2 12.5t-1 13.5q1 1 8.5 7.5t12.5 8.5q4 -2 16 4q21 13 121 27q10 0 12 -2q13 -15 41.5 -15t34.5 -2q9 -1 12.5 -1.5t7 -2.5t5.5 -5t4 -9q12 -20 12.5 -49.5t-2.5 -51.5q0 -1 -3.5 -4.5t-4.5 -5.5q-14 -37 -14 -51 q0 -17 -2.5 -34t-8.5 -45t-8 -36q-3 -21 -4 -40q0 -43 16 -81q15 -58 19 -67q6 -16 11.5 -18t17.5 6q31 19 51.5 46.5t26.5 65.5q1 7 1 14q0 31 -20 62q-5 10 -4 12q1 9 5.5 19t12 21t9.5 16q4 9 30 14q36 4 53 4q19 1 26 -8.5t1 -26.5q-4 -16 -4 -20q1 -12 2 -36t2 -36 q2 -14 4.5 -44t6 -52.5t8.5 -42.5q5 -9 6 -10q12 -39 39 -9q11 14 22 35q35 65 68 168q22 70 24 74q10 28 -10 45q-28 35 -61 96q-21 41 -39 100q0 2 -1 7t-1 8q-3 15 -3 29q0 23 9 45q6 10 30 30q1 0 3.5 1t3.5 1q22 11 39 11l16 -7q45 -41 61 -75q40 -87 40 -164 q0 -22 -3 -43q-6 -38 -3 -47.5t24 -20.5q11 -7 37.5 -17.5t31.5 -10.5q14 -7 37 -7h11.5h12t11.5 1t12.5 2.5t11.5 5t13.5 8.5t12.5 12.5t14 17.5q14 23 34 -8q2 -3 2 -7q0 -11 -14 -28q-35 -39 -90 -47q-27 -4 -46 -4q-29 0 -44 8q-18 5 -39 15t-28.5 13t-14.5 -4t-10 -32 q-2 -19 -7.5 -41.5t-10 -39.5t-14 -44.5t-14 -40t-16 -43.5t-14.5 -39q-14 -48 -66 -71q-12 -9 -24 -6q-70 7 -111 45q-17 19 -23 19t-26 -17q-11 -10 -24 -19.5t-31 -21t-27 -17.5q-27 -15 -55 -15l-23 3l-30 6q-39 3 -85 29t-63 57q-47 83 -65 144q-16 49 -21 90zM650 884 q-1 -7 -1 -14q0 -10 2 -22q4 -14 8 -21q2 -10 9 -32q4 -17 12.5 -34.5t21.5 -38.5t19 -32q5 -6 8 -6q5 0 6 12v49l-12 70q-2 9 -21 57q-4 14 -18 24q-11 8 -18 8q-2 0 -4 -1q-9 -3 -12 -19z" />
<glyph unicode="x" horiz-adv-x="649" d="M-8 717q-3 14 -3 25q0 32 25 38l74 35q20 8 57 8h45q17 -1 22 -7t5 -25q13 -59 14 -62q3 -13 13 -39.5t12 -40.5q-2 -4 2.5 -18t11.5 -19t23 11t30 48t25 46q13 23 22 45t15 31q15 20 32.5 18.5t20.5 -16.5q1 -5 6.5 -17t6.5 -18t-2 -17q-7 -15 -24 -39.5t-26 -44.5 q-4 -10 -14.5 -23t-23.5 -26t-15 -16l-6 -8l-12 -21q-10 -18 -2 -55l4 -16l4 -11l20 -47l11 -18q36 -39 57 -113l12 -26q9 -14 19 -17t28 2q18 4 41 27q18 17 43 64t39 63l48 96t55 109q6 10 8 13t9 7t13 -2q15 -8 15 -22q0 -10 -7 -23q-11 -21 -52 -103.5t-75 -144 t-61 -94.5q-34 -46 -82 -49l-14 -8q-31 -18 -58 6l-12 12q-60 7 -127 74l-49 47l-10 -8q-8 -27 -21 -35q-3 -6 -9.5 -22t-12.5 -28t-12 -18q-2 -4 -9.5 -22.5t-9.5 -22.5q-3 -6 -9 -16.5t-8.5 -14t-7 -9.5t-8.5 -8.5t-10 -4.5q0 2 -6 3t-12.5 4t-8.5 7q-4 5 -4 15 q0 24 29 75q17 36 45 86q5 8 11.5 21.5t11.5 21.5q13 23 4 35q-38 53 -49 72l-9 16l-10 15q-5 4 -8.5 11t-7 18t-8.5 20l-39 71q-3 5 -8 12.5l-6 9t-3.5 7t-2.5 7t-2.5 9t-3 12t-3.5 17.5t-6 25z" />
<glyph unicode="y" horiz-adv-x="747" d="M-41 797q8 4 14 10q22 25 74 29h6q7 0 15 -2q10 -2 22 -6t19 -5q28 -6 55 -24q45 -29 63 -76q43 -109 49 -209q3 -6 3 -14q3 -10 12 -2l14 14q19 28 43 70q3 9 12 18q-13 13 2 35q35 48 50 80q7 16 34 24l56 19q39 9 47 -29q2 -20 2.5 -24.5t-2 -24.5t-2.5 -25 q-22 -169 -22 -232q0 -10 1 -17q18 20 55.5 56t53.5 56q29 39 78 78q7 2 43 30.5t39 30.5q24 3 24 -18q-5 -18 -74 -78q-7 -7 -10 -16q-7 -6 -20.5 -19.5t-20.5 -19.5q-13 -9 -26 -20.5t-22.5 -20.5t-23 -24t-20 -22.5t-21 -26t-18.5 -23.5t-20.5 -27t-18.5 -25 q-20 -28 -30 -75q-6 -24 -4.5 -27t-0.5 -27q-1 -13 -6.5 -34.5t-7.5 -32.5q-16 -108 -49 -244q-24 -85 -64 -164q-27 -49 -53 -84q-17 -19 -37 -19q-18 0 -39 15q-16 10 -38 41q-3 5 -12 19t-13 21.5t-8.5 20.5t-5.5 25q0 36 10 84q1 6 12 45q2 14 7 29.5t9 24.5t13 28 t12 25q22 46 71 128.5t68 119.5q40 79 50 204q0 7 3 21.5t3 21.5q1 18 -5 15q-4 -2 -16 -17q-30 -37 -35 -57q0 -2 -2 -4q-32 -38 -80 -121q-14 -23 -57 -23q-18 1 -25 5t-15 11.5t-23 12.5q-33 12 -47 51q-57 125 -82 219q-8 27 -27 125q-12 68 -41 97zM228 -190 q-1 -6 -1 -11t1 -9q0 -7 1.5 -20.5t1.5 -19.5q0 -12 6 -12q4 0 11 6q16 13 22 31q2 5 10 24.5t13 28.5q31 73 37 98q9 29 22.5 89.5t22.5 90.5q2 8 2 14q0 9 -4 17q-76 -111 -94 -149q-2 -4 -6.5 -10.5t-7 -12.5t-3.5 -12q-25 -103 -31 -123q-3 -9 -3 -20z" />
<glyph unicode="z" horiz-adv-x="610" d="M-74 647q0 10 11 10q40 16 69 23q20 3 31 14q10 7 46 34t56 40q30 22 82 53q17 12 49 28t45 25q14 10 29 10q13 0 27 -7q30 -16 30 -48v-11q0 -57 -28 -95q-20 -30 -29 -64q-3 -12 -22 -45q-10 -18 -28 -51t-34.5 -60.5t-32.5 -51.5v-9q3 -4 12 -4h11h29q12 0 32.5 -3.5 t24.5 -8.5q6 -2 18.5 -8t18.5 -8q15 0 22 -7h2q14 -5 17 -10q12 -6 16 -6q7 7 24.5 27.5t28.5 29.5q5 12 20.5 29t16.5 19q19 25 32.5 41.5t35.5 40t35 38.5q26 30 77 37q14 0 17 -6q1 -2 1 -5q0 -5 -3 -11q-13 -14 -43 -41q-29 -24 -57.5 -59t-45.5 -52l-20 -20 q-8 -26 -29 -29q-28 -35 -39 -64q-1 -2 -5.5 -7t-7.5 -9.5t-2 -13t9 -17.5q10 -16 12 -31t-0.5 -36t-1.5 -33q0 -21 9 -86q1 -12 1 -24q0 -39 -12 -82q-33 -92 -47 -140q0 -6 -6 -12q-15 -20 -36.5 -73.5t-49.5 -76.5q-18 -15 -25 -28q-14 -28 -47 -53q-13 -9 -35.5 -29 t-31.5 -27q-29 -21 -64 -21q-9 0 -18 1q-45 7 -72 43q-9 12 -15.5 26.5t-15 38.5t-10.5 29q-4 15 6 25q15 27 38 76.5t32 66.5q5 9 14.5 29.5t14.5 29.5q50 103 123 185q13 13 16 32q13 92 13 143q0 15 -1 27h-10q-57 0 -127 -53q-25 -20 -36.5 -19.5t-31.5 25.5q-1 2 -4 6 t-5.5 7.5t-4.5 7.5q-10 14 -5 41.5t19 38.5q4 2 13 1q19 -5 30 17l17 29q15 45 45 96q9 17 -10 20q-22 0 -72 13q-27 4 -31 20q0 12 -14 19q-28 17 -102 55q-11 4 -11 8zM86 -307q-4 -9 -4 -15q0 -13 14 -20q6 -2 12 -2q13 0 23 12q16 26 16 27q3 5 11.5 20t12 21t11 19.5 t11 22.5t8 21t7 23.5t3.5 23.5q4 39 20 99v35q-4 15 -10 15q-5 0 -12 -11q-2 -18 -22 -42.5t-23 -29.5q-12 -20 -30 -65t-32 -68q-2 -4 -3 -10.5t-1.5 -14.5t-1.5 -12q-1 -5 -4 -22.5t-6 -26.5z" />
<glyph unicode="&#xa1;" horiz-adv-x="667" d="M186 -215q2 8 2 33q3 60 -1.5 201t1.5 202q12 118 37 182q31 80 82 121q25 25 25 49q0 21 24 25q8 4 29 4q16 -3 23 -9t10 -20q2 -15 9 -39.5l9 -31.5q9 -37 6 -76q-13 -106 -6 -152q8 -31 8 -67q0 -96 7 -158q2 -20 7 -57t8 -68.5t3 -60.5q0 -6 4 -17t4 -12v-10 q-2 -32 25 -66q27 -48 20 -88v-4q-2 -6 -10 -18q-13 -17 -23 -23q-57 -35 -106 -4q-3 3 -13.5 6t-13.5 4q-78 24 -110 60q-10 7 -45 47q-20 20 -15 47zM246 857.5q6 31.5 18 35.5q14 4 38 18t26 15q49 19 94 -12.5t45 -84.5q-9 -119 -117 -116h-2q-49 0 -61 37 q-22 50 -39 67q-8 9 -2 40.5z" />
<glyph unicode="&#xad;" horiz-adv-x="817" d="M164 627q0 21 20 30q31 9 52 -2q22 -19 53 -12q32 4 113.5 2t113.5 -6q23 -4 64 2q4 1 11 3.5t11 2.5q2 -1 33 -6q23 -8 18 -29q-1 -2 -4.5 -13.5t-4.5 -15.5t-4.5 -15t-6 -16.5t-6.5 -15t-8 -15t-8.5 -12.5t-9.5 -12.5t-11 -9.5q-27 -21 -60 -8q-15 7 -22 4 q-17 -2 -116.5 -2t-119.5 -2h-18q-39 0 -51 -28q-9 -5 -13 -2q2 11 1.5 16t-3.5 15.5t-4 15.5q-6 18 -20 131z" />
<glyph unicode="&#xbf;" horiz-adv-x="960" d="M188 -141q-13 77 17 133v18q-6 12 -6 29q12 30 37.5 61.5t46.5 50.5t61 51t53 44q74 71 68 164q-1 11 -5 33t-5 34q-11 48 0 74q45 33 82 -19q21 -34 32 -106q3 -25 11.5 -69t11.5 -64q15 -89 -31 -168q-27 -46 -94 -188q-28 -63 -16 -125q7 -15 4 -31q-6 -74 65 -96 q33 -11 47 -17q46 -15 78 17q4 4 16.5 18t17 19.5t14.5 17.5t15 20t11 20t10 23q33 89 -41 136q-2 3 -7 7t-7 7q-32 22 -33.5 34t23.5 46q25 35 40.5 36.5t47.5 -28.5q87 -78 55 -211q-14 -69 -80 -162q-39 -67 -139 -96q-54 -14 -142 16q-8 2 -30.5 10.5t-36.5 10.5 q-2 1 -11 7t-14 11q-63 10 -105 56.5t-48 109.5q-1 11 -6.5 32.5t-6.5 33.5zM381 764q-4 22 8 45q1 2 8 16.5t9 22.5q27 55 67 37q20 -6 45 -2q31 -10 41 -23q7 -8 14.5 -30.5t14.5 -28.5q0 -15 2 -21q0 -24 -10 -39q-3 -7 -11 -16.5t-10 -13.5q-5 -17 -16 -23.5t-27 -8.5 t-22 -5q-28 -4 -35 -4q-61 12 -78 94z" />
<glyph unicode="&#xc0;" horiz-adv-x="757" d="M2.5 443q0.5 14 2 39.5t1.5 27.5q2 67 49 166q28 59 121 160l16 16q15 16 21 27q2 6 7.5 8t10.5 -2q9 -7 32 -11.5t26 -5.5q13 -4 32 -5t33 -9q3 -1 18.5 -7t24.5 -11q52 -22 72 -70q8 -21 -12 -35q-3 -2 -21 -20q-5 -4 -27.5 -14t-29.5 -15q-26 -15 -33 -39 q0 -1 -10 -16q-6 -3 -10 -11q-22 -42 -50 -57l-4 -4q-3 -17 -20.5 -44t-20.5 -44q0 -1 -1 -3t-1 -3q-8 -9 -13.5 -21.5t-8 -21.5t-5.5 -25.5t-5 -23.5q-9 -45 45 -103q16 -19 37 -6q12 6 22 14.5t23 23t16 17.5q12 12 23.5 29t17.5 27t19 33.5t16 29.5q8 24 8 37 q-1 28 4 74.5t6 60.5q0 9 6 15t15 6q16 2 47 2q11 0 14.5 -4.5t3.5 -14.5l-6 -22q-6 -4 -10 -17q0 -15 -1 -41t-1 -41q0 -6 -2 -10q0 -12 2 -20q0 -9 7.5 -27.5t8.5 -28.5q-3 -77 72 -94q24 -5 55 13q3 2 11 6.5t13.5 8.5t6.5 7q0 1 31.5 49t37.5 64q8 20 22.5 48.5t24.5 54 t15 58.5q7 35 35 13q10 -8 14 -16t3.5 -12.5t-3.5 -13t-4 -11.5q-9 -35 -22 -66.5t-22 -47.5t-23.5 -40t-18.5 -31q-17 -33 -40.5 -65.5t-35.5 -40.5q-32 -18 -39 -33q-4 -6 -27.5 -11.5t-31.5 -2.5q-3 1 -15.5 3.5t-21 4.5t-18.5 6t-15 8q-42 29 -55 53q0 1 -1 2t-1 2 q-10 15 -13.5 17t-11.5 -4q-7 -2 -12 -13q-34 -83 -147 -131q-9 0 -13 2q-53 15 -90 17q-68 8 -123 63q-17 17 -28 40.5t-16.5 43t-7 47.5t-1 42zM160 1153q8 7 22.5 17.5t25.5 20t19 21.5q32 11 111 11q6 -1 10 -1.5t6 -1.5t4 -3.5t3 -4t3 -5.5t3 -7q51 -93 65 -139l14 -25 q14 -14 -6 -26q-46 -25 -90 -4q-53 26 -92 65q-65 65 -90 72q-2 1 -5 5z" />
<glyph unicode="&#xc1;" horiz-adv-x="757" d="M2.5 443q0.5 14 2 39.5t1.5 27.5q2 67 49 166q28 59 121 160l16 16q15 16 21 27q2 6 7.5 8t10.5 -2q9 -7 32 -11.5t26 -5.5q13 -4 32 -5t33 -9q3 -1 18.5 -7t24.5 -11q52 -22 72 -70q8 -21 -12 -35q-3 -2 -21 -20q-5 -4 -27.5 -14t-29.5 -15q-26 -15 -33 -39 q0 -1 -10 -16q-6 -3 -10 -11q-22 -42 -50 -57l-4 -4q-3 -17 -20.5 -44t-20.5 -44q0 -1 -1 -3t-1 -3q-8 -9 -13.5 -21.5t-8 -21.5t-5.5 -25.5t-5 -23.5q-9 -45 45 -103q16 -19 37 -6q12 6 22 14.5t23 23t16 17.5q12 12 23.5 29t17.5 27t19 33.5t16 29.5q8 24 8 37 q-1 28 4 74.5t6 60.5q0 9 6 15t15 6q16 2 47 2q11 0 14.5 -4.5t3.5 -14.5l-6 -22q-6 -4 -10 -17q0 -15 -1 -41t-1 -41q0 -6 -2 -10q0 -12 2 -20q0 -9 7.5 -27.5t8.5 -28.5q-3 -77 72 -94q24 -5 55 13q3 2 11 6.5t13.5 8.5t6.5 7q0 1 31.5 49t37.5 64q8 20 22.5 48.5t24.5 54 t15 58.5q7 35 35 13q10 -8 14 -16t3.5 -12.5t-3.5 -13t-4 -11.5q-9 -35 -22 -66.5t-22 -47.5t-23.5 -40t-18.5 -31q-17 -33 -40.5 -65.5t-35.5 -40.5q-32 -18 -39 -33q-4 -6 -27.5 -11.5t-31.5 -2.5q-3 1 -15.5 3.5t-21 4.5t-18.5 6t-15 8q-42 29 -55 53q0 1 -1 2t-1 2 q-10 15 -13.5 17t-11.5 -4q-7 -2 -12 -13q-34 -83 -147 -131q-9 0 -13 2q-53 15 -90 17q-68 8 -123 63q-17 17 -28 40.5t-16.5 43t-7 47.5t-1 42zM244 987v6q28 34 39 111q1 6 4.5 13.5t11 17t13 15.5t14.5 16.5t10 11.5q14 24 16 28q22 22 15 45q7 2 16.5 -1t11.5 -3 q8 -11 26 -26t23 -21q11 -12 41 -70q5 -11 0 -16q-16 -40 -36 -53q-15 -12 -52 -49q-47 -49 -116 -43q-25 0 -37 18z" />
<glyph unicode="&#xc2;" horiz-adv-x="757" d="M2.5 443q0.5 14 2 39.5t1.5 27.5q2 67 49 166q28 59 121 160l16 16q15 16 21 27q2 6 7.5 8t10.5 -2q9 -7 32 -11.5t26 -5.5q13 -4 32 -5t33 -9q3 -1 18.5 -7t24.5 -11q52 -22 72 -70q8 -21 -12 -35q-3 -2 -21 -20q-5 -4 -27.5 -14t-29.5 -15q-26 -15 -33 -39 q0 -1 -10 -16q-6 -3 -10 -11q-22 -42 -50 -57l-4 -4q-3 -17 -20.5 -44t-20.5 -44q0 -1 -1 -3t-1 -3q-8 -9 -13.5 -21.5t-8 -21.5t-5.5 -25.5t-5 -23.5q-9 -45 45 -103q16 -19 37 -6q12 6 22 14.5t23 23t16 17.5q12 12 23.5 29t17.5 27t19 33.5t16 29.5q8 24 8 37 q-1 28 4 74.5t6 60.5q0 9 6 15t15 6q16 2 47 2q11 0 14.5 -4.5t3.5 -14.5l-6 -22q-6 -4 -10 -17q0 -15 -1 -41t-1 -41q0 -6 -2 -10q0 -12 2 -20q0 -9 7.5 -27.5t8.5 -28.5q-3 -77 72 -94q24 -5 55 13q3 2 11 6.5t13.5 8.5t6.5 7q0 1 31.5 49t37.5 64q8 20 22.5 48.5t24.5 54 t15 58.5q7 35 35 13q10 -8 14 -16t3.5 -12.5t-3.5 -13t-4 -11.5q-9 -35 -22 -66.5t-22 -47.5t-23.5 -40t-18.5 -31q-17 -33 -40.5 -65.5t-35.5 -40.5q-32 -18 -39 -33q-4 -6 -27.5 -11.5t-31.5 -2.5q-3 1 -15.5 3.5t-21 4.5t-18.5 6t-15 8q-42 29 -55 53q0 1 -1 2t-1 2 q-10 15 -13.5 17t-11.5 -4q-7 -2 -12 -13q-34 -83 -147 -131q-9 0 -13 2q-53 15 -90 17q-68 8 -123 63q-17 17 -28 40.5t-16.5 43t-7 47.5t-1 42zM131 1075q0 38 25 49q20 8 32 35q11 27 39 55q20 24 21 33q3 13 20 10l43 -6q46 -8 66 -4q20 8 26 -8q3 -12 11 -22t20 -20 t17 -17q45 -48 53 -97q0 -6 5.5 -16t6.5 -12q4 -12 4 -15q0 -16 -8 -18q-10 -4 -18 8q-29 33 -64 88q-18 24 -22 27q-17 17 -31 -2q-15 -18 -21 -31q-14 -28 -55.5 -71.5t-54.5 -65.5q-16 -19 -43 -4q-69 38 -72 104z" />
<glyph unicode="&#xc3;" horiz-adv-x="757" d="M2.5 443q0.5 14 2 39.5t1.5 27.5q2 67 49 166q28 59 121 160l16 16q15 16 21 27q2 6 7.5 8t10.5 -2q9 -7 32 -11.5t26 -5.5q13 -4 32 -5t33 -9q3 -1 18.5 -7t24.5 -11q52 -22 72 -70q8 -21 -12 -35q-3 -2 -21 -20q-5 -4 -27.5 -14t-29.5 -15q-26 -15 -33 -39 q0 -1 -10 -16q-6 -3 -10 -11q-22 -42 -50 -57l-4 -4q-3 -17 -20.5 -44t-20.5 -44q0 -1 -1 -3t-1 -3q-8 -9 -13.5 -21.5t-8 -21.5t-5.5 -25.5t-5 -23.5q-9 -45 45 -103q16 -19 37 -6q12 6 22 14.5t23 23t16 17.5q12 12 23.5 29t17.5 27t19 33.5t16 29.5q8 24 8 37 q-1 28 4 74.5t6 60.5q0 9 6 15t15 6q16 2 47 2q11 0 14.5 -4.5t3.5 -14.5l-6 -22q-6 -4 -10 -17q0 -15 -1 -41t-1 -41q0 -6 -2 -10q0 -12 2 -20q0 -9 7.5 -27.5t8.5 -28.5q-3 -77 72 -94q24 -5 55 13q3 2 11 6.5t13.5 8.5t6.5 7q0 1 31.5 49t37.5 64q8 20 22.5 48.5t24.5 54 t15 58.5q7 35 35 13q10 -8 14 -16t3.5 -12.5t-3.5 -13t-4 -11.5q-9 -35 -22 -66.5t-22 -47.5t-23.5 -40t-18.5 -31q-17 -33 -40.5 -65.5t-35.5 -40.5q-32 -18 -39 -33q-4 -6 -27.5 -11.5t-31.5 -2.5q-3 1 -15.5 3.5t-21 4.5t-18.5 6t-15 8q-42 29 -55 53q0 1 -1 2t-1 2 q-10 15 -13.5 17t-11.5 -4q-7 -2 -12 -13q-34 -83 -147 -131q-9 0 -13 2q-53 15 -90 17q-68 8 -123 63q-17 17 -28 40.5t-16.5 43t-7 47.5t-1 42zM96 1063q2 15 10.5 35t18.5 24q7 3 19 28.5t16 29.5q42 51 110 45q25 2 47 -8t42 -33t30.5 -39t28.5 -45q8 -16 22 -37 q16 -16 29 0q20 20 20 47q-3 18 0 33q2 12 13 21.5t24 9.5q19 -2 23 -29q4 -32 -8 -90q0 -10 -13 -19q-5 -3 -16.5 -10.5t-18.5 -12t-17.5 -9t-20.5 -5.5q-45 -7 -82 15q-3 1 -41 18q-37 12 -68 43q-22 21 -31 19.5t-26 -31.5q-25 -43 -39 -53q-19 -17 -36.5 -14t-27.5 26 q-10 22 -8 41z" />
<glyph unicode="&#xc4;" horiz-adv-x="757" d="M2.5 443q0.5 14 2 39.5t1.5 27.5q2 67 49 166q28 59 121 160l16 16q15 16 21 27q2 6 7.5 8t10.5 -2q9 -7 32 -11.5t26 -5.5q13 -4 32 -5t33 -9q3 -1 18.5 -7t24.5 -11q52 -22 72 -70q8 -21 -12 -35q-3 -2 -21 -20q-5 -4 -27.5 -14t-29.5 -15q-26 -15 -33 -39 q0 -1 -10 -16q-6 -3 -10 -11q-22 -42 -50 -57l-4 -4q-3 -17 -20.5 -44t-20.5 -44q0 -1 -1 -3t-1 -3q-8 -9 -13.5 -21.5t-8 -21.5t-5.5 -25.5t-5 -23.5q-9 -45 45 -103q16 -19 37 -6q12 6 22 14.5t23 23t16 17.5q12 12 23.5 29t17.5 27t19 33.5t16 29.5q8 24 8 37 q-1 28 4 74.5t6 60.5q0 9 6 15t15 6q16 2 47 2q11 0 14.5 -4.5t3.5 -14.5l-6 -22q-6 -4 -10 -17q0 -15 -1 -41t-1 -41q0 -6 -2 -10q0 -12 2 -20q0 -9 7.5 -27.5t8.5 -28.5q-3 -77 72 -94q24 -5 55 13q3 2 11 6.5t13.5 8.5t6.5 7q0 1 31.5 49t37.5 64q8 20 22.5 48.5t24.5 54 t15 58.5q7 35 35 13q10 -8 14 -16t3.5 -12.5t-3.5 -13t-4 -11.5q-9 -35 -22 -66.5t-22 -47.5t-23.5 -40t-18.5 -31q-17 -33 -40.5 -65.5t-35.5 -40.5q-32 -18 -39 -33q-4 -6 -27.5 -11.5t-31.5 -2.5q-3 1 -15.5 3.5t-21 4.5t-18.5 6t-15 8q-42 29 -55 53q0 1 -1 2t-1 2 q-10 15 -13.5 17t-11.5 -4q-7 -2 -12 -13q-34 -83 -147 -131q-9 0 -13 2q-53 15 -90 17q-68 8 -123 63q-17 17 -28 40.5t-16.5 43t-7 47.5t-1 42zM79.5 1067.5q-0.5 6.5 0 11t2 15.5t2.5 18l10 37l39 25q25 19 64 10q48 -21 92 -86q17 -33 -6 -56q-13 -17 -32 -26t-33 -10.5 t-38 -1.5q-32 0 -34 1q-3 2 -1 5q0 3 -5 6t-10.5 5t-6.5 3q-1 0 -15 11.5t-16 13.5q-6 4 -9 8t-3.5 10.5zM389 1055q-8 21 0 39q20 39 23 51q9 37 49 43q40 10 53 10q44 0 57 -39l7 -35q15 -49 -27 -82q-20 -14 -51 -28q-25 -21 -63.5 -7.5t-47.5 48.5z" />
<glyph unicode="&#xc5;" horiz-adv-x="757" d="M2.5 443q0.5 14 2 39.5t1.5 27.5q2 67 49 166q28 59 121 160l16 16q15 16 21 27q2 6 7.5 8t10.5 -2q9 -7 32 -11.5t26 -5.5q13 -4 32 -5t33 -9q3 -1 18.5 -7t24.5 -11q52 -22 72 -70q8 -21 -12 -35q-3 -2 -21 -20q-5 -4 -27.5 -14t-29.5 -15q-26 -15 -33 -39 q0 -1 -10 -16q-6 -3 -10 -11q-22 -42 -50 -57l-4 -4q-3 -17 -20.5 -44t-20.5 -44q0 -1 -1 -3t-1 -3q-8 -9 -13.5 -21.5t-8 -21.5t-5.5 -25.5t-5 -23.5q-9 -45 45 -103q16 -19 37 -6q12 6 22 14.5t23 23t16 17.5q12 12 23.5 29t17.5 27t19 33.5t16 29.5q8 24 8 37 q-1 28 4 74.5t6 60.5q0 9 6 15t15 6q16 2 47 2q11 0 14.5 -4.5t3.5 -14.5l-6 -22q-6 -4 -10 -17q0 -15 -1 -41t-1 -41q0 -6 -2 -10q0 -12 2 -20q0 -9 7.5 -27.5t8.5 -28.5q-3 -77 72 -94q24 -5 55 13q3 2 11 6.5t13.5 8.5t6.5 7q0 1 31.5 49t37.5 64q8 20 22.5 48.5t24.5 54 t15 58.5q7 35 35 13q10 -8 14 -16t3.5 -12.5t-3.5 -13t-4 -11.5q-9 -35 -22 -66.5t-22 -47.5t-23.5 -40t-18.5 -31q-17 -33 -40.5 -65.5t-35.5 -40.5q-32 -18 -39 -33q-4 -6 -27.5 -11.5t-31.5 -2.5q-3 1 -15.5 3.5t-21 4.5t-18.5 6t-15 8q-42 29 -55 53q0 1 -1 2t-1 2 q-10 15 -13.5 17t-11.5 -4q-7 -2 -12 -13q-34 -83 -147 -131q-9 0 -13 2q-53 15 -90 17q-68 8 -123 63q-17 17 -28 40.5t-16.5 43t-7 47.5t-1 42zM174 1100q-7 29 2.5 53.5t32.5 56.5q4 5 18 19.5t21 23.5q12 24 45 21q4 -1 16 -3.5t16 -3t14 -3t14.5 -4.5t12 -5t13 -7 t10.5 -9q25 -21 41 -25q32 -10 25 -40q-3 -18 10 -76q4 -7 4.5 -15.5t-1 -15.5t-4 -18.5t-3.5 -18.5l-2 -8q-3 -34 -27 -52t-67 -30q-13 -3 -29 0q-71 20 -112 58t-50 102zM278.5 1045q1.5 -28 26.5 -50q36 -26 66 -2q28 17 35 60q8 16 4 67q-3 15 -11 19t-28 -2 q-8 -2 -15 -5t-11.5 -5.5t-12 -8t-10 -7.5t-11 -9.5t-10.5 -9.5q-24 -19 -22.5 -47z" />
<glyph unicode="&#xc6;" horiz-adv-x="991" d="M2.5 449q0.5 14 2 39.5t1.5 27.5q2 67 49 166q28 59 121 160q28 33 53 39t60 -7q11 -3 18 -4t11.5 -2.5t15.5 -7.5q7 -3 10.5 -8.5t11.5 -9.5q52 -22 72 -70q8 -21 -12 -35q-3 -2 -21 -20q-34 -27 -37 -29q-6 -3 -37.5 -59.5t-44.5 -63.5l-4 -4q-3 -17 -20.5 -44 t-20.5 -44q0 -1 -1 -3t-1 -3q-8 -9 -13.5 -21.5t-8 -21.5t-5.5 -25.5t-5 -23.5q-9 -45 45 -103q16 -19 37 -6q12 6 22.5 15t22.5 23t16 18q12 12 24 29.5t17 25.5t19.5 34.5t15.5 28.5q8 24 8 37q0 33 2 47q0 57 29 146q19 58 67 118q45 57 81.5 83t63 26.5t58.5 -0.5 q36 -3 37 -2h12q34 0 53 -31q8 -16 10.5 -22.5t7 -20.5t4 -26t-4.5 -25q-4 -18 -9.5 -52t-9.5 -52q-3 -29 -16 -45q-19 -25 -49 -80.5t-49 -81.5q-22 -45 -21 -53q3 -23 29 -76q18 -18 45 -6q63 26 114 74t99 149q10 33 33 63q8 10 16 35q5 18 11 21t20 -9q1 -1 4 -3.5t4 -4 t2.5 -5.5t0 -10.5t-4.5 -15.5q-10 -24 -19 -43t-11.5 -24t-2.5 -8q-32 -87 -113.5 -176t-146.5 -111q-51 -7 -53 -8q-8 0 -10 -2q-9 0 -25.5 -3t-26 -3.5t-26.5 4.5q-7 2 -20 5t-19 5q-56 4 -68 14q-41 29 -55 54q0 1 -1 2t-1 2q-10 14 -13.5 16.5t-11.5 -4.5q-7 -2 -12 -12 q-34 -83 -147 -131q-9 0 -13 2q-48 13 -90 16q-68 8 -123 63q-17 17 -28 40.5t-16.5 43t-7 47.5t-1 42zM674 631q-1 -6 6.5 -46.5t7.5 -45.5q0 -17 17 1q11 12 16 25q3 8 9.5 25t10 26t9.5 25.5t8.5 27t6 26t4.5 27.5t1 26.5t-2 27.5q-5 13 -16.5 14t-20 -6t-6.5 -12 q-21 -34 -25 -47q-22 -46 -22 -80q0 -3 -2 -7.5t-2 -6.5z" />
<glyph unicode="&#xc7;" horiz-adv-x="632" d="M0 485q-2 27 12 101q28 129 92 211q11 11 29 18q21 9 39 21q41 28 70 24q4 0 6 2q7 4 14 6.5t12 3t13.5 -1t12 -2.5t13.5 -4t13 -4q43 -11 108 -53q11 -8 29 -12q32 -10 29 -31q0 -14 -10 -25t-23 -12q-8 -2 -29 -2t-57 -16q-35 -17 -53.5 -31t-24.5 -22t-18.5 -34.5 t-24.5 -46.5q-8 -13 -22.5 -38t-22.5 -37q-8 -11 -10 -31q-17 -116 0 -154q7 -15 13.5 -24t19.5 -20.5t14 -12.5q1 -3 8 -6q0 -4 8 -8q25 -12 50 -12t42.5 4.5t42.5 23.5t36 29t37.5 38t33.5 35q38 38 82 104.5t69 119.5q13 28 21 34t20 -2q20 -13 20.5 -26.5t-9.5 -26.5 q-10 -21 -28 -47.5t-36 -51t-23 -32.5q-10 -14 -27.5 -40.5t-31.5 -44.5t-33 -38q-4 -4 -24 -35t-35 -36q-31 -10 -51.5 -19.5t-28.5 -11.5q-1 -3 -2 -9.5t-2 -9.5q0 -1 -3 -26t-7 -29q-4 -22 12 -29q38 -25 51 -63t15 -92q0 -16 -7.5 -31.5t-15 -24.5t-22.5 -24 q-43 -37 -93 -37q-11 2 -49 -8q-2 1 -7.5 2t-8.5 2q-31 18 -82 35q-24 9 -33 47v12q0 6 17 6l30 -6q14 -4 28.5 -4.5t31.5 3t26.5 6t30 9.5t25.5 9q27 11 49 33q18 25 18 53q0 18 -11.5 35t-27.5 10q-19 -3 -39 -23q-4 -2 -11 -8.5t-13 -9.5q-4 -2 -43 -8h-15l-2 4 q-16 19 2 35q24 12 27 38l10 64v14q-31 0 -73 11q-14 5 -23.5 13.5t-24.5 12.5q-27 9 -49 31q-51 49 -70 100t-26 133z" />
<glyph unicode="&#xc8;" horiz-adv-x="552" d="M-8 418q-20 96 22 217q6 20 15.5 37t28.5 45.5t24 36.5q44 67 78.5 93t66.5 23t78 -8q2 0 8.5 -1.5t8.5 -0.5h12q34 0 53 -31q28 -58 16 -94q-4 -18 -9 -52t-9 -52q-3 -29 -16 -45q-19 -26 -49 -81t-50 -81q-22 -43 -20 -53q3 -23 29 -76q18 -18 45 -6q63 26 114 74 t99 149q11 36 32 63q14 19 17 33q5 18 10.5 22t19.5 -7q2 -2 6 -5t5 -4.5t2 -5.5t-0.5 -9t-5.5 -13q-33 -61 -33 -78q-32 -87 -113.5 -176t-146.5 -111q-52 -7 -54 -8q-8 0 -10 -2q-9 0 -25.5 -3t-26 -3.5t-26.5 4.5q-4 1 -27 6t-39.5 12t-33.5 19q-82 63 -96 172zM98 1161 q7 6 22.5 17t26.5 21t19 22q29 10 110 10q6 -1 10 -1.5t6 -1.5t4 -3.5t3 -4t3 -5.5t3 -7q54 -96 66 -139l14 -25q14 -14 -6 -26q-46 -25 -90 -4q-53 26 -92 65q-65 65 -91 72q-2 1 -5 5zM233 596q-1 -6 7 -46.5t8 -45.5q0 -17 17 1q11 12 16 25q4 9 11.5 28t11.5 30.5t10 29 t9 31.5t6 30t2.5 31.5t-3.5 30.5q-3 14 -14.5 15t-21 -6.5t-7.5 -12.5q-21 -34 -25 -47q-22 -46 -22 -80q0 -3 -2.5 -7.5t-2.5 -6.5z" />
<glyph unicode="&#xc9;" horiz-adv-x="552" d="M-8 418q-20 96 22 217q6 20 15.5 37t28.5 45.5t24 36.5q44 67 78.5 93t66.5 23t78 -8q2 0 8.5 -1.5t8.5 -0.5h12q34 0 53 -31q28 -58 16 -94q-4 -18 -9 -52t-9 -52q-3 -29 -16 -45q-19 -26 -49 -81t-50 -81q-22 -43 -20 -53q3 -23 29 -76q18 -18 45 -6q63 26 114 74 t99 149q11 36 32 63q14 19 17 33q5 18 10.5 22t19.5 -7q2 -2 6 -5t5 -4.5t2 -5.5t-0.5 -9t-5.5 -13q-33 -61 -33 -78q-32 -87 -113.5 -176t-146.5 -111q-52 -7 -54 -8q-8 0 -10 -2q-9 0 -25.5 -3t-26 -3.5t-26.5 4.5q-4 1 -27 6t-39.5 12t-33.5 19q-82 63 -96 172zM182 995 v6q28 34 39 111q1 6 4.5 13.5t11 17t13 15.5t14.5 16.5t10 11.5q2 3 6 8.5t6.5 10.5l4.5 9q22 22 14 46q7 2 17 -1.5t12 -3.5q8 -11 26 -26t23 -21q12 -13 41 -69q6 -11 0 -17q-15 -39 -37 -53q-10 -8 -51 -49q-47 -50 -117 -43q-25 0 -37 18zM233 596q-1 -6 7 -46.5 t8 -45.5q0 -17 17 1q11 12 16 25q4 9 11.5 28t11.5 30.5t10 29t9 31.5t6 30t2.5 31.5t-3.5 30.5q-3 14 -14.5 15t-21 -6.5t-7.5 -12.5q-21 -34 -25 -47q-22 -46 -22 -80q0 -3 -2.5 -7.5t-2.5 -6.5z" />
<glyph unicode="&#xca;" horiz-adv-x="552" d="M-8 418q-20 96 22 217q6 20 15.5 37t28.5 45.5t24 36.5q44 67 78.5 93t66.5 23t78 -8q2 0 8.5 -1.5t8.5 -0.5h12q34 0 53 -31q28 -58 16 -94q-4 -18 -9 -52t-9 -52q-3 -29 -16 -45q-19 -26 -49 -81t-50 -81q-22 -43 -20 -53q3 -23 29 -76q18 -18 45 -6q63 26 114 74 t99 149q11 36 32 63q14 19 17 33q5 18 10.5 22t19.5 -7q2 -2 6 -5t5 -4.5t2 -5.5t-0.5 -9t-5.5 -13q-33 -61 -33 -78q-32 -87 -113.5 -176t-146.5 -111q-52 -7 -54 -8q-8 0 -10 -2q-9 0 -25.5 -3t-26 -3.5t-26.5 4.5q-4 1 -27 6t-39.5 12t-33.5 19q-82 63 -96 172zM70 1083 q0 40 24 50q22 8 33 34q11 28 39 56q19 23 20 32q3 14 21 11l43 -6q48 -8 65 -5q21 8 27 -8q3 -12 10.5 -22t19.5 -20t17 -17q45 -49 53 -96q0 -6 6 -16.5t7 -12.5q4 -12 4 -14q0 -17 -8 -19q-11 -4 -19 8q-25 29 -63 88q-16 22 -23 27q-17 17 -31 -2q-12 -15 -20 -31 q-14 -28 -56 -71t-55 -66q-16 -19 -43 -4q-68 38 -71 104zM233 596q-1 -6 7 -46.5t8 -45.5q0 -17 17 1q11 12 16 25q4 9 11.5 28t11.5 30.5t10 29t9 31.5t6 30t2.5 31.5t-3.5 30.5q-3 14 -14.5 15t-21 -6.5t-7.5 -12.5q-21 -34 -25 -47q-22 -46 -22 -80q0 -3 -2.5 -7.5 t-2.5 -6.5z" />
<glyph unicode="&#xcb;" horiz-adv-x="552" d="M-8 418q-20 96 22 217q6 20 15.5 37t28.5 45.5t24 36.5q44 67 78.5 93t66.5 23t78 -8q2 0 8.5 -1.5t8.5 -0.5h12q34 0 53 -31q28 -58 16 -94q-4 -18 -9 -52t-9 -52q-3 -29 -16 -45q-19 -26 -49 -81t-50 -81q-22 -43 -20 -53q3 -23 29 -76q18 -18 45 -6q63 26 114 74 t99 149q11 36 32 63q14 19 17 33q5 18 10.5 22t19.5 -7q2 -2 6 -5t5 -4.5t2 -5.5t-0.5 -9t-5.5 -13q-33 -61 -33 -78q-32 -87 -113.5 -176t-146.5 -111q-52 -7 -54 -8q-8 0 -10 -2q-9 0 -25.5 -3t-26 -3.5t-26.5 4.5q-4 1 -27 6t-39.5 12t-33.5 19q-82 63 -96 172z M18.5 1075.5q-0.5 6.5 0 11t2 15.5t2.5 18l10 37l39 25q25 19 63 10q48 -21 92 -86q16 -33 -6 -55q-13 -17 -31.5 -26.5t-33 -11t-37.5 -1.5q-32 0 -34 1q-3 2 -1 5q0 3 -5 6t-11 5t-7 3q-5 0 -30 25q-6 4 -9 8t-3.5 10.5zM233 596q-1 -6 7 -46.5t8 -45.5q0 -17 17 1 q11 12 16 25q4 9 11.5 28t11.5 30.5t10 29t9 31.5t6 30t2.5 31.5t-3.5 30.5q-3 14 -14.5 15t-21 -6.5t-7.5 -12.5q-21 -34 -25 -47q-22 -46 -22 -80q0 -3 -2.5 -7.5t-2.5 -6.5zM328 1063q-8 21 0 39q17 35 22 51q9 37 49 43q40 10 54 10q44 0 57 -39l6 -34q15 -49 -27 -82 q-23 -17 -51 -29q-25 -21 -63 -7.5t-47 48.5z" />
<glyph unicode="&#xcc;" horiz-adv-x="458" d="M0 518q10 35 10 47q0 47 6 60q3 14 7.5 42.5t7.5 43.5v6.5v6v5t0.5 5t1 4.5t1.5 4.5t2.5 3.5t3.5 3.5t5 2.5q39 17 55 10q8 -3 51.5 -16t65.5 -21q27 -8 35 -16q10 -2 14 -19q0 -14 -4 -20q0 -26 -6 -60q-4 -117 -12 -172q0 -3 -6 -108q0 -43 10 -74q6 -11 13.5 -12 t19.5 4q47 39 84 94q17 26 72.5 138.5t66.5 142.5q6 13 20.5 5.5t14.5 -12.5q1 -3 -0.5 -8.5t-1.5 -7.5q-8 -26 -60.5 -136t-66.5 -130q-7 -12 -16 -23.5t-21 -24.5t-19 -22q-4 -4 -13 -20.5t-13 -20.5q-12 -15 -34.5 -27t-45.5 -12q-64 -12 -117 21q-10 8 -41 26 q-26 21 -70 80q-10 15 -10 45q0 6 -1.5 28.5t-0.5 33.5q-3 19 -8 100zM2 1044q7 6 22.5 17t26.5 21t19 22q29 10 110 10q6 -1 10 -1.5t6 -1t4 -3t3 -4t3 -6t3 -6.5q51 -91 65 -140l15 -24q15 -15 -6 -27q-46 -25 -90 -4q-53 26 -93 66q-64 64 -90 71q-2 1 -5 6z" />
<glyph unicode="&#xcd;" horiz-adv-x="458" d="M0 518q10 35 10 47q0 47 6 60q3 14 7.5 42.5t7.5 43.5v6.5v6v5t0.5 5t1 4.5t1.5 4.5t2.5 3.5t3.5 3.5t5 2.5q39 17 55 10q8 -3 51.5 -16t65.5 -21q27 -8 35 -16q10 -2 14 -19q0 -14 -4 -20q0 -26 -6 -60q-4 -117 -12 -172q0 -3 -6 -108q0 -43 10 -74q6 -11 13.5 -12 t19.5 4q47 39 84 94q17 26 72.5 138.5t66.5 142.5q6 13 20.5 5.5t14.5 -12.5q1 -3 -0.5 -8.5t-1.5 -7.5q-8 -26 -60.5 -136t-66.5 -130q-7 -12 -16 -23.5t-21 -24.5t-19 -22q-4 -4 -13 -20.5t-13 -20.5q-12 -15 -34.5 -27t-45.5 -12q-64 -12 -117 21q-10 8 -41 26 q-26 21 -70 80q-10 15 -10 45q0 6 -1.5 28.5t-0.5 33.5q-3 19 -8 100zM86 879v6q28 35 39 110q1 6 4.5 13.5t11 17t13 15.5t14.5 16.5t10 11.5q16 27 17 29q22 22 14 45q7 2 17 -1t12 -3q8 -11 26 -26t23 -21q11 -12 41 -70q5 -11 0 -16q-16 -40 -37 -54q-10 -8 -51 -49 q-47 -50 -117 -43q-24 0 -37 19z" />
<glyph unicode="&#xce;" horiz-adv-x="458" d="M-27 967q0 38 25 49q21 8 33 35q11 27 39 55q18 23 20 33q3 13 21 10l43 -6q45 -8 65 -4q20 8 27 -9q3 -12 10.5 -22t19.5 -20t17 -17q45 -49 53 -96q0 -4 2 -9t5.5 -11t4.5 -9q4 -12 4 -14q0 -17 -8 -19q-9 -4 -18 9q-29 33 -64 88q-16 21 -22 26q-17 17 -31 -2 q-13 -17 -20 -30q-14 -28 -56 -72t-55 -66q-16 -19 -43 -4q-69 38 -72 105zM0 518q10 35 10 47q0 47 6 60q3 14 7.5 42.5t7.5 43.5v6.5v6v5t0.5 5t1 4.5t1.5 4.5t2.5 3.5t3.5 3.5t5 2.5q39 17 55 10q8 -3 51.5 -16t65.5 -21q27 -8 35 -16q10 -2 14 -19q0 -14 -4 -20 q0 -26 -6 -60q-4 -117 -12 -172q0 -3 -6 -108q0 -43 10 -74q6 -11 13.5 -12t19.5 4q47 39 84 94q17 26 72.5 138.5t66.5 142.5q6 13 20.5 5.5t14.5 -12.5q1 -3 -0.5 -8.5t-1.5 -7.5q-8 -26 -60.5 -136t-66.5 -130q-7 -12 -16 -23.5t-21 -24.5t-19 -22q-4 -4 -13 -20.5 t-13 -20.5q-12 -15 -34.5 -27t-45.5 -12q-64 -12 -117 21q-10 8 -41 26q-26 21 -70 80q-10 15 -10 45q0 6 -1.5 28.5t-0.5 33.5q-3 19 -8 100z" />
<glyph unicode="&#xcf;" horiz-adv-x="458" d="M-78.5 958.5q-0.5 6.5 0 11t2 16t2.5 18.5l11 36l38 25q25 19 64 10q48 -21 92 -86q16 -33 -6 -55q-13 -17 -31.5 -26.5t-33 -11t-37.5 -1.5q-32 0 -34 1q-3 2 -1 5q0 3 -5 6t-11 5t-7 3q-1 0 -15 11.5t-16 13.5q-6 4 -9 8t-3.5 10.5zM0 518q10 35 10 47q0 47 6 60 q3 14 7.5 42.5t7.5 43.5v6.5v6v5t0.5 5t1 4.5t1.5 4.5t2.5 3.5t3.5 3.5t5 2.5q39 17 55 10q8 -3 51.5 -16t65.5 -21q27 -8 35 -16q10 -2 14 -19q0 -14 -4 -20q0 -26 -6 -60q-4 -117 -12 -172q0 -3 -6 -108q0 -43 10 -74q6 -11 13.5 -12t19.5 4q47 39 84 94q17 26 72.5 138.5 t66.5 142.5q6 13 20.5 5.5t14.5 -12.5q1 -3 -0.5 -8.5t-1.5 -7.5q-8 -26 -60.5 -136t-66.5 -130q-7 -12 -16 -23.5t-21 -24.5t-19 -22q-4 -4 -13 -20.5t-13 -20.5q-12 -15 -34.5 -27t-45.5 -12q-64 -12 -117 21q-10 8 -41 26q-26 21 -70 80q-10 15 -10 45q0 6 -1.5 28.5 t-0.5 33.5q-3 19 -8 100zM231 946q-8 21 0 39q20 39 23 51q9 37 49 43q44 11 53 11q45 0 58 -39l6 -35q15 -49 -27 -82q-23 -17 -51 -29q-25 -21 -63.5 -7.5t-47.5 48.5z" />
<glyph unicode="&#xd0;" horiz-adv-x="698" d="M0 541q-2 28 2 41q0 66 27 188q2 9 6 59q3 28 39 37q47 15 80 8q9 -2 70.5 -9.5t94.5 -18.5q69 -24 37 -70q-8 -16 -19.5 -48.5t-17.5 -45.5q-8 -17 -23.5 -44t-21.5 -40q-30 -61 -32 -102q0 -9 -4 -13q-18 -50 -9 -82q7 -32 7 -45q-5 -60 57 -125q16 -14 41 5 q12 10 17.5 22t9 32t6.5 29q3 18 14 37q6 9 21 23.5t23 33.5t13 60q7 22 9.5 60.5t5.5 54.5q4 22 5 67.5t5 67.5q0 8 -2 14q-24 145 -80 246q-22 38 -33 40t-45 -26q-26 -23 -59 -43q-10 -10 -31 -6q-44 6 -70 27q-27 27 -41 37q-29 29 2 53q2 2 9 8l10.5 9t9.5 6t12 4 q20 6 39.5 17t30 19.5t31.5 26.5q25 14 2 41q-17 15 -40 49t-32 45q-22 26 -51 43q-19 7 -35 23q-18 19 -17.5 25t19.5 20q47 33 62.5 31.5t54.5 -39.5q14 -16 74 -97q13 -19 73 -79q12 -17 20 -18.5t27 9.5q36 14 93 25q32 5 47 -8q13 -18 -4 -39q-9 -13 -34 -33t-30 -25 q-15 -18 -31 -30q-27 -15 -8 -58q62 -100 90 -215q6 -28 6 -104q-4 -165 -22 -266q-12 -49 -29 -99q-7 -18 9 -24.5t32 -1.5q9 0 15 4q50 33 77 86q2 3 50 84t65 119q3 9 5 13t7 8.5t11 2.5q14 -3 19.5 -9t2.5 -20q-14 -55 -38 -102.5t-47.5 -80t-26.5 -38.5 q-37 -58 -70 -86q-8 -7 -18.5 -13.5t-18.5 -10.5t-21.5 -11t-19.5 -10q-6 -4 -20 -4q-59 -3 -72 -37q-18 -44 -72.5 -64t-111.5 1q-62 24 -142 100q-61 56 -78 150q-2 14 -7 43t-7 43.5t-4 42.5z" />
<glyph unicode="&#xd1;" horiz-adv-x="753" d="M4 551v12q2 6 3.5 24t4.5 27q4 12 8.5 35t4.5 25q11 37 20 57q15 20 16 21q3 3 10.5 8t10.5 8q24 9 47 6q70 -11 102 -39q25 -16 31 -43q4 -36 4 -57q2 -23 2 -68q69 75 72 78q24 27 76 49l8 2q16 1 23.5 2t21.5 -3.5t20 -7t19.5 -8.5t19.5 -9q22 -11 37 -58q1 -3 2 -4 q6 -12 -2 -24q-9 -21 -12.5 -59.5t-5.5 -49.5q-1 -6 -2 -19t-2 -20q0 -13 8.5 -26.5t19.5 -16.5q21 -5 47 13q7 5 28.5 15.5t29.5 18.5q16 16 23.5 25.5t10.5 15t12.5 21t25.5 37.5q2 3 24.5 48t30.5 50q3 3 10 4t14 -4.5t7 -18.5q0 -5 -21 -47q-33 -70 -63 -110 q-33 -43 -60.5 -65t-71.5 -44q-23 -12 -65 -8q-69 13 -108.5 60t-47.5 118q-1 10 -1 21t0.5 23.5t0.5 19.5q-9 4 -18 -6q-36 -48 -64 -105q-16 -29 -41 -84.5t-36 -77.5q0 -25 -19 -59q-18 -34 -53 -23q-72 18 -123 72q-18 20 -29 70q-20 75 -10 178zM102 893q2 15 10.5 35 t18.5 24q7 3 19 28.5t16 29.5q42 51 110 45q25 2 47 -8t42 -33t30.5 -39t28.5 -45q8 -16 22 -37q16 -16 29 0q21 21 21 47q-3 18 0 33q2 12 12.5 21.5t23.5 9.5q19 -2 23 -29q4 -32 -8 -90q0 -11 -12 -19q-5 -3 -16.5 -11t-18.5 -12t-18 -8.5t-21 -5.5q-45 -7 -82 15 q-2 2 -41 18q-37 12 -68 43q-22 21 -31 19.5t-26 -31.5q-26 -43 -39 -53q-41 -37 -63 12q-11 24 -9 41z" />
<glyph unicode="&#xd2;" d="M-14 397q-39 118 0 267q10 31 20 73q8 28 6 39q0 10 11 25q10 13 24 6q4 -2 18.5 -6.5t22.5 -9.5q13 -7 39.5 -11t38.5 -10q12 -4 16 4q15 12 45 21q32 10 70.5 7t67.5 -28q2 -2 2 -4q3 -3 25 -19t28 -30q3 -10 10 -33t10 -37q3 -16 4.5 -22t7.5 -12.5t17 -6.5q61 0 92 8 q33 10 68 35q24 17 24 -6q0 -27 -18 -39q-20 -18 -60 -28q-7 -2 -24.5 -9t-37 -11.5t-42.5 -4.5q-19 0 -22 -3t-5 -22q-10 -66 -10 -67q-4 -10 -4 -31q5 -61 -51 -135q-7 -13 -25.5 -35t-25.5 -35q-16 -28 -49 -28q-120 3 -197 57q-65 43 -96 141zM55 1051q8 7 22.5 17 t26 20t19.5 22q29 10 110 10q6 -1 10 -1.5t6 -1t4 -3t3 -4t3 -6t3 -6.5q53 -95 66 -140l14 -24q15 -15 -6 -27q-46 -25 -90 -4q-51 25 -92 66q-63 63 -91 71q-2 1 -5 6zM199 322q2 -5 4 -14t4 -13q9 -23 29 -27t40 15q27 19 39 36q59 86 82 203q5 28 0.5 33.5t-37.5 13.5 l-8 2q-30 4 -82 33q-22 13 -22 -8q0 -16 -8 -44.5t-9 -39.5q-15 -82 -20 -96q-19 -42 -12 -94zM272 688q3 -19 21 -37.5t41 -25.5q36 -11 49 -11.5t16 5t2 26.5q-2 26 -17 49t-42 33q-29 11 -55 2q-18 -11 -15 -41z" />
<glyph unicode="&#xd3;" d="M-14 397q-39 118 0 267q10 31 20 73q8 28 6 39q0 10 11 25q10 13 24 6q4 -2 18.5 -6.5t22.5 -9.5q13 -7 39.5 -11t38.5 -10q12 -4 16 4q15 12 45 21q32 10 70.5 7t67.5 -28q2 -2 2 -4q3 -3 25 -19t28 -30q3 -10 10 -33t10 -37q3 -16 4.5 -22t7.5 -12.5t17 -6.5q61 0 92 8 q33 10 68 35q24 17 24 -6q0 -27 -18 -39q-20 -18 -60 -28q-7 -2 -24.5 -9t-37 -11.5t-42.5 -4.5q-19 0 -22 -3t-5 -22q-10 -66 -10 -67q-4 -10 -4 -31q5 -61 -51 -135q-7 -13 -25.5 -35t-25.5 -35q-16 -28 -49 -28q-120 3 -197 57q-65 43 -96 141zM139 885v6q28 35 39 110 q1 6 4.5 13.5t11 17t13 15.5t14.5 16.5t10 11.5q16 27 17 29q22 22 14 45q7 2 17 -1t12 -3q8 -11 26 -26t23 -21q11 -12 41 -70q5 -11 0 -16q-16 -40 -37 -54q-10 -8 -51 -49q-47 -50 -117 -43q-24 0 -37 19zM199 322q2 -5 4 -14t4 -13q9 -23 29 -27t40 15q27 19 39 36 q59 86 82 203q5 28 0.5 33.5t-37.5 13.5l-8 2q-30 4 -82 33q-22 13 -22 -8q0 -16 -8 -44.5t-9 -39.5q-15 -82 -20 -96q-19 -42 -12 -94zM272 688q3 -19 21 -37.5t41 -25.5q36 -11 49 -11.5t16 5t2 26.5q-2 26 -17 49t-42 33q-29 11 -55 2q-18 -11 -15 -41z" />
<glyph unicode="&#xd4;" d="M-14 397q-39 118 0 267q10 31 20 73q8 28 6 39q0 10 11 25q10 13 24 6q4 -2 18.5 -6.5t22.5 -9.5q13 -7 39.5 -11t38.5 -10q12 -4 16 4q15 12 45 21q32 10 70.5 7t67.5 -28q2 -2 2 -4q3 -3 25 -19t28 -30q3 -10 10 -33t10 -37q3 -16 4.5 -22t7.5 -12.5t17 -6.5q61 0 92 8 q33 10 68 35q24 17 24 -6q0 -27 -18 -39q-20 -18 -60 -28q-7 -2 -24.5 -9t-37 -11.5t-42.5 -4.5q-19 0 -22 -3t-5 -22q-10 -66 -10 -67q-4 -10 -4 -31q5 -61 -51 -135q-7 -13 -25.5 -35t-25.5 -35q-16 -28 -49 -28q-120 3 -197 57q-65 43 -96 141zM27 973q0 39 24 49 q21 8 33 35q11 27 39 55q18 23 20 33q3 13 21 10l43 -6q45 -8 65 -4q21 8 27 -8q3 -12 10.5 -22t19.5 -20.5t17 -17.5q45 -49 53 -96q0 -6 6 -16.5t7 -12.5q4 -12 4 -14q0 -16 -8 -18q-11 -4 -19 8q-25 29 -63 88q-14 19 -23 26q-17 17 -31 -2q-13 -17 -20 -30 q-14 -28 -56 -72t-55 -66q-16 -19 -43 -4q-68 38 -71 105zM199 322q2 -5 4 -14t4 -13q9 -23 29 -27t40 15q27 19 39 36q59 86 82 203q5 28 0.5 33.5t-37.5 13.5l-8 2q-30 4 -82 33q-22 13 -22 -8q0 -16 -8 -44.5t-9 -39.5q-15 -82 -20 -96q-19 -42 -12 -94zM272 688 q3 -19 21 -37.5t41 -25.5q36 -11 49 -11.5t16 5t2 26.5q-2 26 -17 49t-42 33q-29 11 -55 2q-18 -11 -15 -41z" />
<glyph unicode="&#xd5;" d="M-14 397q-39 118 0 267q10 31 20 73q8 28 6 39q0 10 11 25q10 13 24 6q4 -2 18.5 -6.5t22.5 -9.5q13 -7 39.5 -11t38.5 -10q12 -4 16 4q15 12 45 21q32 10 70.5 7t67.5 -28q2 -2 2 -4q3 -3 25 -19t28 -30q3 -10 10 -33t10 -37q3 -16 4.5 -22t7.5 -12.5t17 -6.5q61 0 92 8 q33 10 68 35q24 17 24 -6q0 -27 -18 -39q-20 -18 -60 -28q-7 -2 -24.5 -9t-37 -11.5t-42.5 -4.5q-19 0 -22 -3t-5 -22q-10 -66 -10 -67q-4 -10 -4 -31q5 -61 -51 -135q-7 -13 -25.5 -35t-25.5 -35q-16 -28 -49 -28q-120 3 -197 57q-65 43 -96 141zM-8 961q2 15 10.5 35 t17.5 24q7 3 19 28t16 29q43 51 111 45q20 2 39.5 -6t32.5 -18.5t29.5 -32t23.5 -33t22 -35.5q3 -6 23 -36q16 -16 29 0q20 20 20 47q-3 17 0 32q2 12 13 21.5t24 9.5q17 -2 22 -29q4 -32 -8 -90q0 -10 -12 -18q-5 -3 -16.5 -11t-18.5 -12t-18 -8.5t-21 -5.5q-47 -7 -82 14 q-8 5 -41 19q-35 11 -67 43q-22 22 -31.5 19.5t-26.5 -31.5q-2 -3 -8.5 -14t-9.5 -15.5t-9 -12t-12 -12.5q-19 -17 -35.5 -13.5t-27.5 26.5q-10 22 -8 41zM199 322q2 -5 4 -14t4 -13q9 -23 29 -27t40 15q27 19 39 36q59 86 82 203q5 28 0.5 33.5t-37.5 13.5l-8 2 q-30 4 -82 33q-22 13 -22 -8q0 -16 -8 -44.5t-9 -39.5q-15 -82 -20 -96q-19 -42 -12 -94zM272 688q3 -19 21 -37.5t41 -25.5q36 -11 49 -11.5t16 5t2 26.5q-2 26 -17 49t-42 33q-29 11 -55 2q-18 -11 -15 -41z" />
<glyph unicode="&#xd6;" d="M-24.5 964.5q-0.5 6.5 0 11t2 16t2.5 18.5l10 37l39 24q25 19 63 10q48 -21 92 -86q16 -33 -6 -55q-13 -17 -31.5 -26.5t-33 -11t-37.5 -1.5q-32 0 -34 1q-3 2 -1 5q0 3 -5 6t-11 5.5t-7 3.5q-1 0 -14.5 11t-15.5 13q-6 4 -9 8t-3.5 10.5zM-14 397q-39 118 0 267 q10 31 20 73q8 28 6 39q0 10 11 25q10 13 24 6q4 -2 18.5 -6.5t22.5 -9.5q13 -7 39.5 -11t38.5 -10q12 -4 16 4q15 12 45 21q32 10 70.5 7t67.5 -28q2 -2 2 -4q3 -3 25 -19t28 -30q3 -10 10 -33t10 -37q3 -16 4.5 -22t7.5 -12.5t17 -6.5q61 0 92 8q33 10 68 35q24 17 24 -6 q0 -27 -18 -39q-20 -18 -60 -28q-7 -2 -24.5 -9t-37 -11.5t-42.5 -4.5q-19 0 -22 -3t-5 -22q-10 -66 -10 -67q-4 -10 -4 -31q5 -61 -51 -135q-7 -13 -25.5 -35t-25.5 -35q-16 -28 -49 -28q-120 3 -197 57q-65 43 -96 141zM199 322q2 -5 4 -14t4 -13q9 -23 29 -27t40 15 q27 19 39 36q59 86 82 203q5 28 0.5 33.5t-37.5 13.5l-8 2q-30 4 -82 33q-22 13 -22 -8q0 -16 -8 -44.5t-9 -39.5q-15 -82 -20 -96q-19 -42 -12 -94zM272 688q3 -19 21 -37.5t41 -25.5q36 -11 49 -11.5t16 5t2 26.5q-2 26 -17 49t-42 33q-29 11 -55 2q-18 -11 -15 -41z M285 952q-8 21 0 39q17 35 22 51q9 37 49 43q44 11 54 11q44 0 57 -39l6 -35q15 -49 -27 -82q-23 -17 -51 -29q-25 -21 -63 -7.5t-47 48.5z" />
<glyph unicode="&#xd8;" d="M-14 397q-39 118 0 267q10 31 20 73q8 28 6 39q0 10 11 25q10 13 24 6q4 -2 18.5 -6.5t22.5 -9.5q13 -7 39.5 -11t38.5 -10q12 -4 16 4q15 12 45 21q32 10 70.5 7t67.5 -28q2 -2 2 -4l2 -2q1 2 8.5 17.5t9.5 23.5q3 4 5 10.5t4 14.5l3 12q-1 8 12 20t25 19q5 5 15 2 q5 -3 7 -10.5t-1 -12.5q-2 -4 -8 -25t-11 -28q-6 -15 -12.5 -31t-10 -25.5t-5.5 -15.5v-2q9 -14 10 -16q3 -10 10 -33t10 -37q3 -16 4.5 -22t7.5 -12.5t17 -6.5q61 0 92 8q33 10 68 35q24 17 24 -6q0 -27 -18 -39q-20 -18 -60 -28q-7 -2 -24.5 -9t-37 -11.5t-42.5 -4.5 q-19 0 -22 -3t-5 -22q-10 -66 -10 -67q-4 -10 -4 -31q5 -61 -51 -135q-7 -13 -25.5 -35t-25.5 -35q-16 -28 -49 -28q-47 0 -93 12q-1 -2 -2 -6t-2 -6q-3 -8 -9 -21t-9.5 -22.5t-5.5 -20.5q-1 -12 -9.5 -20.5t-19.5 -10.5h-14q-3 -1 -6.5 5.5t-5.5 14.5t-1 11q8 12 23 62 q2 5 5 15t5 15q-26 9 -53 29q-65 43 -96 141zM182 416q0 -27 11 -60l30 68q14 26 28 70.5t15 46.5q28 68 66 143q7 14 16 41q-1 0 -3 1t-3 1q-29 11 -55 2q-3 -2 -16.5 -7t-21 -12.5t-11.5 -21.5q-2 -9 -0.5 -13.5t-2.5 -18t-16 -33.5q-13 -23 -24 -105q-13 -72 -13 -102z M219 276q23 -23 57 7q27 19 39 36q63 92 82 203q3 15 -10 33.5t-8 40.5q2 8 12.5 18t9.5 31q0 22 -12 43q-4 -8 -4 -12q-53 -119 -61 -144q-17 -53 -39 -90q-4 -9 -13 -39q-5 -11 -13.5 -29.5t-15.5 -34.5t-12 -32q-1 -4 -5.5 -14.5t-6.5 -16.5z" />
<glyph unicode="&#xd9;" horiz-adv-x="665" d="M-20 631q0 32 24 143q4 20 7 27t9.5 11.5t10.5 8.5q5 10 40.5 3.5t41.5 -5.5q9 3 18 -4.5t18.5 -19.5t12.5 -15q6 -4 22 -15.5t23.5 -18t18 -18t14.5 -24.5t2 -28q-29 -148 -25 -215q12 4 23 22t22 46t12 30q14 16 34.5 99t43.5 98q23 14 62 0.5t51 -39.5 q5 -24 1.5 -51.5t-11.5 -70t-9 -52.5q0 -2 1 -18t2.5 -29t4.5 -30t9 -30.5t14 -21.5q9 -15 32.5 -4t27.5 10q2 2 17.5 16t30.5 29t35 37.5t41.5 54t40.5 66.5l1 2q11 12 26 -2q1 -1 3.5 -4t2.5 -4t0.5 -4.5t-1 -8.5t-5.5 -12q-28 -56 -87 -125.5t-85 -89.5q-31 -28 -68 -33 t-63 14q-29 21 -46.5 76t-27.5 70q-3 0 -12 -30t-20.5 -63.5t-20.5 -39.5q-1 -1 -7.5 -16t-19 -31t-30.5 -25q-3 1 -9.5 -6t-11.5 -8q-21 -4 -59 6q-15 2 -45 19.5t-23 29.5q-64 81 -89 143t-25 150zM78 1100q8 7 22.5 17.5t25.5 20t19 21.5q29 10 111 10q6 -1 10 -1.5t6 -1 t4 -3t3 -4t3 -6t3 -6.5q51 -93 65 -139l15 -25q15 -15 -7 -27q-46 -25 -90 -4q-51 25 -92 66q-65 65 -90 72q-2 1 -5 6z" />
<glyph unicode="&#xda;" horiz-adv-x="665" d="M-20 631q0 32 24 143q4 20 7 27t9.5 11.5t10.5 8.5q5 10 40.5 3.5t41.5 -5.5q9 3 18 -4.5t18.5 -19.5t12.5 -15q6 -4 22 -15.5t23.5 -18t18 -18t14.5 -24.5t2 -28q-29 -148 -25 -215q12 4 23 22t22 46t12 30q14 16 34.5 99t43.5 98q23 14 62 0.5t51 -39.5 q5 -24 1.5 -51.5t-11.5 -70t-9 -52.5q0 -2 1 -18t2.5 -29t4.5 -30t9 -30.5t14 -21.5q9 -15 32.5 -4t27.5 10q2 2 17.5 16t30.5 29t35 37.5t41.5 54t40.5 66.5l1 2q11 12 26 -2q1 -1 3.5 -4t2.5 -4t0.5 -4.5t-1 -8.5t-5.5 -12q-28 -56 -87 -125.5t-85 -89.5q-31 -28 -68 -33 t-63 14q-29 21 -46.5 76t-27.5 70q-3 0 -12 -30t-20.5 -63.5t-20.5 -39.5q-1 -1 -7.5 -16t-19 -31t-30.5 -25q-3 1 -9.5 -6t-11.5 -8q-21 -4 -59 6q-15 2 -45 19.5t-23 29.5q-64 81 -89 143t-25 150zM162 934v6q28 34 39 111q1 6 5 13.5t11 16.5t12.5 15.5t14 16t10.5 11.5 q13 22 16 29q22 23 15 45q7 2 16.5 -1t11.5 -3q8 -11 26 -26t23 -21q11 -12 41 -70q5 -11 0 -16q-16 -40 -36 -53q-10 -8 -52 -50q-47 -49 -116 -43q-24 0 -37 19z" />
<glyph unicode="&#xdb;" horiz-adv-x="665" d="M-20 631q0 32 24 143q4 20 7 27t9.5 11.5t10.5 8.5q5 10 40.5 3.5t41.5 -5.5q9 3 18 -4.5t18.5 -19.5t12.5 -15q6 -4 22 -15.5t23.5 -18t18 -18t14.5 -24.5t2 -28q-29 -148 -25 -215q12 4 23 22t22 46t12 30q14 16 34.5 99t43.5 98q23 14 62 0.5t51 -39.5 q5 -24 1.5 -51.5t-11.5 -70t-9 -52.5q0 -2 1 -18t2.5 -29t4.5 -30t9 -30.5t14 -21.5q9 -15 32.5 -4t27.5 10q2 2 17.5 16t30.5 29t35 37.5t41.5 54t40.5 66.5l1 2q11 12 26 -2q1 -1 3.5 -4t2.5 -4t0.5 -4.5t-1 -8.5t-5.5 -12q-28 -56 -87 -125.5t-85 -89.5q-31 -28 -68 -33 t-63 14q-29 21 -46.5 76t-27.5 70q-3 0 -12 -30t-20.5 -63.5t-20.5 -39.5q-1 -1 -7.5 -16t-19 -31t-30.5 -25q-3 1 -9.5 -6t-11.5 -8q-21 -4 -59 6q-15 2 -45 19.5t-23 29.5q-64 81 -89 143t-25 150zM49 1022q0 38 25 49q20 8 32 35q11 27 39 55q20 24 21 33q3 13 20 10 l43 -6q46 -8 66 -4q21 8 27 -8q3 -12 10.5 -22t19.5 -20.5t17 -17.5q45 -49 53 -96q0 -4 2 -9t5.5 -11t4.5 -9q4 -12 4 -14q0 -16 -8 -18q-10 -4 -18 8q-29 33 -64 88q-18 23 -22 27q-17 17 -31 -2q-15 -18 -21 -31q-14 -28 -55.5 -71.5t-54.5 -65.5q-16 -19 -43 -4 q-69 38 -72 104z" />
<glyph unicode="&#xdc;" horiz-adv-x="665" d="M-20 631q0 32 24 143q4 20 7 27t9.5 11.5t10.5 8.5q5 10 40.5 3.5t41.5 -5.5q9 3 18 -4.5t18.5 -19.5t12.5 -15q6 -4 22 -15.5t23.5 -18t18 -18t14.5 -24.5t2 -28q-29 -148 -25 -215q12 4 23 22t22 46t12 30q14 16 34.5 99t43.5 98q23 14 62 0.5t51 -39.5 q5 -24 1.5 -51.5t-11.5 -70t-9 -52.5q0 -2 1 -18t2.5 -29t4.5 -30t9 -30.5t14 -21.5q9 -15 32.5 -4t27.5 10q2 2 17.5 16t30.5 29t35 37.5t41.5 54t40.5 66.5l1 2q11 12 26 -2q1 -1 3.5 -4t2.5 -4t0.5 -4.5t-1 -8.5t-5.5 -12q-28 -56 -87 -125.5t-85 -89.5q-31 -28 -68 -33 t-63 14q-29 21 -46.5 76t-27.5 70q-3 0 -12 -30t-20.5 -63.5t-20.5 -39.5q-1 -1 -7.5 -16t-19 -31t-30.5 -25q-3 1 -9.5 -6t-11.5 -8q-21 -4 -59 6q-15 2 -45 19.5t-23 29.5q-64 81 -89 143t-25 150zM-2.5 1013.5q-0.5 6.5 0 11t2 16t2.5 18.5l10 37l39 24q25 19 64 10 q48 -21 92 -86q16 -33 -6 -55q-28 -39 -103 -39q-32 0 -34 1q-3 2 -1 5q0 3 -5 6t-10.5 5.5t-6.5 3.5q-1 0 -15 11t-16 13q-6 4 -9 8t-3.5 10.5zM307 1001q-8 21 0 39q19 38 23 52q9 37 49 43q40 10 53 10q44 0 57 -39l7 -35q15 -49 -27 -82q-20 -14 -51 -28 q-25 -21 -63.5 -8t-47.5 48z" />
<glyph unicode="&#xdd;" horiz-adv-x="747" d="M-41 797q8 4 14 10q22 25 74 29q10 1 20.5 -1.5t22.5 -6.5t19 -5q28 -6 55 -24q45 -29 63 -76q43 -109 49 -209q3 -6 3 -14q3 -10 12 -2l14 14q19 28 43 70q3 9 12 18q-13 13 2 35q35 48 50 80q7 16 34 24l56 19q39 9 47 -29q2 -20 2.5 -24.5t-2 -24.5t-2.5 -25 q-25 -196 -21 -249q18 20 55.5 56t53.5 56q29 39 78 78q7 2 43 30.5t39 30.5q24 3 24 -18q-5 -18 -74 -78q-7 -7 -10 -16q-7 -6 -20.5 -19.5t-20.5 -19.5q-13 -9 -26 -20.5t-22.5 -20.5t-23 -24t-20 -22.5t-21 -26t-18.5 -23.5t-20.5 -27t-18.5 -25q-20 -28 -30 -75 q-6 -24 -4.5 -27t-0.5 -27q-1 -13 -6.5 -34.5t-7.5 -32.5q-16 -108 -49 -244q-24 -85 -64 -164q-27 -49 -53 -84q-32 -35 -76 -4q-16 10 -38 41q-3 5 -12 19t-13 21.5t-8.5 20.5t-5.5 25q0 36 10 84q1 6 12 45q2 14 7 29.5t9 24.5t13 28t12 25q22 46 71 128.5t68 119.5 q40 79 50 204q0 7 3 21.5t3 21.5q1 18 -5 15q-4 -2 -16 -17q-30 -37 -35 -57q0 -2 -2 -4q-32 -38 -80 -121q-14 -23 -57 -23q-18 1 -25 5t-15 11.5t-23 12.5q-33 12 -47 51q-57 125 -82 219q-8 27 -27 125q-12 68 -41 97zM201 897v6q28 34 39 111q1 6 5 13.5t11 16.5 t12.5 15.5t14 16t10.5 11.5q13 22 16 29q23 22 15 45q7 2 16.5 -1t11.5 -3q8 -11 26 -26t23 -21q11 -12 41 -70q5 -11 0 -16q-16 -40 -36 -53q-15 -12 -52 -49q-47 -49 -116 -43q-25 0 -37 18zM227.5 -190.5q-0.5 -11.5 0 -19t2 -21t1.5 -19.5q0 -20 17 -6q16 13 22 31 q2 5 10 24.5t13 28.5q31 73 37 98q9 29 22.5 89.5t22.5 90.5q5 18 -2 31q-76 -111 -94 -149q-2 -4 -6.5 -10.5t-7 -12.5t-3.5 -12q-25 -103 -31 -123q-3 -9 -3.5 -20.5z" />
<glyph unicode="&#xde;" horiz-adv-x="772" d="M0 516q0 105 2 158q3 12 13.5 241t15.5 259q4 33 -4 49q-13 23 12 26q15 2 32 6.5t26.5 6.5t25 1.5t35.5 -6.5q106 -28 106 -139q-3 -144 2 -381q0 -5 -1 -13.5t-1.5 -14t1.5 -13.5t7 -14l54 45q64 61 139 39q8 -2 25.5 -4t19.5 -2q19 -3 37 -17q49 -45 71 -69 q44 -47 31 -115q-10 -57 -43 -96q-2 -3 -4.5 -5.5t-5.5 -5t-4 -3.5q-2 -2 -9.5 -17.5t-9.5 -17.5q-10 -12 41 5q49 17 84 34q37 18 74 77q37 53 57 109q3 9 8.5 28.5t8.5 28.5q11 38 20 39q5 0 10 -10q0 -1 1 -2q5 -10 14 -10q13 -50 -25 -125q-13 -28 -51 -80 q-60 -84 -182 -150q-36 -19 -107 -36.5t-90 -24.5q-33 -12 -72 7t-51 50q-2 5 -3 9.5t-0.5 8.5t0.5 7t3 6l4.5 4.5t6.5 4.5t7 4.5t9 5t10 4.5q55 29 64 61q3 11 10.5 32t11 33t9 33t5.5 33.5t-1 34.5q0 24 -9 51q-6 20 -29 26.5t-38 -7.5q-4 -4 -18.5 -21.5t-35 -41.5 t-28.5 -34q-22 -30 -27 -110q-1 -32 -12 -152t-12 -233q0 -16 -6 -43t-7 -31q-7 -41 2 -143q4 -24 4 -37q-1 -35 -19.5 -49t-55.5 -11q-19 2 -28.5 7.5t-20 19t-21.5 22.5q-14 12 -22 35q-3 11 -14.5 45t-16.5 50.5t-12.5 44.5t-10.5 52t-4 48q-1 66 0 102.5t1 57t-3 34.5 q-1 2 4 74v2z" />
<glyph unicode="&#xdf;" horiz-adv-x="794" d="M-2 879q-10 97 2 182q2 12 2 26q-5 50 -1.5 100t26.5 68q13 9 14 9q10 1 14.5 2t8.5 2.5t6 3t8.5 6t13.5 8.5l96 66q8 2 12.5 3t13 -4.5t13 -10t12 -12.5t11.5 -11q14 -14 14 -39q1 -16 4 -47.5t4 -48.5q1 -22 -7.5 -90.5t-8.5 -73.5q0 -4 -2 -14.5t-2.5 -16t1 -15 t5.5 -18.5q4 5 16 26.5t21 27.5q18 32 41 45q69 48 129 26q4 0 6 -2q6 -4 23 -13.5t25.5 -14.5t21.5 -14t23 -18t18 -20q27 -39 34 -73q12 -49 -10 -74q-8 -8 -8 -19q2 -22 -23 -51q-27 -42 -40 -80q-13 -41 -11 -69q7 -54 33 -80q22 -21 98 -88q17 -13 35 -4q64 31 103 73 q23 24 33.5 41t18.5 37t15 33q6 9 25 2.5t16 -18.5q-27 -90 -72 -135q-16 -16 -32.5 -29t-24.5 -18.5t-27.5 -17t-23.5 -13.5q-21 -13 -16 -29q29 -57 26 -96.5t-31 -93.5q-16 -28 -32 -50q-21 -28 -80 -41q-70 -10 -86 -6q-76 12 -96 60q0 3 -9 12q-17 20 -14 55 q-2 39 37 88q5 2 8 9q17 32 70 47q13 4 34 16t33 16q1 1 10.5 6.5t14.5 6.5q15 5 6 20q-21 28 -45 49q-20 16 -29 25q-11 16 -36.5 39.5t-34.5 34.5q-53 60 -64 131q-8 65 -2 98q0 18 8 31q1 12 4 23t9.5 27.5t7.5 20.5q6 25 18 50q14 21 14 41q0 17 -18 28q-14 9 -27 -4 q-61 -44 -92 -100q-7 -21 -22 -33q3 -19 -8 -41q-33 -102 -37 -111q-12 -26 -15 -59q-4 -18 -2 -27q7 -21 -2 -36q-6 -12 -10 -35t-6 -29q-6 -19 0 -35q2 -8 -2 -24q-4 -46 -2 -66q2 -14 -2 -40.5t-4 -35.5q-7 -36 -2 -65q0 -4 -5 -29q0 -7 -1.5 -36t-0.5 -46q5 -28 -14 -39 q-16 -10 -43 13q-13 10 -37 39q-6 4 -6 20q0 75 -31 166q-11 30 -23.5 89t-15.5 71q-6 14 -2.5 56.5t0.5 59.5q-4 33 -7 70t-6 83t-5 71zM442 238q4 -14 29 -17h10q9 0 13 4q42 14 77 45q23 21 41 72q2 12 -4 16t-18 0t-21 -10q-8 -3 -26 -16.5t-31 -16.5q-35 -10 -61 -43 q-15 -19 -9 -34z" />
<glyph unicode="&#xe0;" horiz-adv-x="757" d="M2.5 443q0.5 14 2 39.5t1.5 27.5q2 67 49 166q28 59 121 160l16 16q15 16 21 27q2 6 7.5 8t10.5 -2q9 -7 32 -11.5t26 -5.5q13 -4 32 -5t33 -9q3 -1 18.5 -7t24.5 -11q52 -22 72 -70q8 -21 -12 -35q-3 -2 -21 -20q-5 -4 -27.5 -14t-29.5 -15q-26 -15 -33 -39 q0 -1 -10 -16q-6 -3 -10 -11q-22 -42 -50 -57l-4 -4q-3 -17 -20.5 -44t-20.5 -44q0 -1 -1 -3t-1 -3q-8 -9 -13.5 -21.5t-8 -21.5t-5.5 -25.5t-5 -23.5q-9 -45 45 -103q16 -19 37 -6q12 6 22 14.5t23 23t16 17.5q12 12 23.5 29t17.5 27t19 33.5t16 29.5q8 24 8 37 q-1 28 4 74.5t6 60.5q0 9 6 15t15 6q16 2 47 2q11 0 14.5 -4.5t3.5 -14.5l-6 -22q-6 -4 -10 -17q0 -15 -1 -41t-1 -41q0 -6 -2 -10q0 -12 2 -20q0 -9 7.5 -27.5t8.5 -28.5q-3 -77 72 -94q24 -5 55 13q3 2 11 6.5t13.5 8.5t6.5 7q0 1 31.5 49t37.5 64q8 20 22.5 48.5t24.5 54 t15 58.5q7 35 35 13q10 -8 14 -16t3.5 -12.5t-3.5 -13t-4 -11.5q-9 -35 -22 -66.5t-22 -47.5t-23.5 -40t-18.5 -31q-17 -33 -40.5 -65.5t-35.5 -40.5q-32 -18 -39 -33q-4 -6 -27.5 -11.5t-31.5 -2.5q-3 1 -15.5 3.5t-21 4.5t-18.5 6t-15 8q-42 29 -55 53q0 1 -1 2t-1 2 q-10 15 -13.5 17t-11.5 -4q-7 -2 -12 -13q-34 -83 -147 -131q-9 0 -13 2q-53 15 -90 17q-68 8 -123 63q-17 17 -28 40.5t-16.5 43t-7 47.5t-1 42zM160 1153q8 7 22.5 17.5t25.5 20t19 21.5q32 11 111 11q6 -1 10 -1.5t6 -1.5t4 -3.5t3 -4t3 -5.5t3 -7q51 -93 65 -139l14 -25 q14 -14 -6 -26q-46 -25 -90 -4q-53 26 -92 65q-65 65 -90 72q-2 1 -5 5z" />
<glyph unicode="&#xe1;" horiz-adv-x="757" d="M2.5 443q0.5 14 2 39.5t1.5 27.5q2 67 49 166q28 59 121 160l16 16q15 16 21 27q2 6 7.5 8t10.5 -2q9 -7 32 -11.5t26 -5.5q13 -4 32 -5t33 -9q3 -1 18.5 -7t24.5 -11q52 -22 72 -70q8 -21 -12 -35q-3 -2 -21 -20q-5 -4 -27.5 -14t-29.5 -15q-26 -15 -33 -39 q0 -1 -10 -16q-6 -3 -10 -11q-22 -42 -50 -57l-4 -4q-3 -17 -20.5 -44t-20.5 -44q0 -1 -1 -3t-1 -3q-8 -9 -13.5 -21.5t-8 -21.5t-5.5 -25.5t-5 -23.5q-9 -45 45 -103q16 -19 37 -6q12 6 22 14.5t23 23t16 17.5q12 12 23.5 29t17.5 27t19 33.5t16 29.5q8 24 8 37 q-1 28 4 74.5t6 60.5q0 9 6 15t15 6q16 2 47 2q11 0 14.5 -4.5t3.5 -14.5l-6 -22q-6 -4 -10 -17q0 -15 -1 -41t-1 -41q0 -6 -2 -10q0 -12 2 -20q0 -9 7.5 -27.5t8.5 -28.5q-3 -77 72 -94q24 -5 55 13q3 2 11 6.5t13.5 8.5t6.5 7q0 1 31.5 49t37.5 64q8 20 22.5 48.5t24.5 54 t15 58.5q7 35 35 13q10 -8 14 -16t3.5 -12.5t-3.5 -13t-4 -11.5q-9 -35 -22 -66.5t-22 -47.5t-23.5 -40t-18.5 -31q-17 -33 -40.5 -65.5t-35.5 -40.5q-32 -18 -39 -33q-4 -6 -27.5 -11.5t-31.5 -2.5q-3 1 -15.5 3.5t-21 4.5t-18.5 6t-15 8q-42 29 -55 53q0 1 -1 2t-1 2 q-10 15 -13.5 17t-11.5 -4q-7 -2 -12 -13q-34 -83 -147 -131q-9 0 -13 2q-53 15 -90 17q-68 8 -123 63q-17 17 -28 40.5t-16.5 43t-7 47.5t-1 42zM244 987v6q28 34 39 111q1 6 4.5 13.5t11 17t13 15.5t14.5 16.5t10 11.5q14 24 16 28q22 22 15 45q7 2 16.5 -1t11.5 -3 q8 -11 26 -26t23 -21q11 -12 41 -70q5 -11 0 -16q-16 -40 -36 -53q-15 -12 -52 -49q-47 -49 -116 -43q-25 0 -37 18z" />
<glyph unicode="&#xe2;" horiz-adv-x="757" d="M2.5 443q0.5 14 2 39.5t1.5 27.5q2 67 49 166q28 59 121 160l16 16q15 16 21 27q2 6 7.5 8t10.5 -2q9 -7 32 -11.5t26 -5.5q13 -4 32 -5t33 -9q3 -1 18.5 -7t24.5 -11q52 -22 72 -70q8 -21 -12 -35q-3 -2 -21 -20q-5 -4 -27.5 -14t-29.5 -15q-26 -15 -33 -39 q0 -1 -10 -16q-6 -3 -10 -11q-22 -42 -50 -57l-4 -4q-3 -17 -20.5 -44t-20.5 -44q0 -1 -1 -3t-1 -3q-8 -9 -13.5 -21.5t-8 -21.5t-5.5 -25.5t-5 -23.5q-9 -45 45 -103q16 -19 37 -6q12 6 22 14.5t23 23t16 17.5q12 12 23.5 29t17.5 27t19 33.5t16 29.5q8 24 8 37 q-1 28 4 74.5t6 60.5q0 9 6 15t15 6q16 2 47 2q11 0 14.5 -4.5t3.5 -14.5l-6 -22q-6 -4 -10 -17q0 -15 -1 -41t-1 -41q0 -6 -2 -10q0 -12 2 -20q0 -9 7.5 -27.5t8.5 -28.5q-3 -77 72 -94q24 -5 55 13q3 2 11 6.5t13.5 8.5t6.5 7q0 1 31.5 49t37.5 64q8 20 22.5 48.5t24.5 54 t15 58.5q7 35 35 13q10 -8 14 -16t3.5 -12.5t-3.5 -13t-4 -11.5q-9 -35 -22 -66.5t-22 -47.5t-23.5 -40t-18.5 -31q-17 -33 -40.5 -65.5t-35.5 -40.5q-32 -18 -39 -33q-4 -6 -27.5 -11.5t-31.5 -2.5q-3 1 -15.5 3.5t-21 4.5t-18.5 6t-15 8q-42 29 -55 53q0 1 -1 2t-1 2 q-10 15 -13.5 17t-11.5 -4q-7 -2 -12 -13q-34 -83 -147 -131q-9 0 -13 2q-53 15 -90 17q-68 8 -123 63q-17 17 -28 40.5t-16.5 43t-7 47.5t-1 42zM131 1075q0 38 25 49q20 8 32 35q11 27 39 55q20 24 21 33q3 13 20 10l43 -6q46 -8 66 -4q20 8 26 -8q3 -12 11 -22t20 -20 t17 -17q45 -48 53 -97q0 -6 5.5 -16t6.5 -12q4 -12 4 -15q0 -16 -8 -18q-10 -4 -18 8q-29 33 -64 88q-18 24 -22 27q-17 17 -31 -2q-15 -18 -21 -31q-14 -28 -55.5 -71.5t-54.5 -65.5q-16 -19 -43 -4q-69 38 -72 104z" />
<glyph unicode="&#xe3;" horiz-adv-x="757" d="M2.5 443q0.5 14 2 39.5t1.5 27.5q2 67 49 166q28 59 121 160l16 16q15 16 21 27q2 6 7.5 8t10.5 -2q9 -7 32 -11.5t26 -5.5q13 -4 32 -5t33 -9q3 -1 18.5 -7t24.5 -11q52 -22 72 -70q8 -21 -12 -35q-3 -2 -21 -20q-5 -4 -27.5 -14t-29.5 -15q-26 -15 -33 -39 q0 -1 -10 -16q-6 -3 -10 -11q-22 -42 -50 -57l-4 -4q-3 -17 -20.5 -44t-20.5 -44q0 -1 -1 -3t-1 -3q-8 -9 -13.5 -21.5t-8 -21.5t-5.5 -25.5t-5 -23.5q-9 -45 45 -103q16 -19 37 -6q12 6 22 14.5t23 23t16 17.5q12 12 23.5 29t17.5 27t19 33.5t16 29.5q8 24 8 37 q-1 28 4 74.5t6 60.5q0 9 6 15t15 6q16 2 47 2q11 0 14.5 -4.5t3.5 -14.5l-6 -22q-6 -4 -10 -17q0 -15 -1 -41t-1 -41q0 -6 -2 -10q0 -12 2 -20q0 -9 7.5 -27.5t8.5 -28.5q-3 -77 72 -94q24 -5 55 13q3 2 11 6.5t13.5 8.5t6.5 7q0 1 31.5 49t37.5 64q8 20 22.5 48.5t24.5 54 t15 58.5q7 35 35 13q10 -8 14 -16t3.5 -12.5t-3.5 -13t-4 -11.5q-9 -35 -22 -66.5t-22 -47.5t-23.5 -40t-18.5 -31q-17 -33 -40.5 -65.5t-35.5 -40.5q-32 -18 -39 -33q-4 -6 -27.5 -11.5t-31.5 -2.5q-3 1 -15.5 3.5t-21 4.5t-18.5 6t-15 8q-42 29 -55 53q0 1 -1 2t-1 2 q-10 15 -13.5 17t-11.5 -4q-7 -2 -12 -13q-34 -83 -147 -131q-9 0 -13 2q-53 15 -90 17q-68 8 -123 63q-17 17 -28 40.5t-16.5 43t-7 47.5t-1 42zM96 1063q2 15 10.5 35t18.5 24q7 3 19 28.5t16 29.5q42 51 110 45q25 2 47 -8t42 -33t30.5 -39t28.5 -45q8 -16 22 -37 q16 -16 29 0q20 20 20 47q-3 18 0 33q2 12 13 21.5t24 9.5q19 -2 23 -29q4 -32 -8 -90q0 -10 -13 -19q-5 -3 -16.5 -10.5t-18.5 -12t-17.5 -9t-20.5 -5.5q-45 -7 -82 15q-3 1 -41 18q-37 12 -68 43q-22 21 -31 19.5t-26 -31.5q-25 -43 -39 -53q-19 -17 -36.5 -14t-27.5 26 q-10 22 -8 41z" />
<glyph unicode="&#xe4;" horiz-adv-x="757" d="M2.5 443q0.5 14 2 39.5t1.5 27.5q2 67 49 166q28 59 121 160l16 16q15 16 21 27q2 6 7.5 8t10.5 -2q9 -7 32 -11.5t26 -5.5q13 -4 32 -5t33 -9q3 -1 18.5 -7t24.5 -11q52 -22 72 -70q8 -21 -12 -35q-3 -2 -21 -20q-5 -4 -27.5 -14t-29.5 -15q-26 -15 -33 -39 q0 -1 -10 -16q-6 -3 -10 -11q-22 -42 -50 -57l-4 -4q-3 -17 -20.5 -44t-20.5 -44q0 -1 -1 -3t-1 -3q-8 -9 -13.5 -21.5t-8 -21.5t-5.5 -25.5t-5 -23.5q-9 -45 45 -103q16 -19 37 -6q12 6 22 14.5t23 23t16 17.5q12 12 23.5 29t17.5 27t19 33.5t16 29.5q8 24 8 37 q-1 28 4 74.5t6 60.5q0 9 6 15t15 6q16 2 47 2q11 0 14.5 -4.5t3.5 -14.5l-6 -22q-6 -4 -10 -17q0 -15 -1 -41t-1 -41q0 -6 -2 -10q0 -12 2 -20q0 -9 7.5 -27.5t8.5 -28.5q-3 -77 72 -94q24 -5 55 13q3 2 11 6.5t13.5 8.5t6.5 7q0 1 31.5 49t37.5 64q8 20 22.5 48.5t24.5 54 t15 58.5q7 35 35 13q10 -8 14 -16t3.5 -12.5t-3.5 -13t-4 -11.5q-9 -35 -22 -66.5t-22 -47.5t-23.5 -40t-18.5 -31q-17 -33 -40.5 -65.5t-35.5 -40.5q-32 -18 -39 -33q-4 -6 -27.5 -11.5t-31.5 -2.5q-3 1 -15.5 3.5t-21 4.5t-18.5 6t-15 8q-42 29 -55 53q0 1 -1 2t-1 2 q-10 15 -13.5 17t-11.5 -4q-7 -2 -12 -13q-34 -83 -147 -131q-9 0 -13 2q-53 15 -90 17q-68 8 -123 63q-17 17 -28 40.5t-16.5 43t-7 47.5t-1 42zM79.5 1067.5q-0.5 6.5 0 11t2 15.5t2.5 18l10 37l39 25q25 19 64 10q48 -21 92 -86q17 -33 -6 -56q-13 -17 -32 -26t-33 -10.5 t-38 -1.5q-32 0 -34 1q-3 2 -1 5q0 3 -5 6t-10.5 5t-6.5 3q-1 0 -15 11.5t-16 13.5q-6 4 -9 8t-3.5 10.5zM389 1055q-8 21 0 39q20 39 23 51q9 37 49 43q40 10 53 10q44 0 57 -39l7 -35q15 -49 -27 -82q-20 -14 -51 -28q-25 -21 -63.5 -7.5t-47.5 48.5z" />
<glyph unicode="&#xe5;" horiz-adv-x="757" d="M2.5 443q0.5 14 2 39.5t1.5 27.5q2 67 49 166q28 59 121 160l16 16q15 16 21 27q2 6 7.5 8t10.5 -2q9 -7 32 -11.5t26 -5.5q13 -4 32 -5t33 -9q3 -1 18.5 -7t24.5 -11q52 -22 72 -70q8 -21 -12 -35q-3 -2 -21 -20q-5 -4 -27.5 -14t-29.5 -15q-26 -15 -33 -39 q0 -1 -10 -16q-6 -3 -10 -11q-22 -42 -50 -57l-4 -4q-3 -17 -20.5 -44t-20.5 -44q0 -1 -1 -3t-1 -3q-8 -9 -13.5 -21.5t-8 -21.5t-5.5 -25.5t-5 -23.5q-9 -45 45 -103q16 -19 37 -6q12 6 22 14.5t23 23t16 17.5q12 12 23.5 29t17.5 27t19 33.5t16 29.5q8 24 8 37 q-1 28 4 74.5t6 60.5q0 9 6 15t15 6q16 2 47 2q11 0 14.5 -4.5t3.5 -14.5l-6 -22q-6 -4 -10 -17q0 -15 -1 -41t-1 -41q0 -6 -2 -10q0 -12 2 -20q0 -9 7.5 -27.5t8.5 -28.5q-3 -77 72 -94q24 -5 55 13q3 2 11 6.5t13.5 8.5t6.5 7q0 1 31.5 49t37.5 64q8 20 22.5 48.5t24.5 54 t15 58.5q7 35 35 13q10 -8 14 -16t3.5 -12.5t-3.5 -13t-4 -11.5q-9 -35 -22 -66.5t-22 -47.5t-23.5 -40t-18.5 -31q-17 -33 -40.5 -65.5t-35.5 -40.5q-32 -18 -39 -33q-4 -6 -27.5 -11.5t-31.5 -2.5q-3 1 -15.5 3.5t-21 4.5t-18.5 6t-15 8q-42 29 -55 53q0 1 -1 2t-1 2 q-10 15 -13.5 17t-11.5 -4q-7 -2 -12 -13q-34 -83 -147 -131q-9 0 -13 2q-53 15 -90 17q-68 8 -123 63q-17 17 -28 40.5t-16.5 43t-7 47.5t-1 42zM174 1100q-7 29 2.5 53.5t32.5 56.5q4 5 18 19.5t21 23.5q12 24 45 21q4 -1 16 -3.5t16 -3t14 -3t14.5 -4.5t12 -5t13 -7 t10.5 -9q25 -21 41 -25q32 -10 25 -40q-3 -18 10 -76q4 -7 4.5 -15.5t-1 -15.5t-4 -18.5t-3.5 -18.5l-2 -8q-3 -34 -27 -52t-67 -30q-13 -3 -29 0q-71 20 -112 58t-50 102zM278.5 1045q1.5 -28 26.5 -50q36 -26 66 -2q28 17 35 60q8 16 4 67q-3 15 -11 19t-28 -2 q-8 -2 -15 -5t-11.5 -5.5t-12 -8t-10 -7.5t-11 -9.5t-10.5 -9.5q-24 -19 -22.5 -47z" />
<glyph unicode="&#xe6;" horiz-adv-x="991" d="M2.5 449q0.5 14 2 39.5t1.5 27.5q2 67 49 166q28 59 121 160q28 33 53 39t60 -7q11 -3 18 -4t11.5 -2.5t15.5 -7.5q7 -3 10.5 -8.5t11.5 -9.5q52 -22 72 -70q8 -21 -12 -35q-3 -2 -21 -20q-34 -27 -37 -29q-6 -3 -37.5 -59.5t-44.5 -63.5l-4 -4q-3 -17 -20.5 -44 t-20.5 -44q0 -1 -1 -3t-1 -3q-8 -9 -13.5 -21.5t-8 -21.5t-5.5 -25.5t-5 -23.5q-9 -45 45 -103q16 -19 37 -6q12 6 22.5 15t22.5 23t16 18q12 12 24 29.5t17 25.5t19.5 34.5t15.5 28.5q8 24 8 37q0 33 2 47q0 57 29 146q19 58 67 118q45 57 81.5 83t63 26.5t58.5 -0.5 q36 -3 37 -2h12q34 0 53 -31q8 -16 10.5 -22.5t7 -20.5t4 -26t-4.5 -25q-4 -18 -9.5 -52t-9.5 -52q-3 -29 -16 -45q-19 -25 -49 -80.5t-49 -81.5q-22 -45 -21 -53q3 -23 29 -76q18 -18 45 -6q63 26 114 74t99 149q10 33 33 63q8 10 16 35q5 18 11 21t20 -9q1 -1 4 -3.5t4 -4 t2.5 -5.5t0 -10.5t-4.5 -15.5q-10 -24 -19 -43t-11.5 -24t-2.5 -8q-32 -87 -113.5 -176t-146.5 -111q-51 -7 -53 -8q-8 0 -10 -2q-9 0 -25.5 -3t-26 -3.5t-26.5 4.5q-7 2 -20 5t-19 5q-56 4 -68 14q-41 29 -55 54q0 1 -1 2t-1 2q-10 14 -13.5 16.5t-11.5 -4.5q-7 -2 -12 -12 q-34 -83 -147 -131q-9 0 -13 2q-48 13 -90 16q-68 8 -123 63q-17 17 -28 40.5t-16.5 43t-7 47.5t-1 42zM674 631q-1 -6 6.5 -46.5t7.5 -45.5q0 -17 17 1q11 12 16 25q3 8 9.5 25t10 26t9.5 25.5t8.5 27t6 26t4.5 27.5t1 26.5t-2 27.5q-5 13 -16.5 14t-20 -6t-6.5 -12 q-21 -34 -25 -47q-22 -46 -22 -80q0 -3 -2 -7.5t-2 -6.5z" />
<glyph unicode="&#xe7;" horiz-adv-x="632" d="M0 485q-2 27 12 101q28 129 92 211q11 11 29 18q21 9 39 21q41 28 70 24q4 0 6 2q7 4 14 6.5t12 3t13.5 -1t12 -2.5t13.5 -4t13 -4q43 -11 108 -53q11 -8 29 -12q32 -10 29 -31q0 -14 -10 -25t-23 -12q-8 -2 -29 -2t-57 -16q-35 -17 -53.5 -31t-24.5 -22t-18.5 -34.5 t-24.5 -46.5q-8 -13 -22.5 -38t-22.5 -37q-8 -11 -10 -31q-17 -116 0 -154q7 -15 13.5 -24t19.5 -20.5t14 -12.5q1 -3 8 -6q0 -4 8 -8q25 -12 50 -12t42.5 4.5t42.5 23.5t36 29t37.5 38t33.5 35q38 38 82 104.5t69 119.5q13 28 21 34t20 -2q20 -13 20.5 -26.5t-9.5 -26.5 q-10 -21 -28 -47.5t-36 -51t-23 -32.5q-10 -14 -27.5 -40.5t-31.5 -44.5t-33 -38q-4 -4 -24 -35t-35 -36q-31 -10 -51.5 -19.5t-28.5 -11.5q-1 -3 -2 -9.5t-2 -9.5q0 -1 -3 -26t-7 -29q-4 -22 12 -29q38 -25 51 -63t15 -92q0 -16 -7.5 -31.5t-15 -24.5t-22.5 -24 q-43 -37 -93 -37q-11 2 -49 -8q-2 1 -7.5 2t-8.5 2q-31 18 -82 35q-24 9 -33 47v12q0 6 17 6l30 -6q14 -4 28.5 -4.5t31.5 3t26.5 6t30 9.5t25.5 9q27 11 49 33q18 25 18 53q0 18 -11.5 35t-27.5 10q-19 -3 -39 -23q-4 -2 -11 -8.5t-13 -9.5q-4 -2 -43 -8h-15l-2 4 q-16 19 2 35q24 12 27 38l10 64v14q-31 0 -73 11q-14 5 -23.5 13.5t-24.5 12.5q-27 9 -49 31q-51 49 -70 100t-26 133z" />
<glyph unicode="&#xe8;" horiz-adv-x="552" d="M-8 418q-20 96 22 217q6 20 15.5 37t28.5 45.5t24 36.5q44 67 78.5 93t66.5 23t78 -8q2 0 8.5 -1.5t8.5 -0.5h12q34 0 53 -31q28 -58 16 -94q-4 -18 -9 -52t-9 -52q-3 -29 -16 -45q-19 -26 -49 -81t-50 -81q-22 -43 -20 -53q3 -23 29 -76q18 -18 45 -6q63 26 114 74 t99 149q11 36 32 63q14 19 17 33q5 18 10.5 22t19.5 -7q2 -2 6 -5t5 -4.5t2 -5.5t-0.5 -9t-5.5 -13q-33 -61 -33 -78q-32 -87 -113.5 -176t-146.5 -111q-52 -7 -54 -8q-8 0 -10 -2q-9 0 -25.5 -3t-26 -3.5t-26.5 4.5q-4 1 -27 6t-39.5 12t-33.5 19q-82 63 -96 172zM98 1161 q7 6 22.5 17t26.5 21t19 22q29 10 110 10q6 -1 10 -1.5t6 -1.5t4 -3.5t3 -4t3 -5.5t3 -7q54 -96 66 -139l14 -25q14 -14 -6 -26q-46 -25 -90 -4q-53 26 -92 65q-65 65 -91 72q-2 1 -5 5zM233 596q-1 -6 7 -46.5t8 -45.5q0 -17 17 1q11 12 16 25q4 9 11.5 28t11.5 30.5t10 29 t9 31.5t6 30t2.5 31.5t-3.5 30.5q-3 14 -14.5 15t-21 -6.5t-7.5 -12.5q-21 -34 -25 -47q-22 -46 -22 -80q0 -3 -2.5 -7.5t-2.5 -6.5z" />
<glyph unicode="&#xe9;" horiz-adv-x="552" d="M-8 418q-20 96 22 217q6 20 15.5 37t28.5 45.5t24 36.5q44 67 78.5 93t66.5 23t78 -8q2 0 8.5 -1.5t8.5 -0.5h12q34 0 53 -31q28 -58 16 -94q-4 -18 -9 -52t-9 -52q-3 -29 -16 -45q-19 -26 -49 -81t-50 -81q-22 -43 -20 -53q3 -23 29 -76q18 -18 45 -6q63 26 114 74 t99 149q11 36 32 63q14 19 17 33q5 18 10.5 22t19.5 -7q2 -2 6 -5t5 -4.5t2 -5.5t-0.5 -9t-5.5 -13q-33 -61 -33 -78q-32 -87 -113.5 -176t-146.5 -111q-52 -7 -54 -8q-8 0 -10 -2q-9 0 -25.5 -3t-26 -3.5t-26.5 4.5q-4 1 -27 6t-39.5 12t-33.5 19q-82 63 -96 172zM182 995 v6q28 34 39 111q1 6 4.5 13.5t11 17t13 15.5t14.5 16.5t10 11.5q2 3 6 8.5t6.5 10.5l4.5 9q22 22 14 46q7 2 17 -1.5t12 -3.5q8 -11 26 -26t23 -21q12 -13 41 -69q6 -11 0 -17q-15 -39 -37 -53q-10 -8 -51 -49q-47 -50 -117 -43q-25 0 -37 18zM233 596q-1 -6 7 -46.5 t8 -45.5q0 -17 17 1q11 12 16 25q4 9 11.5 28t11.5 30.5t10 29t9 31.5t6 30t2.5 31.5t-3.5 30.5q-3 14 -14.5 15t-21 -6.5t-7.5 -12.5q-21 -34 -25 -47q-22 -46 -22 -80q0 -3 -2.5 -7.5t-2.5 -6.5z" />
<glyph unicode="&#xea;" horiz-adv-x="552" d="M-8 418q-20 96 22 217q6 20 15.5 37t28.5 45.5t24 36.5q44 67 78.5 93t66.5 23t78 -8q2 0 8.5 -1.5t8.5 -0.5h12q34 0 53 -31q28 -58 16 -94q-4 -18 -9 -52t-9 -52q-3 -29 -16 -45q-19 -26 -49 -81t-50 -81q-22 -43 -20 -53q3 -23 29 -76q18 -18 45 -6q63 26 114 74 t99 149q11 36 32 63q14 19 17 33q5 18 10.5 22t19.5 -7q2 -2 6 -5t5 -4.5t2 -5.5t-0.5 -9t-5.5 -13q-33 -61 -33 -78q-32 -87 -113.5 -176t-146.5 -111q-52 -7 -54 -8q-8 0 -10 -2q-9 0 -25.5 -3t-26 -3.5t-26.5 4.5q-4 1 -27 6t-39.5 12t-33.5 19q-82 63 -96 172zM70 1083 q0 40 24 50q22 8 33 34q11 28 39 56q19 23 20 32q3 14 21 11l43 -6q48 -8 65 -5q21 8 27 -8q3 -12 10.5 -22t19.5 -20t17 -17q45 -49 53 -96q0 -6 6 -16.5t7 -12.5q4 -12 4 -14q0 -17 -8 -19q-11 -4 -19 8q-25 29 -63 88q-16 22 -23 27q-17 17 -31 -2q-12 -15 -20 -31 q-14 -28 -56 -71t-55 -66q-16 -19 -43 -4q-68 38 -71 104zM233 596q-1 -6 7 -46.5t8 -45.5q0 -17 17 1q11 12 16 25q4 9 11.5 28t11.5 30.5t10 29t9 31.5t6 30t2.5 31.5t-3.5 30.5q-3 14 -14.5 15t-21 -6.5t-7.5 -12.5q-21 -34 -25 -47q-22 -46 -22 -80q0 -3 -2.5 -7.5 t-2.5 -6.5z" />
<glyph unicode="&#xeb;" horiz-adv-x="552" d="M-8 418q-20 96 22 217q6 20 15.5 37t28.5 45.5t24 36.5q44 67 78.5 93t66.5 23t78 -8q2 0 8.5 -1.5t8.5 -0.5h12q34 0 53 -31q28 -58 16 -94q-4 -18 -9 -52t-9 -52q-3 -29 -16 -45q-19 -26 -49 -81t-50 -81q-22 -43 -20 -53q3 -23 29 -76q18 -18 45 -6q63 26 114 74 t99 149q11 36 32 63q14 19 17 33q5 18 10.5 22t19.5 -7q2 -2 6 -5t5 -4.5t2 -5.5t-0.5 -9t-5.5 -13q-33 -61 -33 -78q-32 -87 -113.5 -176t-146.5 -111q-52 -7 -54 -8q-8 0 -10 -2q-9 0 -25.5 -3t-26 -3.5t-26.5 4.5q-4 1 -27 6t-39.5 12t-33.5 19q-82 63 -96 172z M18.5 1075.5q-0.5 6.5 0 11t2 15.5t2.5 18l10 37l39 25q25 19 63 10q48 -21 92 -86q16 -33 -6 -55q-13 -17 -31.5 -26.5t-33 -11t-37.5 -1.5q-32 0 -34 1q-3 2 -1 5q0 3 -5 6t-11 5t-7 3q-5 0 -30 25q-6 4 -9 8t-3.5 10.5zM233 596q-1 -6 7 -46.5t8 -45.5q0 -17 17 1 q11 12 16 25q4 9 11.5 28t11.5 30.5t10 29t9 31.5t6 30t2.5 31.5t-3.5 30.5q-3 14 -14.5 15t-21 -6.5t-7.5 -12.5q-21 -34 -25 -47q-22 -46 -22 -80q0 -3 -2.5 -7.5t-2.5 -6.5zM328 1063q-8 21 0 39q17 35 22 51q9 37 49 43q40 10 54 10q44 0 57 -39l6 -34q15 -49 -27 -82 q-23 -17 -51 -29q-25 -21 -63 -7.5t-47 48.5z" />
<glyph unicode="&#xec;" horiz-adv-x="458" d="M0 518q10 35 10 47q0 47 6 60q3 14 7.5 42.5t7.5 43.5v6.5v6v5t0.5 5t1 4.5t1.5 4.5t2.5 3.5t3.5 3.5t5 2.5q39 17 55 10q8 -3 51.5 -16t65.5 -21q27 -8 35 -16q10 -2 14 -19q0 -14 -4 -20q0 -26 -6 -60q-4 -117 -12 -172q0 -3 -6 -108q0 -43 10 -74q6 -11 13.5 -12 t19.5 4q47 39 84 94q17 26 72.5 138.5t66.5 142.5q6 13 20.5 5.5t14.5 -12.5q1 -3 -0.5 -8.5t-1.5 -7.5q-8 -26 -60.5 -136t-66.5 -130q-7 -12 -16 -23.5t-21 -24.5t-19 -22q-4 -4 -13 -20.5t-13 -20.5q-12 -15 -34.5 -27t-45.5 -12q-64 -12 -117 21q-10 8 -41 26 q-26 21 -70 80q-10 15 -10 45q0 6 -1.5 28.5t-0.5 33.5q-3 19 -8 100zM2 1044q7 6 22.5 17t26.5 21t19 22q29 10 110 10q6 -1 10 -1.5t6 -1t4 -3t3 -4t3 -6t3 -6.5q51 -91 65 -140l15 -24q15 -15 -6 -27q-46 -25 -90 -4q-53 26 -93 66q-64 64 -90 71q-2 1 -5 6z" />
<glyph unicode="&#xed;" horiz-adv-x="458" d="M0 518q10 35 10 47q0 47 6 60q3 14 7.5 42.5t7.5 43.5v6.5v6v5t0.5 5t1 4.5t1.5 4.5t2.5 3.5t3.5 3.5t5 2.5q39 17 55 10q8 -3 51.5 -16t65.5 -21q27 -8 35 -16q10 -2 14 -19q0 -14 -4 -20q0 -26 -6 -60q-4 -117 -12 -172q0 -3 -6 -108q0 -43 10 -74q6 -11 13.5 -12 t19.5 4q47 39 84 94q17 26 72.5 138.5t66.5 142.5q6 13 20.5 5.5t14.5 -12.5q1 -3 -0.5 -8.5t-1.5 -7.5q-8 -26 -60.5 -136t-66.5 -130q-7 -12 -16 -23.5t-21 -24.5t-19 -22q-4 -4 -13 -20.5t-13 -20.5q-12 -15 -34.5 -27t-45.5 -12q-64 -12 -117 21q-10 8 -41 26 q-26 21 -70 80q-10 15 -10 45q0 6 -1.5 28.5t-0.5 33.5q-3 19 -8 100zM86 879v6q28 35 39 110q1 6 4.5 13.5t11 17t13 15.5t14.5 16.5t10 11.5q16 27 17 29q22 22 14 45q7 2 17 -1t12 -3q8 -11 26 -26t23 -21q11 -12 41 -70q5 -11 0 -16q-16 -40 -37 -54q-10 -8 -51 -49 q-47 -50 -117 -43q-24 0 -37 19z" />
<glyph unicode="&#xee;" horiz-adv-x="458" d="M-27 967q0 38 25 49q21 8 33 35q11 27 39 55q18 23 20 33q3 13 21 10l43 -6q45 -8 65 -4q20 8 27 -9q3 -12 10.5 -22t19.5 -20t17 -17q45 -49 53 -96q0 -4 2 -9t5.5 -11t4.5 -9q4 -12 4 -14q0 -17 -8 -19q-9 -4 -18 9q-29 33 -64 88q-16 21 -22 26q-17 17 -31 -2 q-13 -17 -20 -30q-14 -28 -56 -72t-55 -66q-16 -19 -43 -4q-69 38 -72 105zM0 518q10 35 10 47q0 47 6 60q3 14 7.5 42.5t7.5 43.5v6.5v6v5t0.5 5t1 4.5t1.5 4.5t2.5 3.5t3.5 3.5t5 2.5q39 17 55 10q8 -3 51.5 -16t65.5 -21q27 -8 35 -16q10 -2 14 -19q0 -14 -4 -20 q0 -26 -6 -60q-4 -117 -12 -172q0 -3 -6 -108q0 -43 10 -74q6 -11 13.5 -12t19.5 4q47 39 84 94q17 26 72.5 138.5t66.5 142.5q6 13 20.5 5.5t14.5 -12.5q1 -3 -0.5 -8.5t-1.5 -7.5q-8 -26 -60.5 -136t-66.5 -130q-7 -12 -16 -23.5t-21 -24.5t-19 -22q-4 -4 -13 -20.5 t-13 -20.5q-12 -15 -34.5 -27t-45.5 -12q-64 -12 -117 21q-10 8 -41 26q-26 21 -70 80q-10 15 -10 45q0 6 -1.5 28.5t-0.5 33.5q-3 19 -8 100z" />
<glyph unicode="&#xef;" horiz-adv-x="458" d="M-78.5 958.5q-0.5 6.5 0 11t2 16t2.5 18.5l11 36l38 25q25 19 64 10q48 -21 92 -86q16 -33 -6 -55q-13 -17 -31.5 -26.5t-33 -11t-37.5 -1.5q-32 0 -34 1q-3 2 -1 5q0 3 -5 6t-11 5t-7 3q-1 0 -15 11.5t-16 13.5q-6 4 -9 8t-3.5 10.5zM0 518q10 35 10 47q0 47 6 60 q3 14 7.5 42.5t7.5 43.5v6.5v6v5t0.5 5t1 4.5t1.5 4.5t2.5 3.5t3.5 3.5t5 2.5q39 17 55 10q8 -3 51.5 -16t65.5 -21q27 -8 35 -16q10 -2 14 -19q0 -14 -4 -20q0 -26 -6 -60q-4 -117 -12 -172q0 -3 -6 -108q0 -43 10 -74q6 -11 13.5 -12t19.5 4q47 39 84 94q17 26 72.5 138.5 t66.5 142.5q6 13 20.5 5.5t14.5 -12.5q1 -3 -0.5 -8.5t-1.5 -7.5q-8 -26 -60.5 -136t-66.5 -130q-7 -12 -16 -23.5t-21 -24.5t-19 -22q-4 -4 -13 -20.5t-13 -20.5q-12 -15 -34.5 -27t-45.5 -12q-64 -12 -117 21q-10 8 -41 26q-26 21 -70 80q-10 15 -10 45q0 6 -1.5 28.5 t-0.5 33.5q-3 19 -8 100zM231 946q-8 21 0 39q20 39 23 51q9 37 49 43q44 11 53 11q45 0 58 -39l6 -35q15 -49 -27 -82q-23 -17 -51 -29q-25 -21 -63.5 -7.5t-47.5 48.5z" />
<glyph unicode="&#xf0;" horiz-adv-x="698" d="M0 541q-2 28 2 41q0 66 27 188q2 9 6 59q3 28 39 37q47 15 80 8q9 -2 70.5 -9.5t94.5 -18.5q69 -24 37 -70q-8 -16 -19.5 -48.5t-17.5 -45.5q-8 -17 -23.5 -44t-21.5 -40q-30 -61 -32 -102q0 -9 -4 -13q-18 -50 -9 -82q7 -32 7 -45q-5 -60 57 -125q16 -14 41 5 q12 10 17.5 22t9 32t6.5 29q3 18 14 37q6 9 21 23.5t23 33.5t13 60q7 22 9.5 60.5t5.5 54.5q4 22 5 67.5t5 67.5q0 8 -2 14q-24 145 -80 246q-22 38 -33 40t-45 -26q-26 -23 -59 -43q-10 -10 -31 -6q-44 6 -70 27q-27 27 -41 37q-29 29 2 53q2 2 9 8l10.5 9t9.5 6t12 4 q20 6 39.5 17t30 19.5t31.5 26.5q25 14 2 41q-17 15 -40 49t-32 45q-22 26 -51 43q-19 7 -35 23q-18 19 -17.5 25t19.5 20q47 33 62.5 31.5t54.5 -39.5q14 -16 74 -97q13 -19 73 -79q12 -17 20 -18.5t27 9.5q36 14 93 25q32 5 47 -8q13 -18 -4 -39q-9 -13 -34 -33t-30 -25 q-15 -18 -31 -30q-27 -15 -8 -58q62 -100 90 -215q6 -28 6 -104q-4 -165 -22 -266q-12 -49 -29 -99q-7 -18 9 -24.5t32 -1.5q9 0 15 4q50 33 77 86q2 3 50 84t65 119q3 9 5 13t7 8.5t11 2.5q14 -3 19.5 -9t2.5 -20q-14 -55 -38 -102.5t-47.5 -80t-26.5 -38.5 q-37 -58 -70 -86q-8 -7 -18.5 -13.5t-18.5 -10.5t-21.5 -11t-19.5 -10q-6 -4 -20 -4q-59 -3 -72 -37q-18 -44 -72.5 -64t-111.5 1q-62 24 -142 100q-61 56 -78 150q-2 14 -7 43t-7 43.5t-4 42.5z" />
<glyph unicode="&#xf1;" horiz-adv-x="753" d="M4 551v12q2 6 3.5 24t4.5 27q4 12 8.5 35t4.5 25q11 37 20 57q15 20 16 21q3 3 10.5 8t10.5 8q24 9 47 6q70 -11 102 -39q25 -16 31 -43q4 -36 4 -57q2 -23 2 -68q69 75 72 78q24 27 76 49l8 2q16 1 23.5 2t21.5 -3.5t20 -7t19.5 -8.5t19.5 -9q22 -11 37 -58q1 -3 2 -4 q6 -12 -2 -24q-9 -21 -12.5 -59.5t-5.5 -49.5q-1 -6 -2 -19t-2 -20q0 -13 8.5 -26.5t19.5 -16.5q21 -5 47 13q7 5 28.5 15.5t29.5 18.5q16 16 23.5 25.5t10.5 15t12.5 21t25.5 37.5q2 3 24.5 48t30.5 50q3 3 10 4t14 -4.5t7 -18.5q0 -5 -21 -47q-33 -70 -63 -110 q-33 -43 -60.5 -65t-71.5 -44q-23 -12 -65 -8q-69 13 -108.5 60t-47.5 118q-1 10 -1 21t0.5 23.5t0.5 19.5q-9 4 -18 -6q-36 -48 -64 -105q-16 -29 -41 -84.5t-36 -77.5q0 -25 -19 -59q-18 -34 -53 -23q-72 18 -123 72q-18 20 -29 70q-20 75 -10 178zM102 893q2 15 10.5 35 t18.5 24q7 3 19 28.5t16 29.5q42 51 110 45q25 2 47 -8t42 -33t30.5 -39t28.5 -45q8 -16 22 -37q16 -16 29 0q21 21 21 47q-3 18 0 33q2 12 12.5 21.5t23.5 9.5q19 -2 23 -29q4 -32 -8 -90q0 -11 -12 -19q-5 -3 -16.5 -11t-18.5 -12t-18 -8.5t-21 -5.5q-45 -7 -82 15 q-2 2 -41 18q-37 12 -68 43q-22 21 -31 19.5t-26 -31.5q-26 -43 -39 -53q-41 -37 -63 12q-11 24 -9 41z" />
<glyph unicode="&#xf2;" d="M-14 397q-39 118 0 267q10 31 20 73q8 28 6 39q0 10 11 25q10 13 24 6q4 -2 18.5 -6.5t22.5 -9.5q13 -7 39.5 -11t38.5 -10q12 -4 16 4q15 12 45 21q32 10 70.5 7t67.5 -28q2 -2 2 -4q3 -3 25 -19t28 -30q3 -10 10 -33t10 -37q3 -16 4.5 -22t7.5 -12.5t17 -6.5q61 0 92 8 q33 10 68 35q24 17 24 -6q0 -27 -18 -39q-20 -18 -60 -28q-7 -2 -24.5 -9t-37 -11.5t-42.5 -4.5q-19 0 -22 -3t-5 -22q-10 -66 -10 -67q-4 -10 -4 -31q5 -61 -51 -135q-7 -13 -25.5 -35t-25.5 -35q-16 -28 -49 -28q-120 3 -197 57q-65 43 -96 141zM55 1051q8 7 22.5 17 t26 20t19.5 22q29 10 110 10q6 -1 10 -1.5t6 -1t4 -3t3 -4t3 -6t3 -6.5q53 -95 66 -140l14 -24q15 -15 -6 -27q-46 -25 -90 -4q-51 25 -92 66q-63 63 -91 71q-2 1 -5 6zM199 322q2 -5 4 -14t4 -13q9 -23 29 -27t40 15q27 19 39 36q59 86 82 203q5 28 0.5 33.5t-37.5 13.5 l-8 2q-30 4 -82 33q-22 13 -22 -8q0 -16 -8 -44.5t-9 -39.5q-15 -82 -20 -96q-19 -42 -12 -94zM272 688q3 -19 21 -37.5t41 -25.5q36 -11 49 -11.5t16 5t2 26.5q-2 26 -17 49t-42 33q-29 11 -55 2q-18 -11 -15 -41z" />
<glyph unicode="&#xf3;" d="M-14 397q-39 118 0 267q10 31 20 73q8 28 6 39q0 10 11 25q10 13 24 6q4 -2 18.5 -6.5t22.5 -9.5q13 -7 39.5 -11t38.5 -10q12 -4 16 4q15 12 45 21q32 10 70.5 7t67.5 -28q2 -2 2 -4q3 -3 25 -19t28 -30q3 -10 10 -33t10 -37q3 -16 4.5 -22t7.5 -12.5t17 -6.5q61 0 92 8 q33 10 68 35q24 17 24 -6q0 -27 -18 -39q-20 -18 -60 -28q-7 -2 -24.5 -9t-37 -11.5t-42.5 -4.5q-19 0 -22 -3t-5 -22q-10 -66 -10 -67q-4 -10 -4 -31q5 -61 -51 -135q-7 -13 -25.5 -35t-25.5 -35q-16 -28 -49 -28q-120 3 -197 57q-65 43 -96 141zM139 885v6q28 35 39 110 q1 6 4.5 13.5t11 17t13 15.5t14.5 16.5t10 11.5q16 27 17 29q22 22 14 45q7 2 17 -1t12 -3q8 -11 26 -26t23 -21q11 -12 41 -70q5 -11 0 -16q-16 -40 -37 -54q-10 -8 -51 -49q-47 -50 -117 -43q-24 0 -37 19zM199 322q2 -5 4 -14t4 -13q9 -23 29 -27t40 15q27 19 39 36 q59 86 82 203q5 28 0.5 33.5t-37.5 13.5l-8 2q-30 4 -82 33q-22 13 -22 -8q0 -16 -8 -44.5t-9 -39.5q-15 -82 -20 -96q-19 -42 -12 -94zM272 688q3 -19 21 -37.5t41 -25.5q36 -11 49 -11.5t16 5t2 26.5q-2 26 -17 49t-42 33q-29 11 -55 2q-18 -11 -15 -41z" />
<glyph unicode="&#xf4;" d="M-14 397q-39 118 0 267q10 31 20 73q8 28 6 39q0 10 11 25q10 13 24 6q4 -2 18.5 -6.5t22.5 -9.5q13 -7 39.5 -11t38.5 -10q12 -4 16 4q15 12 45 21q32 10 70.5 7t67.5 -28q2 -2 2 -4q3 -3 25 -19t28 -30q3 -10 10 -33t10 -37q3 -16 4.5 -22t7.5 -12.5t17 -6.5q61 0 92 8 q33 10 68 35q24 17 24 -6q0 -27 -18 -39q-20 -18 -60 -28q-7 -2 -24.5 -9t-37 -11.5t-42.5 -4.5q-19 0 -22 -3t-5 -22q-10 -66 -10 -67q-4 -10 -4 -31q5 -61 -51 -135q-7 -13 -25.5 -35t-25.5 -35q-16 -28 -49 -28q-120 3 -197 57q-65 43 -96 141zM27 973q0 39 24 49 q21 8 33 35q11 27 39 55q18 23 20 33q3 13 21 10l43 -6q45 -8 65 -4q21 8 27 -8q3 -12 10.5 -22t19.5 -20.5t17 -17.5q45 -49 53 -96q0 -6 6 -16.5t7 -12.5q4 -12 4 -14q0 -16 -8 -18q-11 -4 -19 8q-25 29 -63 88q-14 19 -23 26q-17 17 -31 -2q-13 -17 -20 -30 q-14 -28 -56 -72t-55 -66q-16 -19 -43 -4q-68 38 -71 105zM199 322q2 -5 4 -14t4 -13q9 -23 29 -27t40 15q27 19 39 36q59 86 82 203q5 28 0.5 33.5t-37.5 13.5l-8 2q-30 4 -82 33q-22 13 -22 -8q0 -16 -8 -44.5t-9 -39.5q-15 -82 -20 -96q-19 -42 -12 -94zM272 688 q3 -19 21 -37.5t41 -25.5q36 -11 49 -11.5t16 5t2 26.5q-2 26 -17 49t-42 33q-29 11 -55 2q-18 -11 -15 -41z" />
<glyph unicode="&#xf5;" d="M-14 397q-39 118 0 267q10 31 20 73q8 28 6 39q0 10 11 25q10 13 24 6q4 -2 18.5 -6.5t22.5 -9.5q13 -7 39.5 -11t38.5 -10q12 -4 16 4q15 12 45 21q32 10 70.5 7t67.5 -28q2 -2 2 -4q3 -3 25 -19t28 -30q3 -10 10 -33t10 -37q3 -16 4.5 -22t7.5 -12.5t17 -6.5q61 0 92 8 q33 10 68 35q24 17 24 -6q0 -27 -18 -39q-20 -18 -60 -28q-7 -2 -24.5 -9t-37 -11.5t-42.5 -4.5q-19 0 -22 -3t-5 -22q-10 -66 -10 -67q-4 -10 -4 -31q5 -61 -51 -135q-7 -13 -25.5 -35t-25.5 -35q-16 -28 -49 -28q-120 3 -197 57q-65 43 -96 141zM-8 961q2 15 10.5 35 t17.5 24q7 3 19 28t16 29q43 51 111 45q20 2 39.5 -6t32.5 -18.5t29.5 -32t23.5 -33t22 -35.5q3 -6 23 -36q16 -16 29 0q20 20 20 47q-3 17 0 32q2 12 13 21.5t24 9.5q17 -2 22 -29q4 -32 -8 -90q0 -10 -12 -18q-5 -3 -16.5 -11t-18.5 -12t-18 -8.5t-21 -5.5q-47 -7 -82 14 q-8 5 -41 19q-35 11 -67 43q-22 22 -31.5 19.5t-26.5 -31.5q-2 -3 -8.5 -14t-9.5 -15.5t-9 -12t-12 -12.5q-19 -17 -35.5 -13.5t-27.5 26.5q-10 22 -8 41zM199 322q2 -5 4 -14t4 -13q9 -23 29 -27t40 15q27 19 39 36q59 86 82 203q5 28 0.5 33.5t-37.5 13.5l-8 2 q-30 4 -82 33q-22 13 -22 -8q0 -16 -8 -44.5t-9 -39.5q-15 -82 -20 -96q-19 -42 -12 -94zM272 688q3 -19 21 -37.5t41 -25.5q36 -11 49 -11.5t16 5t2 26.5q-2 26 -17 49t-42 33q-29 11 -55 2q-18 -11 -15 -41z" />
<glyph unicode="&#xf6;" d="M-24.5 964.5q-0.5 6.5 0 11t2 16t2.5 18.5l10 37l39 24q25 19 63 10q48 -21 92 -86q16 -33 -6 -55q-13 -17 -31.5 -26.5t-33 -11t-37.5 -1.5q-32 0 -34 1q-3 2 -1 5q0 3 -5 6t-11 5.5t-7 3.5q-1 0 -14.5 11t-15.5 13q-6 4 -9 8t-3.5 10.5zM-14 397q-39 118 0 267 q10 31 20 73q8 28 6 39q0 10 11 25q10 13 24 6q4 -2 18.5 -6.5t22.5 -9.5q13 -7 39.5 -11t38.5 -10q12 -4 16 4q15 12 45 21q32 10 70.5 7t67.5 -28q2 -2 2 -4q3 -3 25 -19t28 -30q3 -10 10 -33t10 -37q3 -16 4.5 -22t7.5 -12.5t17 -6.5q61 0 92 8q33 10 68 35q24 17 24 -6 q0 -27 -18 -39q-20 -18 -60 -28q-7 -2 -24.5 -9t-37 -11.5t-42.5 -4.5q-19 0 -22 -3t-5 -22q-10 -66 -10 -67q-4 -10 -4 -31q5 -61 -51 -135q-7 -13 -25.5 -35t-25.5 -35q-16 -28 -49 -28q-120 3 -197 57q-65 43 -96 141zM199 322q2 -5 4 -14t4 -13q9 -23 29 -27t40 15 q27 19 39 36q59 86 82 203q5 28 0.5 33.5t-37.5 13.5l-8 2q-30 4 -82 33q-22 13 -22 -8q0 -16 -8 -44.5t-9 -39.5q-15 -82 -20 -96q-19 -42 -12 -94zM272 688q3 -19 21 -37.5t41 -25.5q36 -11 49 -11.5t16 5t2 26.5q-2 26 -17 49t-42 33q-29 11 -55 2q-18 -11 -15 -41z M285 952q-8 21 0 39q17 35 22 51q9 37 49 43q44 11 54 11q44 0 57 -39l6 -35q15 -49 -27 -82q-23 -17 -51 -29q-25 -21 -63 -7.5t-47 48.5z" />
<glyph unicode="&#xf8;" d="M-14 397q-39 118 0 267q10 31 20 73q8 28 6 39q0 10 11 25q10 13 24 6q4 -2 18.5 -6.5t22.5 -9.5q13 -7 39.5 -11t38.5 -10q12 -4 16 4q15 12 45 21q32 10 70.5 7t67.5 -28q2 -2 2 -4l2 -2q1 2 8.5 17.5t9.5 23.5q3 4 5 10.5t4 14.5l3 12q-1 8 12 20t25 19q5 5 15 2 q5 -3 7 -10.5t-1 -12.5q-2 -4 -8 -25t-11 -28q-6 -15 -12.5 -31t-10 -25.5t-5.5 -15.5v-2q9 -14 10 -16q3 -10 10 -33t10 -37q3 -16 4.5 -22t7.5 -12.5t17 -6.5q61 0 92 8q33 10 68 35q24 17 24 -6q0 -27 -18 -39q-20 -18 -60 -28q-7 -2 -24.5 -9t-37 -11.5t-42.5 -4.5 q-19 0 -22 -3t-5 -22q-10 -66 -10 -67q-4 -10 -4 -31q5 -61 -51 -135q-7 -13 -25.5 -35t-25.5 -35q-16 -28 -49 -28q-47 0 -93 12q-1 -2 -2 -6t-2 -6q-3 -8 -9 -21t-9.5 -22.5t-5.5 -20.5q-1 -12 -9.5 -20.5t-19.5 -10.5h-14q-3 -1 -6.5 5.5t-5.5 14.5t-1 11q8 12 23 62 q2 5 5 15t5 15q-26 9 -53 29q-65 43 -96 141zM182 416q0 -27 11 -60l30 68q14 26 28 70.5t15 46.5q28 68 66 143q7 14 16 41q-1 0 -3 1t-3 1q-29 11 -55 2q-3 -2 -16.5 -7t-21 -12.5t-11.5 -21.5q-2 -9 -0.5 -13.5t-2.5 -18t-16 -33.5q-13 -23 -24 -105q-13 -72 -13 -102z M219 276q23 -23 57 7q27 19 39 36q63 92 82 203q3 15 -10 33.5t-8 40.5q2 8 12.5 18t9.5 31q0 22 -12 43q-4 -8 -4 -12q-53 -119 -61 -144q-17 -53 -39 -90q-4 -9 -13 -39q-5 -11 -13.5 -29.5t-15.5 -34.5t-12 -32q-1 -4 -5.5 -14.5t-6.5 -16.5z" />
<glyph unicode="&#xf9;" horiz-adv-x="665" d="M-20 631q0 32 24 143q4 20 7 27t9.5 11.5t10.5 8.5q5 10 40.5 3.5t41.5 -5.5q9 3 18 -4.5t18.5 -19.5t12.5 -15q6 -4 22 -15.5t23.5 -18t18 -18t14.5 -24.5t2 -28q-29 -148 -25 -215q12 4 23 22t22 46t12 30q14 16 34.5 99t43.5 98q23 14 62 0.5t51 -39.5 q5 -24 1.5 -51.5t-11.5 -70t-9 -52.5q0 -2 1 -18t2.5 -29t4.5 -30t9 -30.5t14 -21.5q9 -15 32.5 -4t27.5 10q2 2 17.5 16t30.5 29t35 37.5t41.5 54t40.5 66.5l1 2q11 12 26 -2q1 -1 3.5 -4t2.5 -4t0.5 -4.5t-1 -8.5t-5.5 -12q-28 -56 -87 -125.5t-85 -89.5q-31 -28 -68 -33 t-63 14q-29 21 -46.5 76t-27.5 70q-3 0 -12 -30t-20.5 -63.5t-20.5 -39.5q-1 -1 -7.5 -16t-19 -31t-30.5 -25q-3 1 -9.5 -6t-11.5 -8q-21 -4 -59 6q-15 2 -45 19.5t-23 29.5q-64 81 -89 143t-25 150zM78 1100q8 7 22.5 17.5t25.5 20t19 21.5q29 10 111 10q6 -1 10 -1.5t6 -1 t4 -3t3 -4t3 -6t3 -6.5q51 -93 65 -139l15 -25q15 -15 -7 -27q-46 -25 -90 -4q-51 25 -92 66q-65 65 -90 72q-2 1 -5 6z" />
<glyph unicode="&#xfa;" horiz-adv-x="665" d="M-20 631q0 32 24 143q4 20 7 27t9.5 11.5t10.5 8.5q5 10 40.5 3.5t41.5 -5.5q9 3 18 -4.5t18.5 -19.5t12.5 -15q6 -4 22 -15.5t23.5 -18t18 -18t14.5 -24.5t2 -28q-29 -148 -25 -215q12 4 23 22t22 46t12 30q14 16 34.5 99t43.5 98q23 14 62 0.5t51 -39.5 q5 -24 1.5 -51.5t-11.5 -70t-9 -52.5q0 -2 1 -18t2.5 -29t4.5 -30t9 -30.5t14 -21.5q9 -15 32.5 -4t27.5 10q2 2 17.5 16t30.5 29t35 37.5t41.5 54t40.5 66.5l1 2q11 12 26 -2q1 -1 3.5 -4t2.5 -4t0.5 -4.5t-1 -8.5t-5.5 -12q-28 -56 -87 -125.5t-85 -89.5q-31 -28 -68 -33 t-63 14q-29 21 -46.5 76t-27.5 70q-3 0 -12 -30t-20.5 -63.5t-20.5 -39.5q-1 -1 -7.5 -16t-19 -31t-30.5 -25q-3 1 -9.5 -6t-11.5 -8q-21 -4 -59 6q-15 2 -45 19.5t-23 29.5q-64 81 -89 143t-25 150zM162 934v6q28 34 39 111q1 6 5 13.5t11 16.5t12.5 15.5t14 16t10.5 11.5 q13 22 16 29q22 23 15 45q7 2 16.5 -1t11.5 -3q8 -11 26 -26t23 -21q11 -12 41 -70q5 -11 0 -16q-16 -40 -36 -53q-10 -8 -52 -50q-47 -49 -116 -43q-24 0 -37 19z" />
<glyph unicode="&#xfb;" horiz-adv-x="665" d="M-20 631q0 32 24 143q4 20 7 27t9.5 11.5t10.5 8.5q5 10 40.5 3.5t41.5 -5.5q9 3 18 -4.5t18.5 -19.5t12.5 -15q6 -4 22 -15.5t23.5 -18t18 -18t14.5 -24.5t2 -28q-29 -148 -25 -215q12 4 23 22t22 46t12 30q14 16 34.5 99t43.5 98q23 14 62 0.5t51 -39.5 q5 -24 1.5 -51.5t-11.5 -70t-9 -52.5q0 -2 1 -18t2.5 -29t4.5 -30t9 -30.5t14 -21.5q9 -15 32.5 -4t27.5 10q2 2 17.5 16t30.5 29t35 37.5t41.5 54t40.5 66.5l1 2q11 12 26 -2q1 -1 3.5 -4t2.5 -4t0.5 -4.5t-1 -8.5t-5.5 -12q-28 -56 -87 -125.5t-85 -89.5q-31 -28 -68 -33 t-63 14q-29 21 -46.5 76t-27.5 70q-3 0 -12 -30t-20.5 -63.5t-20.5 -39.5q-1 -1 -7.5 -16t-19 -31t-30.5 -25q-3 1 -9.5 -6t-11.5 -8q-21 -4 -59 6q-15 2 -45 19.5t-23 29.5q-64 81 -89 143t-25 150zM49 1022q0 38 25 49q20 8 32 35q11 27 39 55q20 24 21 33q3 13 20 10 l43 -6q46 -8 66 -4q21 8 27 -8q3 -12 10.5 -22t19.5 -20.5t17 -17.5q45 -49 53 -96q0 -4 2 -9t5.5 -11t4.5 -9q4 -12 4 -14q0 -16 -8 -18q-10 -4 -18 8q-29 33 -64 88q-18 23 -22 27q-17 17 -31 -2q-15 -18 -21 -31q-14 -28 -55.5 -71.5t-54.5 -65.5q-16 -19 -43 -4 q-69 38 -72 104z" />
<glyph unicode="&#xfc;" horiz-adv-x="665" d="M-20 631q0 32 24 143q4 20 7 27t9.5 11.5t10.5 8.5q5 10 40.5 3.5t41.5 -5.5q9 3 18 -4.5t18.5 -19.5t12.5 -15q6 -4 22 -15.5t23.5 -18t18 -18t14.5 -24.5t2 -28q-29 -148 -25 -215q12 4 23 22t22 46t12 30q14 16 34.5 99t43.5 98q23 14 62 0.5t51 -39.5 q5 -24 1.5 -51.5t-11.5 -70t-9 -52.5q0 -2 1 -18t2.5 -29t4.5 -30t9 -30.5t14 -21.5q9 -15 32.5 -4t27.5 10q2 2 17.5 16t30.5 29t35 37.5t41.5 54t40.5 66.5l1 2q11 12 26 -2q1 -1 3.5 -4t2.5 -4t0.5 -4.5t-1 -8.5t-5.5 -12q-28 -56 -87 -125.5t-85 -89.5q-31 -28 -68 -33 t-63 14q-29 21 -46.5 76t-27.5 70q-3 0 -12 -30t-20.5 -63.5t-20.5 -39.5q-1 -1 -7.5 -16t-19 -31t-30.5 -25q-3 1 -9.5 -6t-11.5 -8q-21 -4 -59 6q-15 2 -45 19.5t-23 29.5q-64 81 -89 143t-25 150zM-2.5 1013.5q-0.5 6.5 0 11t2 16t2.5 18.5l10 37l39 24q25 19 64 10 q48 -21 92 -86q16 -33 -6 -55q-28 -39 -103 -39q-32 0 -34 1q-3 2 -1 5q0 3 -5 6t-10.5 5.5t-6.5 3.5q-1 0 -15 11t-16 13q-6 4 -9 8t-3.5 10.5zM307 1001q-8 21 0 39q19 38 23 52q9 37 49 43q40 10 53 10q44 0 57 -39l7 -35q15 -49 -27 -82q-20 -14 -51 -28 q-25 -21 -63.5 -8t-47.5 48z" />
<glyph unicode="&#xfd;" horiz-adv-x="747" d="M-41 797q8 4 14 10q22 25 74 29q10 1 20.5 -1.5t22.5 -6.5t19 -5q28 -6 55 -24q45 -29 63 -76q43 -109 49 -209q3 -6 3 -14q3 -10 12 -2l14 14q19 28 43 70q3 9 12 18q-13 13 2 35q35 48 50 80q7 16 34 24l56 19q39 9 47 -29q2 -20 2.5 -24.5t-2 -24.5t-2.5 -25 q-25 -196 -21 -249q18 20 55.5 56t53.5 56q29 39 78 78q7 2 43 30.5t39 30.5q24 3 24 -18q-5 -18 -74 -78q-7 -7 -10 -16q-7 -6 -20.5 -19.5t-20.5 -19.5q-13 -9 -26 -20.5t-22.5 -20.5t-23 -24t-20 -22.5t-21 -26t-18.5 -23.5t-20.5 -27t-18.5 -25q-20 -28 -30 -75 q-6 -24 -4.5 -27t-0.5 -27q-1 -13 -6.5 -34.5t-7.5 -32.5q-16 -108 -49 -244q-24 -85 -64 -164q-27 -49 -53 -84q-32 -35 -76 -4q-16 10 -38 41q-3 5 -12 19t-13 21.5t-8.5 20.5t-5.5 25q0 36 10 84q1 6 12 45q2 14 7 29.5t9 24.5t13 28t12 25q22 46 71 128.5t68 119.5 q40 79 50 204q0 7 3 21.5t3 21.5q1 18 -5 15q-4 -2 -16 -17q-30 -37 -35 -57q0 -2 -2 -4q-32 -38 -80 -121q-14 -23 -57 -23q-18 1 -25 5t-15 11.5t-23 12.5q-33 12 -47 51q-57 125 -82 219q-8 27 -27 125q-12 68 -41 97zM201 897v6q28 34 39 111q1 6 5 13.5t11 16.5 t12.5 15.5t14 16t10.5 11.5q13 22 16 29q23 22 15 45q7 2 16.5 -1t11.5 -3q8 -11 26 -26t23 -21q11 -12 41 -70q5 -11 0 -16q-16 -40 -36 -53q-15 -12 -52 -49q-47 -49 -116 -43q-25 0 -37 18zM227.5 -190.5q-0.5 -11.5 0 -19t2 -21t1.5 -19.5q0 -20 17 -6q16 13 22 31 q2 5 10 24.5t13 28.5q31 73 37 98q9 29 22.5 89.5t22.5 90.5q5 18 -2 31q-76 -111 -94 -149q-2 -4 -6.5 -10.5t-7 -12.5t-3.5 -12q-25 -103 -31 -123q-3 -9 -3.5 -20.5z" />
<glyph unicode="&#xfe;" horiz-adv-x="772" d="M0 516q0 105 2 158q3 12 13.5 241t15.5 259q4 33 -4 49q-13 23 12 26q15 2 32 6.5t26.5 6.5t25 1.5t35.5 -6.5q106 -28 106 -139q-3 -144 2 -381q0 -5 -1 -13.5t-1.5 -14t1.5 -13.5t7 -14l54 45q64 61 139 39q8 -2 25.5 -4t19.5 -2q19 -3 37 -17q49 -45 71 -69 q44 -47 31 -115q-10 -57 -43 -96q-2 -3 -4.5 -5.5t-5.5 -5t-4 -3.5q-2 -2 -9.5 -17.5t-9.5 -17.5q-10 -12 41 5q49 17 84 34q37 18 74 77q37 53 57 109q3 9 8.5 28.5t8.5 28.5q11 38 20 39q5 0 10 -10q0 -1 1 -2q5 -10 14 -10q13 -50 -25 -125q-13 -28 -51 -80 q-60 -84 -182 -150q-36 -19 -107 -36.5t-90 -24.5q-33 -12 -72 7t-51 50q-2 5 -3 9.5t-0.5 8.5t0.5 7t3 6l4.5 4.5t6.5 4.5t7 4.5t9 5t10 4.5q55 29 64 61q3 11 10.5 32t11 33t9 33t5.5 33.5t-1 34.5q0 24 -9 51q-6 20 -29 26.5t-38 -7.5q-4 -4 -18.5 -21.5t-35 -41.5 t-28.5 -34q-22 -30 -27 -110q-1 -32 -12 -152t-12 -233q0 -16 -6 -43t-7 -31q-7 -41 2 -143q4 -24 4 -37q-1 -35 -19.5 -49t-55.5 -11q-19 2 -28.5 7.5t-20 19t-21.5 22.5q-14 12 -22 35q-3 11 -14.5 45t-16.5 50.5t-12.5 44.5t-10.5 52t-4 48q-1 66 0 102.5t1 57t-3 34.5 q-1 2 4 74v2z" />
<glyph unicode="&#xff;" horiz-adv-x="747" d="M-41 797q8 4 14 10q22 25 74 29q10 1 20.5 -1.5t22.5 -6.5t19 -5q28 -6 55 -24q45 -29 63 -76q43 -109 49 -209q3 -6 3 -14q3 -10 12 -2l14 14q19 28 43 70q3 9 12 18q-13 13 2 35q35 48 50 80q7 16 34 24l56 19q39 9 47 -29q2 -20 2.5 -24.5t-2 -24.5t-2.5 -25 q-25 -196 -21 -249q18 20 55.5 56t53.5 56q29 39 78 78q7 2 43 30.5t39 30.5q24 3 24 -18q-5 -18 -74 -78q-7 -7 -10 -16q-7 -6 -20.5 -19.5t-20.5 -19.5q-13 -9 -26 -20.5t-22.5 -20.5t-23 -24t-20 -22.5t-21 -26t-18.5 -23.5t-20.5 -27t-18.5 -25q-20 -28 -30 -75 q-6 -24 -4.5 -27t-0.5 -27q-1 -13 -6.5 -34.5t-7.5 -32.5q-16 -108 -49 -244q-24 -85 -64 -164q-27 -49 -53 -84q-32 -35 -76 -4q-16 10 -38 41q-3 5 -12 19t-13 21.5t-8.5 20.5t-5.5 25q0 36 10 84q1 6 12 45q2 14 7 29.5t9 24.5t13 28t12 25q22 46 71 128.5t68 119.5 q40 79 50 204q0 7 3 21.5t3 21.5q1 18 -5 15q-4 -2 -16 -17q-30 -37 -35 -57q0 -2 -2 -4q-32 -38 -80 -121q-14 -23 -57 -23q-18 1 -25 5t-15 11.5t-23 12.5q-33 12 -47 51q-57 125 -82 219q-8 27 -27 125q-12 68 -41 97zM36.5 976.5q-0.5 6.5 0 11t2 16t2.5 18.5l10 37 l39 24q26 20 64 11q48 -21 92 -86q17 -33 -6 -56q-28 -39 -103 -39h-7h-10.5t-10 0.5t-7.5 2t0 4.5q0 3 -5 6t-10.5 5t-6.5 3q-1 0 -15 11t-16 13q-6 4 -9 8t-3.5 10.5zM227.5 -190.5q-0.5 -11.5 0 -19t2 -21t1.5 -19.5q0 -20 17 -6q16 13 22 31q2 5 10 24.5t13 28.5 q31 73 37 98q9 29 22.5 89.5t22.5 90.5q5 18 -2 31q-76 -111 -94 -149q-2 -4 -6.5 -10.5t-7 -12.5t-3.5 -12q-25 -103 -31 -123q-3 -9 -3.5 -20.5zM346 965q-8 21 0 39q20 39 23 51q9 37 49 43q40 10 53 10q44 0 57 -39l7 -35q15 -49 -27 -82q-20 -14 -51 -28 q-25 -21 -63.5 -7.5t-47.5 48.5z" />
<glyph unicode="&#x152;" horiz-adv-x="964" d="M-14 397q-39 118 0 267q10 31 20 73q8 28 6 39q0 10 11 25q10 13 24 6q4 -2 18.5 -6.5t22.5 -9.5q13 -7 39.5 -11t38.5 -10q12 -4 16 4q15 12 45 21q32 10 70.5 7t67.5 -28q2 -2 2 -4q3 -3 25 -19t28 -30l18 -59q6 14 15 28.5t21.5 33.5t19.5 30q44 67 78.5 93t66.5 23 t78 -8q2 0 8 -1.5t8 -0.5q2 -1 4 -1h3.5t2.5 0.5t2 0.5q35 0 54 -31q28 -58 16 -94q-4 -18 -9 -52t-9 -52q-3 -28 -17 -45q-19 -26 -48.5 -81t-49.5 -81q-22 -43 -20 -53q4 -26 28 -76q18 -18 45 -6q63 26 114 74t99 149q10 33 33 63q13 17 16 33q5 18 11 22t20 -7 q2 -2 6 -5t5 -4.5t2 -5.5t-1 -9t-6 -13q-33 -61 -33 -78q-32 -87 -113.5 -176t-146.5 -111q-51 -7 -53 -8q-8 0 -10 -2q-9 0 -25.5 -3t-26 -3.5t-26.5 4.5q-4 1 -27 6t-39.5 12t-33.5 19q-60 47 -82 112q-9 -19 -39 -61q-7 -13 -25.5 -35t-25.5 -35q-16 -28 -49 -28 q-120 3 -197 57q-65 43 -96 141zM199 322q2 -5 4 -14t4 -13q9 -23 29 -27t40 15q27 19 39 36q59 86 82 203q9 40 4 123q-2 26 -17 49t-42 33q-2 1 -9.5 4t-12 4.5t-11 2.5t-12 -1.5t-10.5 -7.5q-15 -15 -24.5 -32t-12.5 -34t-3.5 -28.5t0.5 -24.5l1 -14q0 -16 -8 -44.5 t-9 -39.5q-15 -82 -20 -96q-19 -42 -12 -94zM645 596q-1 -6 6.5 -46.5t7.5 -45.5q0 -17 17 1q11 12 16 25q4 9 11.5 28t11.5 30.5t10 29t9 31.5t6 30t2.5 31.5t-3.5 30.5q-3 14 -14.5 15t-21 -6.5t-7.5 -12.5q-19 -30 -24 -47q-23 -48 -23 -80q0 -3 -2 -7.5t-2 -6.5z" />
<glyph unicode="&#x153;" horiz-adv-x="964" d="M-14 397q-39 118 0 267q10 31 20 73q8 28 6 39q0 10 11 25q10 13 24 6q4 -2 18.5 -6.5t22.5 -9.5q13 -7 39.5 -11t38.5 -10q12 -4 16 4q15 12 45 21q32 10 70.5 7t67.5 -28q2 -2 2 -4q3 -3 25 -19t28 -30l18 -59q6 14 15 28.5t21.5 33.5t19.5 30q44 67 78.5 93t66.5 23 t78 -8q2 0 8 -1.5t8 -0.5q2 -1 4 -1h3.5t2.5 0.5t2 0.5q35 0 54 -31q28 -58 16 -94q-4 -18 -9 -52t-9 -52q-3 -28 -17 -45q-19 -26 -48.5 -81t-49.5 -81q-22 -43 -20 -53q4 -26 28 -76q18 -18 45 -6q63 26 114 74t99 149q10 33 33 63q13 17 16 33q5 18 11 22t20 -7 q2 -2 6 -5t5 -4.5t2 -5.5t-1 -9t-6 -13q-33 -61 -33 -78q-32 -87 -113.5 -176t-146.5 -111q-51 -7 -53 -8q-8 0 -10 -2q-9 0 -25.5 -3t-26 -3.5t-26.5 4.5q-4 1 -27 6t-39.5 12t-33.5 19q-60 47 -82 112q-9 -19 -39 -61q-7 -13 -25.5 -35t-25.5 -35q-16 -28 -49 -28 q-120 3 -197 57q-65 43 -96 141zM199 322q2 -5 4 -14t4 -13q9 -23 29 -27t40 15q27 19 39 36q59 86 82 203q9 40 4 123q-2 26 -17 49t-42 33q-2 1 -9.5 4t-12 4.5t-11 2.5t-12 -1.5t-10.5 -7.5q-15 -15 -24.5 -32t-12.5 -34t-3.5 -28.5t0.5 -24.5l1 -14q0 -16 -8 -44.5 t-9 -39.5q-15 -82 -20 -96q-19 -42 -12 -94zM645 596q-1 -6 6.5 -46.5t7.5 -45.5q0 -17 17 1q11 12 16 25q4 9 11.5 28t11.5 30.5t10 29t9 31.5t6 30t2.5 31.5t-3.5 30.5q-3 14 -14.5 15t-21 -6.5t-7.5 -12.5q-19 -30 -24 -47q-23 -48 -23 -80q0 -3 -2 -7.5t-2 -6.5z" />
<glyph unicode="&#x178;" horiz-adv-x="747" d="M-41 797q8 4 14 10q22 25 74 29q10 1 20.5 -1.5t22.5 -6.5t19 -5q28 -6 55 -24q45 -29 63 -76q43 -109 49 -209q3 -6 3 -14q3 -10 12 -2l14 14q19 28 43 70q3 9 12 18q-13 13 2 35q35 48 50 80q7 16 34 24l56 19q39 9 47 -29q2 -20 2.5 -24.5t-2 -24.5t-2.5 -25 q-25 -196 -21 -249q18 20 55.5 56t53.5 56q29 39 78 78q7 2 43 30.5t39 30.5q24 3 24 -18q-5 -18 -74 -78q-7 -7 -10 -16q-7 -6 -20.5 -19.5t-20.5 -19.5q-13 -9 -26 -20.5t-22.5 -20.5t-23 -24t-20 -22.5t-21 -26t-18.5 -23.5t-20.5 -27t-18.5 -25q-20 -28 -30 -75 q-6 -24 -4.5 -27t-0.5 -27q-1 -13 -6.5 -34.5t-7.5 -32.5q-16 -108 -49 -244q-24 -85 -64 -164q-27 -49 -53 -84q-32 -35 -76 -4q-16 10 -38 41q-3 5 -12 19t-13 21.5t-8.5 20.5t-5.5 25q0 36 10 84q1 6 12 45q2 14 7 29.5t9 24.5t13 28t12 25q22 46 71 128.5t68 119.5 q40 79 50 204q0 7 3 21.5t3 21.5q1 18 -5 15q-4 -2 -16 -17q-30 -37 -35 -57q0 -2 -2 -4q-32 -38 -80 -121q-14 -23 -57 -23q-18 1 -25 5t-15 11.5t-23 12.5q-33 12 -47 51q-57 125 -82 219q-8 27 -27 125q-12 68 -41 97zM36.5 976.5q-0.5 6.5 0 11t2 16t2.5 18.5l10 37 l39 24q26 20 64 11q48 -21 92 -86q17 -33 -6 -56q-28 -39 -103 -39h-7h-10.5t-10 0.5t-7.5 2t0 4.5q0 3 -5 6t-10.5 5t-6.5 3q-1 0 -15 11t-16 13q-6 4 -9 8t-3.5 10.5zM227.5 -190.5q-0.5 -11.5 0 -19t2 -21t1.5 -19.5q0 -20 17 -6q16 13 22 31q2 5 10 24.5t13 28.5 q31 73 37 98q9 29 22.5 89.5t22.5 90.5q5 18 -2 31q-76 -111 -94 -149q-2 -4 -6.5 -10.5t-7 -12.5t-3.5 -12q-25 -103 -31 -123q-3 -9 -3.5 -20.5zM346 965q-8 21 0 39q20 39 23 51q9 37 49 43q40 10 53 10q44 0 57 -39l7 -35q15 -49 -27 -82q-20 -14 -51 -28 q-25 -21 -63.5 -7.5t-47.5 48.5z" />
<glyph unicode="&#x2000;" horiz-adv-x="820" />
<glyph unicode="&#x2001;" horiz-adv-x="1641" />
<glyph unicode="&#x2002;" horiz-adv-x="820" />
<glyph unicode="&#x2003;" horiz-adv-x="1641" />
<glyph unicode="&#x2004;" horiz-adv-x="547" />
<glyph unicode="&#x2005;" horiz-adv-x="410" />
<glyph unicode="&#x2006;" horiz-adv-x="273" />
<glyph unicode="&#x2007;" horiz-adv-x="273" />
<glyph unicode="&#x2008;" horiz-adv-x="205" />
<glyph unicode="&#x2009;" horiz-adv-x="328" />
<glyph unicode="&#x200a;" horiz-adv-x="91" />
<glyph unicode="&#x2010;" horiz-adv-x="817" d="M164 627q0 21 20 30q31 9 52 -2q22 -19 53 -12q32 4 113.5 2t113.5 -6q23 -4 64 2q4 1 11 3.5t11 2.5q2 -1 33 -6q23 -8 18 -29q-1 -2 -4.5 -13.5t-4.5 -15.5t-4.5 -15t-6 -16.5t-6.5 -15t-8 -15t-8.5 -12.5t-9.5 -12.5t-11 -9.5q-27 -21 -60 -8q-15 7 -22 4 q-17 -2 -116.5 -2t-119.5 -2h-18q-39 0 -51 -28q-9 -5 -13 -2q2 11 1.5 16t-3.5 15.5t-4 15.5q-6 18 -20 131z" />
<glyph unicode="&#x2011;" horiz-adv-x="817" d="M164 627q0 21 20 30q31 9 52 -2q22 -19 53 -12q32 4 113.5 2t113.5 -6q23 -4 64 2q4 1 11 3.5t11 2.5q2 -1 33 -6q23 -8 18 -29q-1 -2 -4.5 -13.5t-4.5 -15.5t-4.5 -15t-6 -16.5t-6.5 -15t-8 -15t-8.5 -12.5t-9.5 -12.5t-11 -9.5q-27 -21 -60 -8q-15 7 -22 4 q-17 -2 -116.5 -2t-119.5 -2h-18q-39 0 -51 -28q-9 -5 -13 -2q2 11 1.5 16t-3.5 15.5t-4 15.5q-6 18 -20 131z" />
<glyph unicode="&#x2012;" horiz-adv-x="817" d="M164 627q0 21 20 30q31 9 52 -2q22 -19 53 -12q32 4 113.5 2t113.5 -6q23 -4 64 2q4 1 11 3.5t11 2.5q2 -1 33 -6q23 -8 18 -29q-1 -2 -4.5 -13.5t-4.5 -15.5t-4.5 -15t-6 -16.5t-6.5 -15t-8 -15t-8.5 -12.5t-9.5 -12.5t-11 -9.5q-27 -21 -60 -8q-15 7 -22 4 q-17 -2 -116.5 -2t-119.5 -2h-18q-39 0 -51 -28q-9 -5 -13 -2q2 11 1.5 16t-3.5 15.5t-4 15.5q-6 18 -20 131z" />
<glyph unicode="&#x2013;" horiz-adv-x="1351" d="M164 627q0 21 42 30q65 9 108 -2q46 -19 111 -12q67 4 237.5 2t237.5 -6q48 -4 134 2q8 1 22.5 3.5t23.5 2.5q4 -1 69 -6q48 -8 37 -29q-2 -2 -9.5 -13.5t-9.5 -15.5t-9 -15t-12.5 -16.5t-14 -15t-16.5 -15t-17.5 -12.5t-20 -12.5t-23.5 -9.5q-56 -21 -125 -8 q-31 7 -46 4q-35 -2 -243 -2t-250 -2h-38q-81 0 -106 -28q-19 -5 -28 -2q5 11 3.5 16t-7.5 15.5t-8 15.5q-13 18 -42 131z" />
<glyph unicode="&#x2014;" horiz-adv-x="2375" d="M164 627q0 21 84 30q129 9 217 -2q92 -19 222 -12q133 4 474 2t475 -6q96 -4 267 2q17 1 46 3.5t46 2.5q8 -1 138 -6q96 -8 75 -29q-4 -2 -18.5 -13.5t-19 -15.5t-19 -15t-25 -16.5t-27 -15t-33.5 -15t-35.5 -12.5t-39.5 -12.5t-46 -9.5q-113 -21 -251 -8q-63 7 -92 4 q-71 -2 -487 -2t-500 -2h-75q-163 0 -213 -28q-38 -5 -54 -2q8 11 6 16t-14.5 15.5t-16.5 15.5q-25 18 -84 131z" />
<glyph unicode="&#x202f;" horiz-adv-x="328" />
<glyph unicode="&#x205f;" horiz-adv-x="410" />
<glyph unicode="&#x25fc;" horiz-adv-x="819" d="M0 0v819h819v-819h-819z" />
</font>
</defs>
</svg>
